<svg width="423" height="240" viewBox="0 0 423 240" fill="none" xmlns="http://www.w3.org/2000/svg">
<rect x="-0.000488281" y="-0.000732422" width="423" height="240" rx="12" fill="#9FE7F5"/>
<rect x="0.499512" y="0.499268" width="422" height="239" rx="11.5" stroke="#324B50" stroke-opacity="0.08"/>
<path d="M23.2795 72.9993H21.1195V59.5993H26.8795C29.8395 59.5993 31.6995 61.0593 31.6995 63.5993C31.6995 65.8193 30.3395 67.1593 27.9795 67.2793V67.4393C28.9595 67.7593 29.5395 68.3593 30.0395 69.2793L32.0395 72.9993H29.5395L27.6395 69.5393C27.0195 68.3793 26.4595 67.8393 24.8595 67.8393H23.2795V72.9993ZM23.2795 61.5393V66.0593H27.1395C28.8795 66.0593 29.5395 65.4193 29.5395 63.7993C29.5395 62.2193 28.8795 61.5393 27.1395 61.5393H23.2795ZM37.2286 73.1993C33.9486 73.1993 32.4086 71.1193 32.4086 68.0193C32.4086 64.9393 34.2486 62.8593 37.2086 62.8593C39.8886 62.8593 41.7686 64.4593 41.7686 67.1793C41.7686 67.6993 41.7086 68.2393 41.6486 68.5393H34.4286C34.5086 70.3593 35.1686 71.2793 37.2486 71.2793C38.9086 71.2793 39.5486 70.7193 39.5486 69.8193V69.6593H41.6886V69.8393C41.6886 71.8793 39.9086 73.1993 37.2286 73.1993ZM37.1686 64.6793C35.2886 64.6793 34.5686 65.5593 34.4486 67.0993H39.7086C39.7886 65.3993 38.8686 64.6793 37.1686 64.6793ZM45.9095 72.9993H43.7495V64.8593H42.2895V63.0593H43.7495C43.7895 60.8193 45.1295 59.5993 47.6495 59.5993H48.4495V61.3193H47.2495C46.2895 61.3193 45.8495 61.6793 45.8495 62.5193V63.0593H48.4495V64.8593H45.9095V72.9993ZM53.4415 73.1993C50.1615 73.1993 48.6215 71.1193 48.6215 68.0193C48.6215 64.9393 50.4615 62.8593 53.4215 62.8593C56.1015 62.8593 57.9815 64.4593 57.9815 67.1793C57.9815 67.6993 57.9215 68.2393 57.8615 68.5393H50.6415C50.7215 70.3593 51.3815 71.2793 53.4615 71.2793C55.1215 71.2793 55.7615 70.7193 55.7615 69.8193V69.6593H57.9015V69.8393C57.9015 71.8793 56.1215 73.1993 53.4415 73.1993ZM53.3815 64.6793C51.5015 64.6793 50.7815 65.5593 50.6615 67.0993H55.9215C56.0015 65.3993 55.0815 64.6793 53.3815 64.6793ZM61.7001 72.9993H59.5401V62.9993H61.5201V64.5793H61.6201C62.0201 63.6593 62.9401 62.8593 64.4001 62.8593C66.4801 62.8593 67.2801 64.3793 67.2801 66.2393V66.8993H65.1201V66.4993C65.1201 65.1793 64.7401 64.6993 63.4801 64.6993C62.1801 64.6993 61.7001 65.1993 61.7001 66.5193V72.9993ZM70.6172 72.9993H68.4572V62.9993H70.4372V64.5793H70.5372C70.9372 63.6593 71.8572 62.8593 73.3172 62.8593C75.3972 62.8593 76.1972 64.3793 76.1972 66.2393V66.8993H74.0372V66.4993C74.0372 65.1793 73.6572 64.6993 72.3972 64.6993C71.0972 64.6993 70.6172 65.1993 70.6172 66.5193V72.9993ZM79.8989 73.1993C78.1189 73.1993 76.7389 72.2793 76.7389 70.5393C76.7389 68.8993 77.9389 68.0393 80.0589 67.7393L83.5389 67.2193V66.6793C83.5389 65.1993 82.8589 64.7593 81.2989 64.7593C79.7189 64.7593 79.0989 65.2593 79.0989 66.5793V66.8793H77.0189V66.6793C77.0189 64.4593 78.7589 62.8593 81.4189 62.8593C84.1989 62.8593 85.5989 64.5393 85.5989 66.9593V72.9993H83.5989V71.4393H83.4989C82.9189 72.3793 81.7789 73.1993 79.8989 73.1993ZM78.8389 70.3793C78.8389 71.1593 79.3389 71.4793 80.5989 71.4793C81.9989 71.4793 83.5389 70.9193 83.5389 68.9193V68.7393L80.3789 69.2193C79.2389 69.3793 78.8389 69.6393 78.8389 70.3793ZM89.6622 72.9993H87.5022V59.5993H89.6622V72.9993ZM97.239 61.7993H95.099L95.079 59.5993H97.239V61.7993ZM97.259 72.9993H95.099V62.9993H97.259V72.9993ZM103.199 73.1993C100.299 73.1993 98.7789 72.0593 98.7789 69.6393V69.5993H100.859V69.9593C100.859 71.0393 101.339 71.4393 103.239 71.4393C104.839 71.4393 105.139 71.0793 105.139 70.3393C105.139 69.5393 104.659 69.2993 103.199 69.0393L101.659 68.7793C99.8789 68.4593 98.7589 67.6593 98.7589 65.8593C98.7589 64.0593 100.239 62.8593 102.839 62.8593C105.179 62.8593 106.939 64.0193 106.939 66.2793V66.4593H104.879V66.2193C104.879 65.2993 104.559 64.6393 102.779 64.6393C101.199 64.6393 100.819 65.0593 100.819 65.8193C100.819 66.5793 101.179 66.7993 102.579 67.0793L104.259 67.3993C106.179 67.7793 107.179 68.6393 107.179 70.2793C107.179 72.1193 105.719 73.1993 103.199 73.1993ZM116.521 72.9993C114.301 72.9993 113.141 72.1793 113.141 69.9393V64.8593H111.481V63.0593H113.181L113.641 60.5993H115.301V63.0593H118.301V64.8593H115.301V69.8393C115.301 70.8793 115.741 71.0593 117.081 71.0593H118.301V72.8193C117.881 72.9193 117.201 72.9993 116.521 72.9993ZM121.836 72.9993H119.676V59.5993H121.836V64.7193H121.916C122.376 63.8193 123.436 62.8593 125.236 62.8593C127.836 62.8593 128.936 64.5593 128.936 66.7393V72.9993H126.776V67.2393C126.776 65.4593 126.216 64.7193 124.396 64.7193C122.636 64.7193 121.836 65.3993 121.836 67.2793V72.9993ZM135.279 73.1993C131.999 73.1993 130.459 71.1193 130.459 68.0193C130.459 64.9393 132.299 62.8593 135.259 62.8593C137.939 62.8593 139.819 64.4593 139.819 67.1793C139.819 67.6993 139.759 68.2393 139.699 68.5393H132.479C132.559 70.3593 133.219 71.2793 135.299 71.2793C136.959 71.2793 137.599 70.7193 137.599 69.8193V69.6593H139.739V69.8393C139.739 71.8793 137.959 73.1993 135.279 73.1993ZM135.219 64.6793C133.339 64.6793 132.619 65.5593 132.499 67.0993H137.759C137.839 65.3993 136.919 64.6793 135.219 64.6793ZM147.24 72.9993H145.08V59.5993H147.24V66.9993H149.2L151.86 63.0593H154.4L150.94 67.7593L154.34 72.9993H151.82L149.22 68.9393H147.24V72.9993ZM159.237 73.1993C155.957 73.1993 154.417 71.1193 154.417 68.0193C154.417 64.9393 156.257 62.8593 159.217 62.8593C161.897 62.8593 163.777 64.4593 163.777 67.1793C163.777 67.6993 163.717 68.2393 163.657 68.5393H156.437C156.517 70.3593 157.177 71.2793 159.257 71.2793C160.917 71.2793 161.557 70.7193 161.557 69.8193V69.6593H163.697V69.8393C163.697 71.8793 161.917 73.1993 159.237 73.1993ZM159.177 64.6793C157.297 64.6793 156.577 65.5593 156.457 67.0993H161.717C161.797 65.3993 160.877 64.6793 159.177 64.6793ZM166.508 76.3993C165.968 76.3993 165.348 76.3193 165.008 76.2193V74.4593H166.368C167.228 74.4593 167.528 74.3193 167.848 73.5793L168.228 72.7393L164.008 63.0593H166.388L168.388 67.8793L169.288 70.0393H169.448L170.268 67.8793L172.088 63.0593H174.468L169.768 74.1793C169.028 75.9393 168.068 76.3993 166.508 76.3993Z" fill="#324B50"/>
<path d="M37.8555 116.999H21.5035V95.5593H37.8555V99.8793H26.3035V104.071H37.3755V108.359H26.3035V112.679H37.8555V116.999ZM43.6405 116.999H38.6485L46.5525 95.5593H53.5285L61.4325 116.999H56.2165L54.4885 112.231H45.4005L43.6405 116.999ZM48.1845 104.615L46.9685 107.943H52.9205L51.7045 104.615L50.1365 99.7833H49.8165L48.1845 104.615ZM67.0673 116.999H62.2673V95.5593H72.1233C77.2433 95.5593 80.0913 97.9273 80.0913 102.087C80.0913 105.575 78.3633 107.655 74.6833 107.975V108.295C76.5393 108.871 77.4353 109.991 78.2673 111.623L80.9873 116.999H75.3873L72.8593 112.039C71.8993 110.183 71.2593 109.383 68.9873 109.383H67.0673V116.999ZM67.0673 99.8793V105.415H72.3473C74.5873 105.415 75.3233 104.743 75.3233 102.631C75.3233 100.583 74.5873 99.8793 72.3473 99.8793H67.0673ZM86.996 116.999H82.196V95.5593H87.316L94.26 106.311L96.052 109.191H96.372L96.308 106.311V95.5593H101.108V116.999H95.988L89.332 106.855L87.252 103.559H86.932L86.996 106.855V116.999ZM114.666 116.999H109.866V95.5593H116.618L120.362 105.575L122.09 111.079H122.41L124.106 105.575L127.69 95.5593H134.442V116.999H129.642V106.855L129.898 102.727H129.546L128.298 106.919L125.066 115.527H119.242L116.01 106.919L114.73 102.727H114.41L114.666 106.855V116.999ZM146.994 117.319C140.594 117.319 136.69 112.967 136.69 106.279C136.69 99.5913 140.594 95.2393 146.994 95.2393C153.394 95.2393 157.266 99.5913 157.266 106.279C157.266 112.967 153.394 117.319 146.994 117.319ZM146.994 112.679C150.674 112.679 152.146 111.303 152.146 106.279C152.146 101.255 150.674 99.8793 146.994 99.8793C143.314 99.8793 141.81 101.255 141.81 106.279C141.81 111.303 143.314 112.679 146.994 112.679ZM164.211 116.999H159.411V95.5593H164.531L171.475 106.311L173.267 109.191H173.587L173.523 106.311V95.5593H178.323V116.999H173.203L166.547 106.855L164.467 103.559H164.147L164.211 106.855V116.999ZM197.598 116.999H181.246V95.5593H197.598V99.8793H186.046V104.071H197.118V108.359H186.046V112.679H197.598V116.999ZM211.415 116.999H206.615V109.255L198.263 95.5593H203.703L207.063 101.191L208.919 104.359H209.239L211.063 101.191L214.423 95.5593H219.767L211.415 109.255V116.999Z" fill="#A04100"/>
<path d="M23.9235 145.119C21.6075 145.119 20.5995 144.051 20.5995 142.503V142.299H21.8715V142.431C21.8715 143.427 22.2915 143.931 23.9715 143.931C25.1595 143.931 25.5915 143.607 25.5915 142.863C25.5915 142.131 25.3515 141.867 24.1155 141.615L22.7475 141.339C21.3675 141.075 20.6235 140.403 20.6235 139.131C20.6235 137.943 21.5475 136.839 23.6235 136.839C25.8435 136.839 26.7315 138.087 26.7315 139.515V139.659H25.4595V139.527C25.4595 138.543 25.0275 138.027 23.5875 138.027C22.3995 138.027 21.9195 138.363 21.9195 139.071C21.9195 139.803 22.2435 140.007 23.3475 140.247L24.7155 140.535C26.2275 140.847 26.8875 141.603 26.8875 142.815C26.8875 144.075 25.9755 145.119 23.9235 145.119ZM30.2944 145.119C28.3264 145.119 27.4024 143.871 27.4024 142.011C27.4024 140.163 28.5064 138.915 30.2824 138.915C31.8904 138.915 33.0184 139.875 33.0184 141.507C33.0184 141.819 32.9824 142.143 32.9464 142.323H28.6144C28.6624 143.415 29.0584 143.967 30.3064 143.967C31.3024 143.967 31.6864 143.631 31.6864 143.091V142.995H32.9704V143.103C32.9704 144.327 31.9024 145.119 30.2944 145.119ZM30.2584 140.007C29.1304 140.007 28.6984 140.535 28.6264 141.459H31.7824C31.8304 140.439 31.2784 140.007 30.2584 140.007ZM36.3341 145.119C34.6301 145.119 33.7061 143.907 33.7061 142.011C33.7061 140.127 34.6181 138.915 36.2621 138.915C37.3181 138.915 37.9541 139.419 38.2181 139.959H38.2541V136.959H39.5381V144.999H38.3501V144.015H38.3021C38.0141 144.699 37.3541 145.119 36.3341 145.119ZM35.0021 142.011C35.0021 143.487 35.4701 144.015 36.6221 144.015C37.6781 144.015 38.2541 143.547 38.2541 142.551V141.483C38.2541 140.487 37.6781 140.019 36.6221 140.019C35.4821 140.019 35.0021 140.547 35.0021 142.011ZM44.965 145.119C43.405 145.119 42.709 144.075 42.709 142.719V139.035H44.005V142.491C44.005 143.559 44.413 144.003 45.445 144.003C46.441 144.003 47.005 143.571 47.005 142.395V139.035H48.301V144.999H47.101V143.811H47.053C46.765 144.495 46.129 145.119 44.965 145.119ZM51.8378 144.999C50.5058 144.999 49.8098 144.507 49.8098 143.163V140.115H48.8138V139.035H49.8338L50.1098 137.559H51.1058V139.035H52.9058V140.115H51.1058V143.103C51.1058 143.727 51.3698 143.835 52.1738 143.835H52.9058V144.891C52.6538 144.951 52.2458 144.999 51.8378 144.999ZM56.9626 147.075H55.6786V139.035H56.8546V140.019H56.9146C57.1906 139.323 57.8746 138.915 58.9066 138.915C60.5866 138.915 61.5106 140.127 61.5106 142.023C61.5106 143.907 60.6106 145.119 58.9906 145.119C57.9226 145.119 57.2626 144.627 56.9986 144.075H56.9626V147.075ZM56.9626 142.551C56.9626 143.547 57.5386 144.015 58.5946 144.015C59.7346 144.015 60.2146 143.487 60.2146 142.023C60.2146 140.547 59.7466 140.019 58.5946 140.019C57.5386 140.019 56.9626 140.487 56.9626 141.483V142.551ZM65.0808 145.119C63.1128 145.119 62.1888 143.871 62.1888 142.011C62.1888 140.163 63.2928 138.915 65.0688 138.915C66.6768 138.915 67.8048 139.875 67.8048 141.507C67.8048 141.819 67.7688 142.143 67.7328 142.323H63.4008C63.4488 143.415 63.8448 143.967 65.0928 143.967C66.0888 143.967 66.4728 143.631 66.4728 143.091V142.995H67.7568V143.103C67.7568 144.327 66.6888 145.119 65.0808 145.119ZM65.0448 140.007C63.9168 140.007 63.4848 140.535 63.4128 141.459H66.5688C66.6168 140.439 66.0648 140.007 65.0448 140.007ZM69.9699 144.999H68.6739V138.999H69.8619V139.947H69.9219C70.1619 139.395 70.7139 138.915 71.5899 138.915C72.8379 138.915 73.3179 139.827 73.3179 140.943V141.339H72.0219V141.099C72.0219 140.307 71.7939 140.019 71.0379 140.019C70.2579 140.019 69.9699 140.319 69.9699 141.111V144.999ZM76.5716 145.119C74.8316 145.119 73.9196 144.435 73.9196 142.983V142.959H75.1676V143.175C75.1676 143.823 75.4556 144.063 76.5956 144.063C77.5556 144.063 77.7356 143.847 77.7356 143.403C77.7356 142.923 77.4476 142.779 76.5716 142.623L75.6476 142.467C74.5796 142.275 73.9076 141.795 73.9076 140.715C73.9076 139.635 74.7956 138.915 76.3556 138.915C77.7596 138.915 78.8156 139.611 78.8156 140.967V141.075H77.5796V140.931C77.5796 140.379 77.3876 139.983 76.3196 139.983C75.3716 139.983 75.1436 140.235 75.1436 140.691C75.1436 141.147 75.3596 141.279 76.1996 141.447L77.2076 141.639C78.3596 141.867 78.9596 142.383 78.9596 143.367C78.9596 144.471 78.0836 145.119 76.5716 145.119ZM81.0409 147.075H79.7569V139.035H80.9329V140.019H80.9929C81.2689 139.323 81.9529 138.915 82.9849 138.915C84.6649 138.915 85.5889 140.127 85.5889 142.023C85.5889 143.907 84.6889 145.119 83.0689 145.119C82.0009 145.119 81.3409 144.627 81.0769 144.075H81.0409V147.075ZM81.0409 142.551C81.0409 143.547 81.6169 144.015 82.6729 144.015C83.8129 144.015 84.2929 143.487 84.2929 142.023C84.2929 140.547 83.8249 140.019 82.6729 140.019C81.6169 140.019 81.0409 140.487 81.0409 141.483V142.551ZM87.6605 138.279H86.3765L86.3645 136.959H87.6605V138.279ZM87.6725 144.999H86.3765V138.999H87.6725V144.999ZM91.315 145.131C89.455 145.131 88.399 143.871 88.399 142.023C88.399 140.163 89.491 138.915 91.363 138.915C92.935 138.915 94.015 139.887 94.015 141.315V141.423H92.731V141.351C92.731 140.475 92.275 140.079 91.279 140.079C90.127 140.079 89.683 140.727 89.683 142.023C89.683 143.319 90.127 143.955 91.279 143.955C92.275 143.955 92.731 143.571 92.731 142.695V142.623H94.015V142.731C94.015 144.147 92.923 145.131 91.315 145.131ZM96.0375 138.279H94.7535L94.7415 136.959H96.0375V138.279ZM96.0495 144.999H94.7535V138.999H96.0495V144.999ZM98.7066 145.119C97.6386 145.119 96.8106 144.567 96.8106 143.523C96.8106 142.539 97.5306 142.023 98.8026 141.843L100.891 141.531V141.207C100.891 140.319 100.483 140.055 99.5466 140.055C98.5986 140.055 98.2266 140.355 98.2266 141.147V141.327H96.9786V141.207C96.9786 139.875 98.0226 138.915 99.6186 138.915C101.287 138.915 102.127 139.923 102.127 141.375V144.999H100.927V144.063H100.867C100.519 144.627 99.8346 145.119 98.7066 145.119ZM98.0706 143.427C98.0706 143.895 98.3706 144.087 99.1266 144.087C99.9666 144.087 100.891 143.751 100.891 142.551V142.443L98.9946 142.731C98.3106 142.827 98.0706 142.983 98.0706 143.427ZM105.628 144.999C104.296 144.999 103.6 144.507 103.6 143.163V140.115H102.604V139.035H103.624L103.9 137.559H104.896V139.035H106.696V140.115H104.896V143.103C104.896 143.727 105.16 143.835 105.964 143.835H106.696V144.891C106.444 144.951 106.036 144.999 105.628 144.999ZM108.585 138.279H107.301L107.289 136.959H108.585V138.279ZM108.597 144.999H107.301V138.999H108.597V144.999ZM112.095 145.119C110.355 145.119 109.443 144.435 109.443 142.983V142.959H110.691V143.175C110.691 143.823 110.979 144.063 112.119 144.063C113.079 144.063 113.259 143.847 113.259 143.403C113.259 142.923 112.971 142.779 112.095 142.623L111.171 142.467C110.103 142.275 109.431 141.795 109.431 140.715C109.431 139.635 110.319 138.915 111.879 138.915C113.283 138.915 114.339 139.611 114.339 140.967V141.075H113.103V140.931C113.103 140.379 112.911 139.983 111.843 139.983C110.895 139.983 110.667 140.235 110.667 140.691C110.667 141.147 110.883 141.279 111.723 141.447L112.731 141.639C113.883 141.867 114.483 142.383 114.483 143.367C114.483 144.471 113.607 145.119 112.095 145.119ZM119.681 145.119C118.121 145.119 117.425 144.075 117.425 142.719V139.035H118.721V142.491C118.721 143.559 119.129 144.003 120.161 144.003C121.157 144.003 121.721 143.571 121.721 142.395V139.035H123.017V144.999H121.817V143.811H121.769C121.481 144.495 120.845 145.119 119.681 145.119ZM125.424 144.999H124.128V139.035H125.316V140.151H125.364C125.64 139.515 126.276 138.915 127.44 138.915C128.988 138.915 129.684 139.899 129.684 141.255V144.999H128.388V141.543C128.388 140.475 128.052 140.031 126.96 140.031C125.904 140.031 125.424 140.439 125.424 141.555V144.999ZM133.124 145.119C131.42 145.119 130.496 143.907 130.496 142.011C130.496 140.127 131.408 138.915 133.052 138.915C134.108 138.915 134.744 139.419 135.008 139.959H135.044V136.959H136.328V144.999H135.14V144.015H135.092C134.804 144.699 134.144 145.119 133.124 145.119ZM131.792 142.011C131.792 143.487 132.26 144.015 133.412 144.015C134.468 144.015 135.044 143.547 135.044 142.551V141.483C135.044 140.487 134.468 140.019 133.412 140.019C132.272 140.019 131.792 140.547 131.792 142.011ZM140.043 145.119C138.075 145.119 137.151 143.871 137.151 142.011C137.151 140.163 138.255 138.915 140.031 138.915C141.639 138.915 142.767 139.875 142.767 141.507C142.767 141.819 142.731 142.143 142.695 142.323H138.363C138.411 143.415 138.807 143.967 140.055 143.967C141.051 143.967 141.435 143.631 141.435 143.091V142.995H142.719V143.103C142.719 144.327 141.651 145.119 140.043 145.119ZM140.007 140.007C138.879 140.007 138.447 140.535 138.375 141.459H141.531C141.579 140.439 141.027 140.007 140.007 140.007ZM148.528 145.119C146.692 145.119 145.552 143.871 145.552 142.011C145.552 140.163 146.692 138.915 148.528 138.915C150.352 138.915 151.456 140.163 151.456 142.011C151.456 143.871 150.352 145.119 148.528 145.119ZM148.528 143.967C149.776 143.967 150.208 143.355 150.208 142.011C150.208 140.679 149.776 140.067 148.528 140.067C147.268 140.067 146.824 140.679 146.824 142.011C146.824 143.355 147.268 143.967 148.528 143.967ZM153.556 144.999H152.26V139.035H153.448V140.151H153.496C153.772 139.515 154.396 138.915 155.536 138.915C156.58 138.915 157.228 139.395 157.516 140.151H157.552C157.828 139.527 158.44 138.915 159.616 138.915C161.152 138.915 161.836 139.899 161.836 141.255V144.999H160.54V141.543C160.54 140.475 160.216 140.031 159.136 140.031C158.152 140.031 157.696 140.439 157.696 141.531V144.999H156.4V141.543C156.4 140.475 156.076 140.031 154.996 140.031C154.012 140.031 153.556 140.439 153.556 141.519V144.999ZM164.207 144.999H162.911V139.035H164.099V140.151H164.147C164.423 139.515 165.059 138.915 166.223 138.915C167.771 138.915 168.467 139.899 168.467 141.255V144.999H167.171V141.543C167.171 140.475 166.835 140.031 165.743 140.031C164.687 140.031 164.207 140.439 164.207 141.555V144.999ZM170.755 138.279H169.471L169.459 136.959H170.755V138.279ZM170.767 144.999H169.471V138.999H170.767V144.999ZM174.265 145.119C172.525 145.119 171.613 144.435 171.613 142.983V142.959H172.861V143.175C172.861 143.823 173.149 144.063 174.289 144.063C175.249 144.063 175.429 143.847 175.429 143.403C175.429 142.923 175.141 142.779 174.265 142.623L173.341 142.467C172.273 142.275 171.601 141.795 171.601 140.715C171.601 139.635 172.489 138.915 174.049 138.915C175.453 138.915 176.509 139.611 176.509 140.967V141.075H175.273V140.931C175.273 140.379 175.081 139.983 174.013 139.983C173.065 139.983 172.837 140.235 172.837 140.691C172.837 141.147 173.053 141.279 173.893 141.447L174.901 141.639C176.053 141.867 176.653 142.383 176.653 143.367C176.653 144.471 175.777 145.119 174.265 145.119ZM180.842 138.279H179.558L179.546 136.959H180.842V138.279ZM180.854 144.999H179.558V138.999H180.854V144.999ZM184.352 145.119C182.612 145.119 181.7 144.435 181.7 142.983V142.959H182.948V143.175C182.948 143.823 183.236 144.063 184.376 144.063C185.336 144.063 185.516 143.847 185.516 143.403C185.516 142.923 185.228 142.779 184.352 142.623L183.428 142.467C182.36 142.275 181.688 141.795 181.688 140.715C181.688 139.635 182.576 138.915 184.136 138.915C185.54 138.915 186.596 139.611 186.596 140.967V141.075H185.36V140.931C185.36 140.379 185.168 139.983 184.1 139.983C183.152 139.983 182.924 140.235 182.924 140.691C182.924 141.147 183.14 141.279 183.98 141.447L184.988 141.639C186.14 141.867 186.74 142.383 186.74 143.367C186.74 144.471 185.864 145.119 184.352 145.119ZM190.046 144.999C188.714 144.999 188.018 144.507 188.018 143.163V140.115H187.022V139.035H188.042L188.318 137.559H189.314V139.035H191.114V140.115H189.314V143.103C189.314 143.727 189.578 143.835 190.382 143.835H191.114V144.891C190.862 144.951 190.454 144.999 190.046 144.999ZM194.267 145.119C192.299 145.119 191.375 143.871 191.375 142.011C191.375 140.163 192.479 138.915 194.255 138.915C195.863 138.915 196.991 139.875 196.991 141.507C196.991 141.819 196.955 142.143 196.919 142.323H192.587C192.635 143.415 193.031 143.967 194.279 143.967C195.275 143.967 195.659 143.631 195.659 143.091V142.995H196.943V143.103C196.943 144.327 195.875 145.119 194.267 145.119ZM194.231 140.007C193.103 140.007 192.671 140.535 192.599 141.459H195.755C195.803 140.439 195.251 140.007 194.231 140.007ZM21.9315 159.999H20.6355V154.035H21.8235V155.151H21.8715C22.1475 154.515 22.7835 153.915 23.9475 153.915C25.4955 153.915 26.1915 154.899 26.1915 156.255V159.999H24.8955V156.543C24.8955 155.475 24.5595 155.031 23.4675 155.031C22.4115 155.031 21.9315 155.439 21.9315 156.555V159.999ZM28.8759 160.119C27.8079 160.119 26.9799 159.567 26.9799 158.523C26.9799 157.539 27.6999 157.023 28.9719 156.843L31.0599 156.531V156.207C31.0599 155.319 30.6519 155.055 29.7159 155.055C28.7679 155.055 28.3959 155.355 28.3959 156.147V156.327H27.1479V156.207C27.1479 154.875 28.1919 153.915 29.7879 153.915C31.4559 153.915 32.2959 154.923 32.2959 156.375V159.999H31.0959V159.063H31.0359C30.6879 159.627 30.0039 160.119 28.8759 160.119ZM28.2399 158.427C28.2399 158.895 28.5399 159.087 29.2959 159.087C30.1359 159.087 31.0599 158.751 31.0599 157.551V157.443L29.1639 157.731C28.4799 157.827 28.2399 157.983 28.2399 158.427ZM35.7976 159.999C34.4656 159.999 33.7696 159.507 33.7696 158.163V155.115H32.7736V154.035H33.7936L34.0696 152.559H35.0656V154.035H36.8656V155.115H35.0656V158.103C35.0656 158.727 35.3296 158.835 36.1336 158.835H36.8656V159.891C36.6136 159.951 36.2056 159.999 35.7976 159.999ZM39.8097 160.119C38.2497 160.119 37.5537 159.075 37.5537 157.719V154.035H38.8497V157.491C38.8497 158.559 39.2577 159.003 40.2897 159.003C41.2857 159.003 41.8497 158.571 41.8497 157.395V154.035H43.1457V159.999H41.9457V158.811H41.8977C41.6097 159.495 40.9737 160.119 39.8097 160.119ZM46.7296 160.119C44.9896 160.119 44.0776 159.435 44.0776 157.983V157.959H45.3256V158.175C45.3256 158.823 45.6136 159.063 46.7536 159.063C47.7136 159.063 47.8936 158.847 47.8936 158.403C47.8936 157.923 47.6056 157.779 46.7296 157.623L45.8056 157.467C44.7376 157.275 44.0656 156.795 44.0656 155.715C44.0656 154.635 44.9536 153.915 46.5136 153.915C47.9176 153.915 48.9736 154.611 48.9736 155.967V156.075H47.7376V155.931C47.7376 155.379 47.5456 154.983 46.4776 154.983C45.5296 154.983 45.3016 155.235 45.3016 155.691C45.3016 156.147 45.5176 156.279 46.3576 156.447L47.3656 156.639C48.5176 156.867 49.1176 157.383 49.1176 158.367C49.1176 159.471 48.2416 160.119 46.7296 160.119ZM54.7467 160.119C52.7787 160.119 51.8547 158.871 51.8547 157.011C51.8547 155.163 52.9587 153.915 54.7347 153.915C56.3427 153.915 57.4707 154.875 57.4707 156.507C57.4707 156.819 57.4347 157.143 57.3987 157.323H53.0667C53.1147 158.415 53.5107 158.967 54.7587 158.967C55.7547 158.967 56.1387 158.631 56.1387 158.091V157.995H57.4227V158.103C57.4227 159.327 56.3547 160.119 54.7467 160.119ZM54.7107 155.007C53.5827 155.007 53.1507 155.535 53.0787 156.459H56.2347C56.2827 155.439 55.7307 155.007 54.7107 155.007ZM59.6359 159.999H58.3399V153.999H59.5279V154.947H59.5879C59.8279 154.395 60.3799 153.915 61.2559 153.915C62.5039 153.915 62.9839 154.827 62.9839 155.943V156.339H61.6879V156.099C61.6879 155.307 61.4599 155.019 60.7039 155.019C59.9239 155.019 59.6359 155.319 59.6359 156.111V159.999ZM64.9201 159.999H63.6241V153.999H64.8121V154.947H64.8721C65.1121 154.395 65.6641 153.915 66.5401 153.915C67.7881 153.915 68.2681 154.827 68.2681 155.943V156.339H66.9721V156.099C66.9721 155.307 66.7441 155.019 65.9881 155.019C65.2081 155.019 64.9201 155.319 64.9201 156.111V159.999ZM71.6678 160.119C69.8318 160.119 68.6918 158.871 68.6918 157.011C68.6918 155.163 69.8318 153.915 71.6678 153.915C73.4918 153.915 74.5958 155.163 74.5958 157.011C74.5958 158.871 73.4918 160.119 71.6678 160.119ZM71.6678 158.967C72.9158 158.967 73.3478 158.355 73.3478 157.011C73.3478 155.679 72.9158 155.067 71.6678 155.067C70.4078 155.067 69.9638 155.679 69.9638 157.011C69.9638 158.355 70.4078 158.967 71.6678 158.967ZM76.6956 159.999H75.3996V153.999H76.5876V154.947H76.6476C76.8876 154.395 77.4396 153.915 78.3156 153.915C79.5636 153.915 80.0436 154.827 80.0436 155.943V156.339H78.7476V156.099C78.7476 155.307 78.5196 155.019 77.7636 155.019C76.9836 155.019 76.6956 155.319 76.6956 156.111V159.999ZM85.394 160.119C83.654 160.119 82.742 159.435 82.742 157.983V157.959H83.99V158.175C83.99 158.823 84.278 159.063 85.418 159.063C86.378 159.063 86.558 158.847 86.558 158.403C86.558 157.923 86.27 157.779 85.394 157.623L84.47 157.467C83.402 157.275 82.73 156.795 82.73 155.715C82.73 154.635 83.618 153.915 85.178 153.915C86.582 153.915 87.638 154.611 87.638 155.967V156.075H86.402V155.931C86.402 155.379 86.21 154.983 85.142 154.983C84.194 154.983 83.966 155.235 83.966 155.691C83.966 156.147 84.182 156.279 85.022 156.447L86.03 156.639C87.182 156.867 87.782 157.383 87.782 158.367C87.782 159.471 86.906 160.119 85.394 160.119ZM89.8392 153.279H88.5552L88.5432 151.959H89.8392V153.279ZM89.8512 159.999H88.5552V153.999H89.8512V159.999ZM93.3254 159.999C91.9934 159.999 91.2974 159.507 91.2974 158.163V155.115H90.3014V154.035H91.3214L91.5974 152.559H92.5934V154.035H94.3934V155.115H92.5934V158.103C92.5934 158.727 92.8574 158.835 93.6614 158.835H94.3934V159.891C94.1414 159.951 93.7334 159.999 93.3254 159.999ZM100.67 159.999H99.0383L96.6503 154.035H98.0903L99.8303 158.763H99.9143L101.666 154.035H103.07L100.67 159.999ZM106.02 160.119C104.184 160.119 103.044 158.871 103.044 157.011C103.044 155.163 104.184 153.915 106.02 153.915C107.844 153.915 108.948 155.163 108.948 157.011C108.948 158.871 107.844 160.119 106.02 160.119ZM106.02 158.967C107.268 158.967 107.7 158.355 107.7 157.011C107.7 155.679 107.268 155.067 106.02 155.067C104.76 155.067 104.316 155.679 104.316 157.011C104.316 158.355 104.76 158.967 106.02 158.967ZM111.059 159.999H109.763V151.959H111.059V159.999ZM114.385 160.119C112.825 160.119 112.129 159.075 112.129 157.719V154.035H113.425V157.491C113.425 158.559 113.833 159.003 114.865 159.003C115.861 159.003 116.425 158.571 116.425 157.395V154.035H117.721V159.999H116.521V158.811H116.473C116.185 159.495 115.549 160.119 114.385 160.119ZM120.068 162.075H118.784V154.035H119.96V155.019H120.02C120.296 154.323 120.98 153.915 122.012 153.915C123.692 153.915 124.616 155.127 124.616 157.023C124.616 158.907 123.716 160.119 122.096 160.119C121.028 160.119 120.368 159.627 120.104 159.075H120.068V162.075ZM120.068 157.551C120.068 158.547 120.644 159.015 121.7 159.015C122.84 159.015 123.32 158.487 123.32 157.023C123.32 155.547 122.852 155.019 121.7 155.019C120.644 155.019 120.068 155.487 120.068 156.483V157.551ZM127.913 159.999C126.581 159.999 125.885 159.507 125.885 158.163V155.115H124.889V154.035H125.909L126.185 152.559H127.181V154.035H128.981V155.115H127.181V158.103C127.181 158.727 127.445 158.835 128.249 158.835H128.981V159.891C128.729 159.951 128.321 159.999 127.913 159.999ZM131.302 160.119C130.234 160.119 129.406 159.567 129.406 158.523C129.406 157.539 130.126 157.023 131.398 156.843L133.486 156.531V156.207C133.486 155.319 133.078 155.055 132.142 155.055C131.194 155.055 130.822 155.355 130.822 156.147V156.327H129.574V156.207C129.574 154.875 130.618 153.915 132.214 153.915C133.882 153.915 134.722 154.923 134.722 156.375V159.999H133.522V159.063H133.462C133.114 159.627 132.43 160.119 131.302 160.119ZM130.666 158.427C130.666 158.895 130.966 159.087 131.722 159.087C132.562 159.087 133.486 158.751 133.486 157.551V157.443L131.59 157.731C130.906 157.827 130.666 157.983 130.666 158.427ZM138.223 159.999C136.891 159.999 136.195 159.507 136.195 158.163V155.115H135.199V154.035H136.219L136.495 152.559H137.491V154.035H139.291V155.115H137.491V158.103C137.491 158.727 137.755 158.835 138.559 158.835H139.291V159.891C139.039 159.951 138.631 159.999 138.223 159.999ZM142.445 160.119C140.477 160.119 139.553 158.871 139.553 157.011C139.553 155.163 140.657 153.915 142.433 153.915C144.041 153.915 145.169 154.875 145.169 156.507C145.169 156.819 145.133 157.143 145.097 157.323H140.765C140.813 158.415 141.209 158.967 142.457 158.967C143.453 158.967 143.837 158.631 143.837 158.091V157.995H145.121V158.103C145.121 159.327 144.053 160.119 142.445 160.119ZM142.409 155.007C141.281 155.007 140.849 155.535 140.777 156.459H143.933C143.981 155.439 143.429 155.007 142.409 155.007ZM147.334 159.999H146.038V154.035H147.226V155.151H147.274C147.55 154.515 148.174 153.915 149.314 153.915C150.358 153.915 151.006 154.395 151.294 155.151H151.33C151.606 154.527 152.218 153.915 153.394 153.915C154.93 153.915 155.614 154.899 155.614 156.255V159.999H154.318V156.543C154.318 155.475 153.994 155.031 152.914 155.031C151.93 155.031 151.474 155.439 151.474 156.531V159.999H150.178V156.543C150.178 155.475 149.854 155.031 148.774 155.031C147.79 155.031 147.334 155.439 147.334 156.519V159.999ZM22.2675 175.119C21.1995 175.119 20.3715 174.567 20.3715 173.523C20.3715 172.539 21.0915 172.023 22.3635 171.843L24.4515 171.531V171.207C24.4515 170.319 24.0435 170.055 23.1075 170.055C22.1595 170.055 21.7875 170.355 21.7875 171.147V171.327H20.5395V171.207C20.5395 169.875 21.5835 168.915 23.1795 168.915C24.8475 168.915 25.6875 169.923 25.6875 171.375V174.999H24.4875V174.063H24.4275C24.0795 174.627 23.3955 175.119 22.2675 175.119ZM21.6315 173.427C21.6315 173.895 21.9315 174.087 22.6875 174.087C23.5275 174.087 24.4515 173.751 24.4515 172.551V172.443L22.5555 172.731C21.8715 172.827 21.6315 172.983 21.6315 173.427ZM29.416 175.131C27.556 175.131 26.5 173.871 26.5 172.023C26.5 170.163 27.592 168.915 29.464 168.915C31.036 168.915 32.116 169.887 32.116 171.315V171.423H30.832V171.351C30.832 170.475 30.376 170.079 29.38 170.079C28.228 170.079 27.784 170.727 27.784 172.023C27.784 173.319 28.228 173.955 29.38 173.955C30.376 173.955 30.832 173.571 30.832 172.695V172.623H32.116V172.731C32.116 174.147 31.024 175.131 29.416 175.131ZM35.6612 175.131C33.8012 175.131 32.7452 173.871 32.7452 172.023C32.7452 170.163 33.8372 168.915 35.7092 168.915C37.2812 168.915 38.3612 169.887 38.3612 171.315V171.423H37.0772V171.351C37.0772 170.475 36.6212 170.079 35.6252 170.079C34.4732 170.079 34.0292 170.727 34.0292 172.023C34.0292 173.319 34.4732 173.955 35.6252 173.955C36.6212 173.955 37.0772 173.571 37.0772 172.695V172.623H38.3612V172.731C38.3612 174.147 37.2692 175.131 35.6612 175.131ZM41.3918 175.119C39.8318 175.119 39.1358 174.075 39.1358 172.719V169.035H40.4318V172.491C40.4318 173.559 40.8398 174.003 41.8718 174.003C42.8678 174.003 43.4318 173.571 43.4318 172.395V169.035H44.7278V174.999H43.5278V173.811H43.4798C43.1918 174.495 42.5558 175.119 41.3918 175.119ZM48.3116 175.119C46.5716 175.119 45.6596 174.435 45.6596 172.983V172.959H46.9076V173.175C46.9076 173.823 47.1956 174.063 48.3356 174.063C49.2956 174.063 49.4756 173.847 49.4756 173.403C49.4756 172.923 49.1876 172.779 48.3116 172.623L47.3876 172.467C46.3196 172.275 45.6476 171.795 45.6476 170.715C45.6476 169.635 46.5356 168.915 48.0956 168.915C49.4996 168.915 50.5556 169.611 50.5556 170.967V171.075H49.3196V170.931C49.3196 170.379 49.1276 169.983 48.0596 169.983C47.1116 169.983 46.8836 170.235 46.8836 170.691C46.8836 171.147 47.0996 171.279 47.9396 171.447L48.9476 171.639C50.0996 171.867 50.6996 172.383 50.6996 173.367C50.6996 174.471 49.8236 175.119 48.3116 175.119ZM53.2238 175.119C52.1558 175.119 51.3278 174.567 51.3278 173.523C51.3278 172.539 52.0478 172.023 53.3198 171.843L55.4078 171.531V171.207C55.4078 170.319 54.9998 170.055 54.0638 170.055C53.1158 170.055 52.7438 170.355 52.7438 171.147V171.327H51.4958V171.207C51.4958 169.875 52.5398 168.915 54.1358 168.915C55.8038 168.915 56.6438 169.923 56.6438 171.375V174.999H55.4438V174.063H55.3838C55.0358 174.627 54.3518 175.119 53.2238 175.119ZM52.5878 173.427C52.5878 173.895 52.8878 174.087 53.6438 174.087C54.4838 174.087 55.4078 173.751 55.4078 172.551V172.443L53.5118 172.731C52.8278 172.827 52.5878 172.983 52.5878 173.427ZM59.0157 174.999H57.7197V169.035H58.9077V170.151H58.9557C59.2317 169.515 59.8677 168.915 61.0317 168.915C62.5797 168.915 63.2757 169.899 63.2757 171.255V174.999H61.9797V171.543C61.9797 170.475 61.6437 170.031 60.5517 170.031C59.4957 170.031 59.0157 170.439 59.0157 171.555V174.999ZM66.7773 174.999C65.4453 174.999 64.7493 174.507 64.7493 173.163V170.115H63.7533V169.035H64.7733L65.0493 167.559H66.0453V169.035H67.8453V170.115H66.0453V173.103C66.0453 173.727 66.3093 173.835 67.1133 173.835H67.8453V174.891C67.5933 174.951 67.1853 174.999 66.7773 174.999ZM69.7345 168.279H68.4505L68.4385 166.959H69.7345V168.279ZM69.7465 174.999H68.4505V168.999H69.7465V174.999ZM72.9916 175.119C71.4316 175.119 70.7356 174.075 70.7356 172.719V169.035H72.0316V172.491C72.0316 173.559 72.4396 174.003 73.4716 174.003C74.4676 174.003 75.0316 173.571 75.0316 172.395V169.035H76.3276V174.999H75.1276V173.811H75.0796C74.7916 174.495 74.1556 175.119 72.9916 175.119ZM78.7346 174.999H77.4386V169.035H78.6266V170.151H78.6746C78.9506 169.515 79.5746 168.915 80.7146 168.915C81.7586 168.915 82.4066 169.395 82.6946 170.151H82.7306C83.0066 169.527 83.6186 168.915 84.7946 168.915C86.3306 168.915 87.0146 169.899 87.0146 171.255V174.999H85.7186V171.543C85.7186 170.475 85.3946 170.031 84.3146 170.031C83.3306 170.031 82.8746 170.439 82.8746 171.531V174.999H81.5786V171.543C81.5786 170.475 81.2546 170.031 80.1746 170.031C79.1906 170.031 78.7346 170.439 78.7346 171.519V174.999Z" fill="#324B50"/>
<g clip-path="url(#clip0_201_4763)">
<path d="M364.748 52.7683C364.676 52.5571 364.59 52.3515 364.489 52.1527C363.039 49.1651 359.442 47.9187 356.454 49.3683C355.254 49.9507 354.281 50.9159 353.69 52.1119C353.276 52.9535 353.064 53.8795 353.07 54.8171C353.033 58.1375 355.695 60.8595 359.015 60.8963C362.335 60.9331 365.057 58.2715 365.094 54.9511C365.095 54.8787 365.095 54.8059 365.093 54.7335C365.09 54.0639 364.973 53.3991 364.748 52.7683Z" fill="#F0F0F0"/>
<path d="M359.028 57.0187C358.03 57.0187 357.121 56.5139 356.774 55.7631C356.735 55.6783 356.771 55.5783 356.855 55.5375C356.938 55.4971 357.038 55.5311 357.078 55.6139C357.079 55.6155 357.08 55.6171 357.081 55.6187C357.381 56.2543 358.168 56.6807 359.038 56.6807C359.908 56.6807 360.695 56.2547 360.994 55.6187C361.034 55.5343 361.135 55.4975 361.219 55.5371L361.22 55.5375C361.304 55.5783 361.34 55.6783 361.301 55.7631C360.936 56.5135 360.027 57.0187 359.028 57.0187Z" fill="#E0E0E0"/>
<path d="M361.283 53.3904C361.578 53.3904 361.817 53.6296 361.817 53.9248C361.817 54.22 361.578 54.4592 361.283 54.4592C360.988 54.4592 360.748 54.22 360.748 53.9248C360.748 53.6296 360.988 53.3904 361.283 53.3904Z" fill="#E0E0E0"/>
<path d="M357.308 53.9248C357.308 54.22 357.069 54.4592 356.774 54.4592C356.479 54.4592 356.24 54.22 356.24 53.9248C356.24 53.6296 356.479 53.3904 356.774 53.3904C357.068 53.3916 357.307 53.6304 357.308 53.9248Z" fill="#E0E0E0"/>
<path d="M380.568 144.874H308.269C306.976 144.874 305.924 143.822 305.924 142.529V37.2196C305.924 35.9268 306.976 34.8748 308.269 34.8748H380.568C381.86 34.8748 382.912 35.9264 382.912 37.2196V142.529C382.913 143.822 381.861 144.874 380.568 144.874ZM308.269 34.9748C307.031 34.9748 306.024 35.982 306.024 37.2196V142.529C306.024 143.767 307.032 144.774 308.269 144.774H380.568C381.806 144.774 382.812 143.766 382.812 142.529V37.2196C382.812 35.982 381.805 34.9748 380.568 34.9748H308.269Z" fill="#E0E0E0"/>
<path d="M297.197 144.874H224.898C223.605 144.874 222.553 143.822 222.553 142.529V37.2196C222.553 35.9268 223.605 34.8748 224.898 34.8748H297.197C298.49 34.8748 299.542 35.9264 299.542 37.2196V142.529C299.542 143.822 298.49 144.874 297.197 144.874ZM224.898 34.9748C223.66 34.9748 222.653 35.982 222.653 37.2196V142.529C222.653 143.767 223.66 144.774 224.898 144.774H297.197C298.435 144.774 299.442 143.766 299.442 142.529V37.2196C299.442 35.982 298.434 34.9748 297.197 34.9748H224.898Z" fill="#E0E0E0"/>
<path d="M403 169.302H203V169.402H403V169.302Z" fill="#E0E0E0"/>
<path d="M230.092 175.008H223.668V175.108H230.092V175.008Z" fill="#E0E0E0"/>
<path d="M292.552 173.924H271.14V174.024H292.552V173.924Z" fill="#E0E0E0"/>
<path d="M244.992 178.724H230.492V178.824H244.992V178.724Z" fill="#E0E0E0"/>
<path d="M371.616 173.872H354.34V173.972H371.616V173.872Z" fill="#E0E0E0"/>
<path d="M377.712 173.872H375.18V173.972H377.712V173.872Z" fill="#E0E0E0"/>
<path d="M351.04 176.364H329.484V176.464H351.04V176.364Z" fill="#E0E0E0"/>
<path d="M330.095 110.433C332.324 108.35 332.442 104.854 330.358 102.625C328.274 100.396 324.779 100.279 322.55 102.362C320.321 104.446 320.203 107.942 322.287 110.17C324.37 112.399 327.866 112.517 330.095 110.433Z" fill="#E0E0E0"/>
<path d="M323.134 110.229C323.24 110.001 324.238 108.253 326.462 108.253C328.93 108.252 329.824 110.006 329.824 110.006C329.824 110.006 328.431 111.258 326.546 111.354C324.718 111.448 323.134 110.229 323.134 110.229Z" fill="#F5F5F5"/>
<path d="M328.614 105.502C328.614 106.713 327.633 107.695 326.422 107.695C325.21 107.695 324.229 106.714 324.229 105.502C324.229 104.291 325.21 103.31 326.422 103.31C327.633 103.31 328.614 104.292 328.614 105.502Z" fill="#F5F5F5"/>
<path d="M230.718 159.422C231.207 156.41 229.161 153.572 226.15 153.084C223.138 152.595 220.3 154.64 219.812 157.652C219.323 160.664 221.368 163.501 224.38 163.99C227.391 164.479 230.229 162.434 230.718 159.422Z" fill="#E0E0E0"/>
<path d="M222.073 162.367C222.179 162.138 223.176 160.391 225.401 160.391C227.868 160.39 228.762 162.144 228.762 162.144C228.762 162.144 227.37 163.396 225.484 163.492C223.658 163.586 222.073 162.367 222.073 162.367Z" fill="#F5F5F5"/>
<path d="M227.554 157.641C227.554 158.852 226.572 159.833 225.361 159.833C224.15 159.833 223.168 158.852 223.168 157.641C223.168 156.43 224.15 155.448 225.361 155.448C226.572 155.448 227.554 156.43 227.554 157.641Z" fill="#F5F5F5"/>
<path d="M331.215 179.268C336.553 179.268 340.881 174.94 340.881 169.602C340.881 164.263 336.553 159.936 331.215 159.936C325.876 159.936 321.549 164.263 321.549 169.602C321.549 174.94 325.876 179.268 331.215 179.268Z" fill="#E0E0E0"/>
<path d="M325.634 176.306C325.82 175.907 327.565 172.85 331.457 172.85C335.774 172.849 337.339 175.918 337.339 175.918C337.339 175.918 334.902 178.107 331.604 178.276C328.406 178.44 325.634 176.306 325.634 176.306Z" fill="#F5F5F5"/>
<path d="M331.387 171.873C333.505 171.873 335.223 170.156 335.223 168.037C335.223 165.918 333.505 164.201 331.387 164.201C329.268 164.201 327.55 165.918 327.55 168.037C327.55 170.156 329.268 171.873 331.387 171.873Z" fill="#F5F5F5"/>
<path d="M321.084 51.2951C323.168 49.2112 323.168 45.8327 321.084 43.7489C319 41.6651 315.622 41.6651 313.538 43.7489C311.454 45.8327 311.454 49.2112 313.538 51.2951C315.622 53.3789 319 53.3789 321.084 51.2951Z" fill="#E0E0E0"/>
<path d="M314.231 51.2231C314.334 51.0027 315.297 49.3147 317.446 49.3147C319.829 49.3143 320.692 51.0083 320.692 51.0083C320.692 51.0083 319.347 52.2171 317.526 52.3103C315.762 52.4007 314.231 51.2231 314.231 51.2231Z" fill="#F5F5F5"/>
<path d="M319.525 46.6578C319.525 47.8274 318.576 48.7758 317.407 48.7758C316.237 48.7758 315.289 47.8274 315.289 46.6578C315.289 45.4882 316.237 44.5398 317.407 44.5398C318.576 44.5398 319.525 45.4882 319.525 46.6578Z" fill="#F5F5F5"/>
<path d="M379.246 132.228C379.113 131.844 378.954 131.47 378.77 131.107C376.127 125.668 369.576 123.402 364.138 126.044C358.699 128.687 356.432 135.238 359.075 140.677C361.717 146.115 368.268 148.382 373.707 145.739C377.504 143.894 379.902 140.031 379.87 135.809C379.867 134.589 379.656 133.378 379.246 132.228Z" fill="#E0E0E0"/>
<path d="M376.23 132.74C375.559 131.695 374.324 132.127 373.696 132.962C373.038 132.153 371.784 131.773 371.157 132.842C370.094 134.648 372.39 136.254 373.468 136.878L373.778 137.055L374.078 136.865C375.135 136.198 377.364 134.503 376.23 132.74Z" fill="#FAFAFA"/>
<path d="M366.797 132.918C366.14 131.863 364.9 132.275 364.261 133.099C363.613 132.282 362.366 131.88 361.719 132.939C360.631 134.729 362.899 136.372 363.974 137.013L364.275 137.194L364.582 137.009C365.645 136.36 367.904 134.696 366.797 132.918Z" fill="#FAFAFA"/>
<path d="M368.362 142.006C366.28 141.528 365.532 139.158 365.434 137.867C365.438 137.699 365.59 137.565 365.773 137.568C365.934 137.571 366.07 137.68 366.095 137.826C366.095 137.863 366.407 141.415 369.044 141.498C371.68 141.581 372.112 137.799 372.116 137.758C372.133 137.592 372.294 137.471 372.474 137.487C372.475 137.487 372.476 137.487 372.477 137.487C372.656 137.5 372.789 137.644 372.774 137.808C372.774 137.811 372.773 137.815 372.773 137.818C372.773 137.999 372.272 142.209 369.023 142.104C368.8 142.093 368.578 142.06 368.362 142.006Z" fill="#EBEBEB"/>
<path d="M376.068 137.325C375.854 137.542 375.6 137.645 375.501 137.546C375.403 137.448 375.501 137.193 375.706 136.971C375.912 136.75 376.17 136.655 376.273 136.75C376.376 136.844 376.282 137.107 376.068 137.325Z" fill="#F5F5F5"/>
<path d="M376.971 137.432C376.758 137.653 376.503 137.752 376.404 137.653C376.306 137.554 376.404 137.3 376.61 137.082C376.815 136.865 377.074 136.762 377.172 136.861C377.271 136.96 377.189 137.214 376.971 137.432Z" fill="#F5F5F5"/>
<path d="M362.298 137.473C362.532 137.67 362.795 137.739 362.881 137.633C362.968 137.526 362.852 137.283 362.618 137.087C362.384 136.889 362.122 136.82 362.031 136.927C361.941 137.033 362.06 137.279 362.298 137.473Z" fill="#F5F5F5"/>
<path d="M361.407 137.678C361.641 137.875 361.904 137.945 361.994 137.838C362.084 137.731 361.965 137.485 361.727 137.292C361.489 137.099 361.23 137.025 361.144 137.132C361.058 137.238 361.173 137.481 361.407 137.678Z" fill="#F5F5F5"/>
<path d="M240.418 56.8447C240.285 56.4607 240.126 56.0859 239.942 55.7235C237.299 50.2851 230.748 48.0183 225.309 50.6611C219.87 53.3035 217.603 59.8547 220.246 65.2935C222.888 70.7323 229.44 72.9987 234.878 70.3563C238.676 68.5115 241.074 64.6475 241.042 60.4259C241.038 59.2055 240.828 57.9943 240.418 56.8447Z" fill="#EBEBEB"/>
<path d="M237.401 57.3567C236.73 56.3119 235.495 56.7439 234.868 57.5787C234.21 56.7691 232.955 56.3891 232.328 57.4587C231.265 59.2647 233.562 60.8707 234.64 61.4943L234.949 61.6711L235.25 61.4811C236.306 60.8151 238.535 59.1199 237.401 57.3567Z" fill="#FAFAFA"/>
<path d="M227.968 57.5343C227.311 56.4799 226.071 56.8919 225.432 57.7155C224.784 56.8991 223.537 56.4971 222.89 57.5559C221.802 59.3459 224.07 60.9883 225.145 61.6299L225.446 61.8111L225.753 61.6259C226.816 60.9767 229.076 59.3131 227.968 57.5343Z" fill="#FAFAFA"/>
<path d="M229.533 66.6224C227.451 66.1444 226.704 63.774 226.605 62.4836C226.609 62.3152 226.761 62.1816 226.944 62.1848C227.106 62.1876 227.241 62.296 227.266 62.442C227.266 62.4796 227.578 66.0316 230.215 66.1144C232.852 66.1972 233.283 62.4156 233.287 62.3744C233.304 62.2088 233.465 62.0876 233.645 62.1032C233.646 62.1032 233.648 62.1036 233.648 62.1036C233.827 62.1172 233.96 62.2604 233.945 62.424C233.945 62.4276 233.944 62.4312 233.944 62.4344C233.944 62.6148 233.443 66.8256 230.194 66.72C229.971 66.7096 229.749 66.6772 229.533 66.6224Z" fill="#E0E0E0"/>
<path d="M237.239 61.9412C237.026 62.1588 236.771 62.2616 236.672 62.1628C236.574 62.064 236.672 61.8096 236.878 61.588C237.083 61.3664 237.342 61.2716 237.444 61.3664C237.547 61.4608 237.453 61.7236 237.239 61.9412Z" fill="#F5F5F5"/>
<path d="M238.143 62.048C237.929 62.27 237.675 62.3684 237.576 62.27C237.478 62.1712 237.576 61.9168 237.781 61.6992C237.986 61.4816 238.245 61.3788 238.344 61.4776C238.442 61.576 238.36 61.8304 238.143 62.048Z" fill="#F5F5F5"/>
<path d="M223.469 62.0891C223.703 62.2863 223.966 62.3559 224.052 62.2491C224.139 62.1423 224.024 61.8999 223.79 61.7031C223.556 61.5059 223.293 61.4363 223.202 61.5431C223.112 61.6495 223.231 61.8963 223.469 62.0891Z" fill="#F5F5F5"/>
<path d="M222.578 62.2943C222.812 62.4915 223.075 62.5611 223.165 62.4547C223.256 62.3479 223.136 62.1015 222.898 61.9083C222.66 61.7151 222.402 61.6415 222.315 61.7483C222.229 61.8551 222.344 62.0971 222.578 62.2943Z" fill="#F5F5F5"/>
<path d="M388.438 196.064C388.438 197.419 351.031 198.517 304.888 198.517C258.745 198.517 221.338 197.419 221.338 196.064C221.338 194.709 258.744 193.611 304.888 193.611C351.031 193.611 388.438 194.709 388.438 196.064Z" fill="#F5F5F5"/>
<path d="M371.606 186.247L369.884 195.696H359.695L357.869 186.247H371.606Z" fill="#263238"/>
<path d="M363.604 185.289C363.319 181.696 361.347 178.06 358.175 175.593C357.382 174.978 355.718 173.76 357.068 173.117C358.609 172.381 361.566 175.818 361.98 176.454C361.105 173.716 358.453 171.733 355.576 170.597C354.154 170.036 352.798 169.503 354.313 168.669C355.828 167.835 359.106 169.858 359.866 170.726C358.069 168.722 355.798 166.715 353.471 165.516C350.902 164.192 352.062 161.984 354.711 163.691C356.352 164.75 359.05 167.398 359.05 167.398C359.05 167.398 354.81 160.596 356.09 159.984C357.747 159.19 360.651 168.457 361.453 170.284C361.238 168.77 361.036 165.105 362.448 164.946C363.737 164.804 363.422 173.928 363.72 175.538C363.909 176.239 363.996 176.597 364.145 177.304C364.284 176.088 365.139 172.884 366.419 173.255C367.506 173.568 366.833 175.966 366.551 177.105C365.868 179.862 365.179 182.528 365.172 185.356L363.604 185.289Z" fill="#407BFF"/>
<path d="M362.544 185.777C363.576 183.945 364.106 181.968 364.674 179.934C364.908 179.094 365.351 177.296 366.169 177.492C367.133 177.721 366.513 180.107 366.158 180.944C366.514 180.541 366.7 180.341 367.079 179.957C367.862 179.024 370.999 173.005 371.781 173.57C372.637 174.19 371.164 176.487 370.47 177.388C371.658 176.499 376.93 171.567 377.712 172.688C378.316 173.552 373.082 176.401 373.082 176.401C373.082 176.401 375.798 175.675 377.247 175.591C379.586 175.456 379.528 177.31 377.381 177.226C375.436 177.15 373.232 177.617 371.336 178.255C372.145 177.971 375.007 177.863 375.681 178.957C376.356 180.052 375.284 179.9 374.158 179.742C371.88 179.423 369.438 179.735 367.87 181.186C368.37 180.927 371.542 179.786 372.27 180.827C372.907 181.737 371.384 181.915 370.647 182.023C367.691 182.458 365.083 184.088 363.583 186.308L362.544 185.777Z" fill="#407BFF"/>
<path d="M365.936 186.611C366.268 181.274 368.612 175.874 372.377 172.212C373.315 171.3 375.287 169.49 373.703 168.536C371.876 167.445 368.366 172.546 367.879 173.488C368.913 169.424 372.062 166.48 375.473 164.793C377.16 163.958 378.767 163.172 376.971 161.932C375.174 160.693 371.283 163.699 370.388 164.985C372.519 162.002 375.211 159.018 377.969 157.248C381.015 155.286 379.626 152.004 376.5 154.54C374.535 156.111 371.339 160.033 371.339 160.033C371.339 160.033 376.364 149.936 374.846 149.008C372.897 147.815 369.44 161.604 368.489 164.299C368.741 162.052 368.979 156.609 367.289 156.374C365.761 156.162 366.135 169.706 365.78 172.099C365.555 173.143 365.449 173.667 365.28 174.721C365.111 172.918 364.106 168.161 362.578 168.712C361.292 169.176 362.088 172.736 362.422 174.426C363.234 178.517 364.053 182.478 364.057 186.674L365.936 186.611Z" fill="#407BFF"/>
<path d="M365.936 186.611C366.268 181.274 368.612 175.874 372.377 172.212C373.315 171.3 375.287 169.49 373.703 168.536C371.876 167.445 368.366 172.546 367.879 173.488C368.913 169.424 372.062 166.48 375.473 164.793C377.16 163.958 378.767 163.172 376.971 161.932C375.174 160.693 371.283 163.699 370.388 164.985C372.519 162.002 375.211 159.018 377.969 157.248C381.015 155.286 379.626 152.004 376.5 154.54C374.535 156.111 371.339 160.033 371.339 160.033C371.339 160.033 376.364 149.936 374.846 149.008C372.897 147.815 369.44 161.604 368.489 164.299C368.741 162.052 368.979 156.609 367.289 156.374C365.761 156.162 366.135 169.706 365.78 172.099C365.555 173.143 365.449 173.667 365.28 174.721C365.111 172.918 364.106 168.161 362.578 168.712C361.292 169.176 362.088 172.736 362.422 174.426C363.234 178.517 364.053 182.478 364.057 186.674L365.936 186.611Z" fill="#407BFF"/>
<path opacity="0.2" d="M365.936 186.611C366.268 181.274 368.612 175.874 372.377 172.212C373.315 171.3 375.287 169.49 373.703 168.536C371.876 167.445 368.366 172.546 367.879 173.488C368.913 169.424 372.062 166.48 375.473 164.793C377.16 163.958 378.767 163.172 376.971 161.932C375.174 160.693 371.283 163.699 370.388 164.985C372.519 162.002 375.211 159.018 377.969 157.248C381.015 155.286 379.626 152.004 376.5 154.54C374.535 156.111 371.339 160.033 371.339 160.033C371.339 160.033 376.364 149.936 374.846 149.008C372.897 147.815 369.44 161.604 368.489 164.299C368.741 162.052 368.979 156.609 367.289 156.374C365.761 156.162 366.135 169.706 365.78 172.099C365.555 173.143 365.449 173.667 365.28 174.721C365.111 172.918 364.106 168.161 362.578 168.712C361.292 169.176 362.088 172.736 362.422 174.426C363.234 178.517 364.053 182.478 364.057 186.674L365.936 186.611Z" fill="white"/>
<path opacity="0.2" d="M358.351 188.162L357.972 186.657H371.529L371.187 188.039L358.351 188.162Z" fill="black"/>
<path d="M356.452 186.674H372.837V183.521H356.452V186.674Z" fill="#263238"/>
<path d="M235.471 71.199H232.964V86.6062H235.471V71.199Z" fill="#407BFF"/>
<path opacity="0.2" d="M235.471 71.199H232.964V86.6062H235.471V71.199Z" fill="black"/>
<path d="M308.108 71.199H305.601V86.6062H308.108V71.199Z" fill="#407BFF"/>
<path opacity="0.2" d="M308.108 71.199H305.601V86.6062H308.108V71.199Z" fill="black"/>
<path d="M307.911 88.9297H305.404V104.67H307.911V88.9297Z" fill="#407BFF"/>
<path opacity="0.2" d="M307.911 88.9297H305.404V104.67H307.911V88.9297Z" fill="black"/>
<path d="M297.69 196.064H242.229C238.184 196.064 234.904 192.785 234.904 188.739V63.4897C234.904 57.2577 239.956 52.2053 246.188 52.2053H295.003C301.235 52.2053 306.288 57.2577 306.288 63.4897V187.466C306.288 192.214 302.438 196.064 297.69 196.064Z" fill="#407BFF"/>
<path d="M298.13 193.146H243.062C240.149 193.146 237.787 190.784 237.787 187.871V63.6241C237.787 58.9225 241.598 55.1113 246.3 55.1113H294.892C299.594 55.1113 303.405 58.9225 303.405 63.6241V187.871C303.405 190.784 301.043 193.146 298.13 193.146Z" fill="white"/>
<path d="M260.369 54.3653C260.369 54.4481 262.073 56.8729 262.916 58.1277C263.226 58.5889 263.746 58.8637 264.301 58.8637H280.891C281.49 58.8637 282.042 58.5457 282.34 58.0261C283.092 56.7137 284.47 54.3253 284.506 54.3657C284.555 54.4209 260.369 54.3653 260.369 54.3653Z" fill="#407BFF"/>
<path d="M286.96 82.9474C291.41 82.9474 295.018 79.3394 295.018 74.8886C295.018 70.4379 291.41 66.8298 286.96 66.8298C282.509 66.8298 278.901 70.4379 278.901 74.8886C278.901 79.3394 282.509 82.9474 286.96 82.9474Z" fill="#E0E0E0"/>
<path d="M282.307 80.4791C282.461 80.1463 283.916 77.5971 287.162 77.5967C290.761 77.5963 292.065 80.1547 292.065 80.1547C292.065 80.1547 290.033 81.9803 287.284 82.1211C284.618 82.2579 282.307 80.4791 282.307 80.4791Z" fill="#F5F5F5"/>
<path d="M287.103 76.7831C288.869 76.7831 290.302 75.3509 290.302 73.5843C290.302 71.8177 288.869 70.3855 287.103 70.3855C285.336 70.3855 283.904 71.8177 283.904 73.5843C283.904 75.3509 285.336 76.7831 287.103 76.7831Z" fill="#F5F5F5"/>
<path d="M361.764 120C370.094 120 376.847 113.247 376.847 104.916C376.847 96.5857 370.094 89.8325 361.764 89.8325C353.433 89.8325 346.68 96.5857 346.68 104.916C346.68 113.247 353.433 120 361.764 120Z" fill="#407BFF"/>
<path d="M377.122 111.961C379.277 107.232 378.832 100.997 376.039 96.7673" stroke="#407BFF" stroke-miterlimit="10" stroke-linecap="round" stroke-linejoin="round"/>
<path d="M370.758 110.184C370.716 110.263 370.671 110.343 370.622 110.42C372.3 111.611 370.716 113.341 370.226 113.621C369.855 113.839 369.452 114.003 369.032 114.109C367.052 114.623 365.292 113.641 364.35 113.159C362.995 112.465 362.941 109.798 362.128 108.449C361.064 106.684 359.212 102.292 360.566 98.8786C361.216 97.2722 361.855 96.6274 361.855 96.6274C362.64 95.791 363.883 95.609 364.994 95.915C366.106 96.221 367.052 96.9654 367.89 97.7978C369.404 99.2718 370.531 101.071 371.184 103.052C371.78 104.927 371.2 105.58 370.839 106.8C370.839 106.8 370.845 106.824 370.848 106.838C371.23 107.931 371.276 109.203 370.758 110.184Z" fill="#263238"/>
<path d="M371.852 115.218C371.07 114.223 363.991 113.418 363.991 113.418L359.642 113.918C359.642 113.918 353.949 114.934 352.101 115.928C351.97 115.999 351.846 116.082 351.726 116.172C354.393 118.552 357.908 120 361.764 120C365.821 120 369.501 118.395 372.212 115.789C372.084 115.555 371.961 115.357 371.852 115.218Z" fill="#407BFF"/>
<path opacity="0.4" d="M371.852 115.218C371.07 114.223 363.991 113.418 363.991 113.418L359.642 113.918C359.642 113.918 353.949 114.934 352.101 115.928C351.97 115.999 351.846 116.082 351.726 116.172C354.393 118.552 357.908 120 361.764 120C365.821 120 369.501 118.395 372.212 115.789C372.084 115.555 371.961 115.357 371.852 115.218Z" fill="white"/>
<path d="M365.424 111.013C364.911 112.18 364.915 113.305 365.616 114.375C365.616 114.375 368.256 117.055 366.422 117.166C364.588 117.277 361.16 115.555 360.416 114.06C360.416 114.06 361.414 112.441 361.138 110.332C360.862 108.224 360.556 107.391 360.556 107.391L365.424 111.013Z" fill="#B97964"/>
<path opacity="0.2" d="M364.721 109.158L362.606 108.633C362.01 108.273 361.235 108.463 360.873 109.058C360.743 109.273 360.679 109.521 360.688 109.771C361.806 110.996 363.444 112.217 365.062 112.583C365.068 112.023 365.18 111.497 365.424 111.014C365.411 110.984 364.723 109.19 364.721 109.158Z" fill="black"/>
<path d="M358.764 102.764C359 106.358 359.02 107.879 360.814 109.759C363.514 112.582 367.791 111.613 368.63 108.039C369.36 104.823 368.87 99.495 365.406 97.9906C361.943 96.4866 358.53 99.165 358.764 102.764Z" fill="#B97964"/>
<path d="M360.074 102.799C360.817 103.133 360.847 106.521 359.107 106.454C357.366 106.387 357.638 101.704 360.074 102.799Z" fill="#263238"/>
<path d="M357.304 105.914C357.701 106.675 358.378 107.171 359.009 107.357C359.958 107.637 360.517 106.115 360.229 105.14C359.97 104.263 359.051 103.651 358.11 103.801C357.182 103.95 356.849 105.044 357.304 105.914Z" fill="#B97964"/>
<path opacity="0.2" d="M359.339 105.805C359.33 105.46 359.18 105.122 358.931 104.884C358.682 104.647 358.336 104.513 357.992 104.521" stroke="black" stroke-width="0.5" stroke-miterlimit="10" stroke-linecap="round" stroke-linejoin="round"/>
<path d="M365.76 98.4585C365.424 97.4437 364.271 96.6141 362.212 96.2537L362.113 96.2361C360.151 95.9125 358.037 95.3757 357.3 97.5573C355.368 103.252 352.138 102.621 352.908 104.307C353.147 104.743 353.618 104.999 354.113 104.964C354.237 104.959 354.359 104.929 354.471 104.877C354.334 105.013 354.171 105.155 354.026 105.305C353.226 106.131 352.457 107.098 352.176 108.241C352.11 108.429 352.081 108.628 352.088 108.827C352.119 109.721 352.868 110.419 353.762 110.389C353.69 110.471 352.876 111.392 352.751 111.624C351.365 114.177 352.456 116.984 356.03 115.815C356.03 115.815 358.442 116.691 359.501 114.287C359.501 114.287 361.225 114.15 361.78 112.58C361.798 112.544 361.814 112.507 361.828 112.469C362.355 111.326 362.345 110.008 361.8 108.873C361.488 108.232 361.145 107.61 360.832 106.969C360.619 106.586 360.488 106.168 360.425 105.739C360.49 105.601 360.553 105.461 360.622 105.327L360.707 105.177C361.19 104.245 361.915 103.459 362.807 102.905C365.189 101.564 366.256 99.8289 365.76 98.4585Z" fill="#263238"/>
<path d="M363.518 104.11C363.52 104.495 363.714 104.818 363.952 104.833C364.19 104.847 364.382 104.548 364.38 104.164C364.378 103.78 364.183 103.456 363.945 103.441C363.707 103.427 363.516 103.726 363.518 104.11Z" fill="#263238"/>
<path d="M367.092 104.247C367.095 104.619 367.29 104.933 367.527 104.947C367.764 104.962 367.955 104.672 367.952 104.3C367.949 103.927 367.754 103.614 367.517 103.599C367.28 103.584 367.09 103.874 367.092 104.247Z" fill="#263238"/>
<path d="M362.816 102.743C362.862 102.751 362.91 102.739 362.947 102.707C363.527 102.213 364.148 102.421 364.155 102.423C364.247 102.454 364.344 102.405 364.369 102.311C364.394 102.217 364.339 102.115 364.246 102.083C364.213 102.071 363.434 101.811 362.714 102.424C362.643 102.485 362.637 102.598 362.701 102.677C362.732 102.714 362.773 102.737 362.816 102.743Z" fill="#263238"/>
<path d="M368.369 102.477C368.406 102.467 368.438 102.441 368.455 102.402C368.492 102.321 368.456 102.215 368.375 102.165C367.566 101.666 366.937 101.994 366.91 102.009C366.836 102.049 366.814 102.151 366.862 102.237C366.909 102.323 367.008 102.36 367.083 102.32C367.107 102.307 367.599 102.06 368.242 102.458C368.285 102.483 368.33 102.489 368.369 102.477Z" fill="#263238"/>
<path d="M366.127 104.03C366.127 104.03 366.638 105.41 367.243 106.282C367.349 106.434 367.271 106.647 367.094 106.704C366.64 106.851 366.122 106.68 366.122 106.68L366.127 104.03Z" fill="#A24E3F"/>
<path d="M363.808 103.451L364.648 103.289C364.648 103.289 364.168 103.891 363.808 103.451Z" fill="#263238"/>
<path d="M367.431 103.604L368.271 103.442C368.271 103.442 367.791 104.043 367.431 103.604Z" fill="#263238"/>
<path d="M365.853 107.696C365.569 108.044 365.197 108.737 365.197 108.737C365.128 108.714 365.06 108.692 364.992 108.666C364.066 108.34 363.744 107.882 363.668 107.474C363.627 107.251 363.663 107.041 363.714 106.877C363.77 106.686 363.854 106.564 363.854 106.564C364.242 107.03 365.082 107.401 365.538 107.58C365.73 107.657 365.853 107.696 365.853 107.696Z" fill="#263238"/>
<path d="M365.539 107.58L365.338 107.882C364.466 107.573 363.894 107.238 363.714 106.877C363.77 106.687 363.854 106.564 363.854 106.564C364.242 107.03 365.082 107.401 365.539 107.58Z" fill="white"/>
<path d="M364.992 108.666C364.066 108.34 363.744 107.882 363.668 107.474C363.98 107.597 364.341 107.781 364.625 108.041C364.842 108.238 364.945 108.461 364.992 108.666Z" fill="#D7504D"/>
<path d="M341.696 149.937C350.373 146.231 354.403 136.192 350.696 127.515C346.99 118.838 336.951 114.809 328.274 118.515C319.597 122.221 315.568 132.26 319.274 140.937C322.98 149.614 333.019 153.644 341.696 149.937Z" fill="#407BFF"/>
<path opacity="0.4" d="M341.696 149.937C350.373 146.231 354.403 136.192 350.696 127.515C346.99 118.838 336.951 114.809 328.274 118.515C319.597 122.221 315.568 132.26 319.274 140.937C322.98 149.614 333.019 153.644 341.696 149.937Z" fill="white"/>
<path d="M346.418 145.889C345.532 144.762 337.48 143.593 337.48 143.593L332.587 144.416C332.587 144.416 326.139 145.567 324.046 146.694C323.898 146.773 323.74 147.021 323.74 147.074C326.76 149.769 330.624 151.306 334.991 151.306C339.586 151.306 343.755 149.488 346.825 146.536C346.68 146.27 346.541 146.046 346.418 145.889Z" fill="#263238"/>
<path d="M317.404 127.101C314.963 132.458 315.466 139.52 318.631 144.311" stroke="#407BFF" stroke-miterlimit="10" stroke-linecap="round" stroke-linejoin="round"/>
<path d="M318.055 125.675C318.09 125.568 318.944 124.13 318.944 124.13" stroke="#407BFF" stroke-miterlimit="10" stroke-linecap="round" stroke-linejoin="round"/>
<path d="M347.533 144.276C347.984 140.648 344.462 138.912 344.621 133.673C344.892 124.683 336.393 124.245 333.076 124.581C329.76 124.918 329.724 128.528 329.724 128.528C329.724 128.528 324.852 130.346 327.148 137.216C329.233 143.456 324.635 140.636 326.397 145.514C333.266 143.734 337.997 142.173 343.756 143.868L343.858 141.22L344.874 144.311L347.533 144.276Z" fill="#263238"/>
<path d="M339.115 148.369C340.061 148.012 339.425 145.224 338.568 144.659C337.6 144.022 337.11 143.446 337.186 142.459C337.222 141.9 337.37 141.313 337.554 140.739L336.456 140.206L332.405 136.79C333.036 139.051 333.327 143.11 331.492 144.644C331.492 144.644 332.877 145.568 334.894 147.013C334.893 147.014 337.924 148.818 339.115 148.369Z" fill="#FFAF6B"/>
<path opacity="0.2" d="M337.174 142.675C336.098 142.161 334.883 141.209 334.91 139.995C334.924 139.483 334.99 138.994 335.084 138.676L337.406 141.237C337.275 141.695 337.239 141.994 337.174 142.675Z" fill="black"/>
<path d="M331.306 132.628C331.997 136.414 332.21 138.026 334.359 139.851C337.592 142.596 342.059 141.175 342.505 137.321C342.906 133.852 341.707 128.244 337.816 126.976C333.983 125.726 330.614 128.842 331.306 132.628Z" fill="#FFAF6B"/>
<path d="M336.361 133.427C336.416 133.829 336.664 134.141 336.916 134.124C337.168 134.107 337.327 133.767 337.272 133.364C337.217 132.962 336.968 132.65 336.717 132.668C336.466 132.685 336.306 133.025 336.361 133.427Z" fill="#263238"/>
<path d="M340.124 133.079C340.178 133.468 340.426 133.77 340.676 133.753C340.927 133.736 341.086 133.406 341.032 133.016C340.978 132.627 340.731 132.325 340.48 132.342C340.23 132.359 340.07 132.689 340.124 133.079Z" fill="#263238"/>
<path d="M335.438 132.092C335.488 132.093 335.536 132.075 335.57 132.037C336.11 131.439 336.789 131.571 336.797 131.573C336.898 131.592 336.992 131.528 337.005 131.426C337.018 131.324 336.947 131.224 336.845 131.203C336.809 131.196 335.957 131.029 335.288 131.771C335.221 131.845 335.23 131.964 335.308 132.038C335.346 132.073 335.392 132.091 335.438 132.092Z" fill="#263238"/>
<path d="M341.219 131.05C341.256 131.033 341.286 131.002 341.299 130.958C341.326 130.869 341.274 130.763 341.182 130.722C340.266 130.31 339.652 130.74 339.626 130.759C339.554 130.812 339.545 130.922 339.607 131.005C339.668 131.088 339.777 131.114 339.85 131.062C339.874 131.044 340.355 130.718 341.084 131.046C341.131 131.067 341.179 131.067 341.219 131.05Z" fill="#263238"/>
<path d="M339.084 132.984C339.084 132.984 339.809 134.36 340.562 135.19C340.694 135.335 340.642 135.569 340.464 135.653C340.009 135.868 339.443 135.761 339.443 135.761L339.084 132.984Z" fill="#E97F3F"/>
<path d="M336.575 132.698L337.432 132.412C337.432 132.412 337.012 133.108 336.575 132.698Z" fill="#263238"/>
<path d="M340.391 132.359L341.249 132.073C341.249 132.073 340.828 132.77 340.391 132.359Z" fill="#263238"/>
<path d="M332.749 133.828C332.749 133.828 334.452 130.687 334.136 128.296C334.136 128.296 337.816 126.976 341.182 130.721C341.718 131.318 342.099 132.359 342.61 133.24C342.61 133.24 342.679 125.913 336.181 125.896C329.693 125.878 329.239 135.038 332.651 137.8C332.651 137.8 331.696 135.792 332.749 133.828Z" fill="#263238"/>
<path d="M330.43 135.842C330.95 136.585 331.727 137.011 332.414 137.119C333.447 137.282 333.823 135.611 333.388 134.629C332.996 133.746 331.948 133.232 330.983 133.518C330.032 133.801 329.834 134.994 330.43 135.842Z" fill="#FFAF6B"/>
<path opacity="0.2" d="M332.547 135.448C332.49 135.088 332.286 134.754 331.993 134.54C331.699 134.325 331.319 134.232 330.96 134.288" stroke="black" stroke-width="0.5" stroke-miterlimit="10" stroke-linecap="round" stroke-linejoin="round"/>
<path d="M339.115 136.593C338.836 136.968 338.483 137.707 338.483 137.707C338.41 137.687 338.338 137.667 338.266 137.643C337.288 137.348 336.931 136.888 336.832 136.467C336.779 136.237 336.806 136.016 336.851 135.843C336.901 135.643 336.982 135.511 336.982 135.511C337.408 135.978 338.299 136.323 338.783 136.487C338.984 136.558 339.115 136.593 339.115 136.593Z" fill="#263238"/>
<path d="M338.783 136.488L338.588 136.811C337.667 136.531 337.056 136.21 336.851 135.844C336.901 135.644 336.982 135.512 336.982 135.512C337.408 135.978 338.299 136.323 338.783 136.488Z" fill="white"/>
<path d="M338.266 137.644C337.288 137.349 336.931 136.888 336.832 136.468C337.162 136.581 337.547 136.754 337.854 137.01C338.09 137.206 338.207 137.432 338.266 137.644Z" fill="#D7504D"/>
<path d="M347.954 87.798C355.222 80.5295 355.222 68.7449 347.954 61.4764C340.685 54.2078 328.901 54.2079 321.632 61.4764C314.363 68.7449 314.363 80.5295 321.632 87.798C328.901 95.0666 340.685 95.0666 347.954 87.798Z" fill="#407BFF"/>
<path opacity="0.7" d="M347.954 87.798C355.222 80.5295 355.222 68.7449 347.954 61.4764C340.685 54.2078 328.901 54.2079 321.632 61.4764C314.363 68.7449 314.363 80.5295 321.632 87.798C328.901 95.0666 340.685 95.0666 347.954 87.798Z" fill="white"/>
<path d="M347.242 87.3479C346.278 86.1207 338.131 85.2275 338.131 85.2275L332.175 85.7435C332.175 85.7435 325.151 86.9971 322.87 88.2243C322.709 88.3111 322.556 88.4139 322.408 88.5255C325.699 91.4615 330.037 93.2487 334.794 93.2487C339.8 93.2487 344.341 91.2683 347.686 88.0531C347.528 87.7635 347.377 87.5195 347.242 87.3479Z" fill="#407BFF"/>
<path d="M337.592 60.9875C331.792 59.0155 329.709 63.7675 329.709 63.7675C328.921 63.9851 328.44 64.3007 328.163 64.6555C327.713 64.8583 327.24 65.2171 326.831 65.8479C325.616 67.7235 326.094 70.1287 326.812 71.3723C327.318 72.2483 329.672 70.5475 330.274 67.9991C333.157 68.9767 338.742 70.8343 339.734 70.9035C341.084 70.9975 343.204 69.3591 343.46 67.1647C343.846 63.8639 341.248 62.2307 337.592 60.9875Z" fill="#263238"/>
<path d="M332.016 85.7046C332.016 85.7046 332.686 82.8522 331.457 77.687C331.457 77.6814 331.731 77.5758 331.732 77.5702C331.563 76.8478 331.378 76.179 331.202 75.5986C331.198 75.5818 331.199 75.5762 331.199 75.5762L337.956 80.2214C337.713 81.8422 338.144 85.0178 338.428 86.3638C338.428 86.3638 339.19 88.8138 335.983 88.763C333.64 88.7266 332.016 85.7046 332.016 85.7046Z" fill="#FFB2A8"/>
<g opacity="0.2">
<path d="M334.324 81.394C335.162 82.3524 336.618 82.8924 337.952 82.9208C337.933 82.802 337.936 82.6236 337.922 82.5052C337.9 82.3192 337.902 82.0348 337.891 81.8396C337.88 81.5996 337.876 81.3388 337.889 81.0904C337.9 80.992 337.94 81.006 337.952 80.9076L337.975 80.7048L333.933 79.3328C333.605 79.572 333.649 80.6156 334.324 81.394Z" fill="black"/>
</g>
<path d="M328.853 71.4742C327.884 67.1342 331.654 63.1382 336.156 64.1822C340.724 65.2418 342.36 71.6522 342.047 75.7402C341.7 80.2822 336.61 83.1526 332.74 80.2998C330.168 78.4034 329.822 75.8142 328.853 71.4742Z" fill="#FFB2A8"/>
<path d="M332.127 64.4934C330.513 64.8206 327.2 68.0326 327.2 68.0326C327.2 68.0326 327.41 69.2786 327.835 70.021C327.654 70.1746 327.485 70.3394 327.336 70.5182C327.162 70.7274 327.012 70.9534 326.892 71.2002C326.864 71.2562 326.838 71.3138 326.813 71.3722C326.871 71.5322 326.946 71.697 327.041 71.8662C327.511 72.7054 329.003 74.5594 330.302 76.119C330.193 75.9006 330.095 75.6646 330.003 75.405C329.696 74.5394 329.317 73.3354 328.923 71.8834C329.274 71.8942 329.527 71.9902 329.756 72.1118C331.432 72.9998 332.043 73.8318 332.748 73.0138C333.176 72.5162 332.638 70.9302 332.285 69.581C332.196 69.227 332.02 68.4294 332.009 67.6478C331.994 66.601 333.044 65.7422 333.044 65.7422C333.044 65.7422 333.104 65.6678 333.167 65.5562C334.602 66.4798 337.132 67.6262 339.624 66.3998C343.346 64.5686 335.325 60.943 332.127 64.4934Z" fill="#263238"/>
<path d="M335.136 72.434C335.176 72.8864 335.448 73.2296 335.744 73.2008C336.04 73.1716 336.248 72.7812 336.208 72.3288C336.168 71.8764 335.895 71.5332 335.6 71.562C335.303 71.5912 335.096 71.9816 335.136 72.434Z" fill="#263238"/>
<path d="M339.522 72.138C339.562 72.5904 339.834 72.9336 340.13 72.9048C340.426 72.8756 340.633 72.4852 340.593 72.0328C340.553 71.5804 340.281 71.2372 339.985 71.2664C339.689 71.2952 339.482 71.6856 339.522 72.138Z" fill="#263238"/>
<path d="M338.216 71.595C338.216 71.595 339.847 73.7166 340.387 74.5914C339.808 75.2158 338.7 75.0494 338.7 75.0494L338.216 71.595Z" fill="#E8675B"/>
<path d="M333.973 69.9871C334.044 70.0091 334.124 69.9931 334.183 69.9383C334.864 69.3039 335.576 69.4479 335.651 69.4643C335.765 69.4915 335.881 69.4215 335.909 69.3079C335.938 69.1943 335.868 69.0799 335.754 69.0523C335.714 69.0427 334.757 68.8243 333.893 69.6303C333.807 69.7107 333.802 69.8447 333.882 69.9299C333.908 69.9579 333.94 69.9767 333.973 69.9871Z" fill="#263238"/>
<path d="M327.642 74.6294C328.112 75.7774 329.071 76.595 330.02 76.9662C331.448 77.525 331.826 75.9842 331.568 74.5518C331.337 73.2622 330.818 71.7126 329.318 71.7662C327.84 71.8194 327.104 73.3174 327.642 74.6294Z" fill="#FFB2A8"/>
<path opacity="0.2" d="M328.576 73.2697C328.737 72.9797 329.104 72.8457 329.432 72.8965C329.76 72.9469 330.046 73.1529 330.265 73.4013C330.528 73.6997 330.711 74.0681 330.79 74.4577" stroke="black" stroke-width="0.5" stroke-miterlimit="10" stroke-linecap="round" stroke-linejoin="round"/>
<path d="M341.502 69.6355C341.541 69.6235 341.577 69.6003 341.604 69.5667C341.678 69.4755 341.666 69.3411 341.576 69.2667C340.672 68.5203 339.74 68.8159 339.696 68.8239C339.585 68.8599 339.522 68.9799 339.557 69.0919C339.592 69.2039 339.71 69.2655 339.821 69.2307C339.859 69.2167 340.58 68.9983 341.306 69.5975C341.363 69.6443 341.437 69.6559 341.502 69.6355Z" fill="#263238"/>
<path d="M335.45 75.9968C335.45 75.9968 336.542 76.676 338.458 76.678C338.458 76.678 338.11 77.9904 336.882 77.882C335.398 77.7508 335.45 75.9968 335.45 75.9968Z" fill="white"/>
<path d="M336.834 75.422C337.536 75.4432 338.223 75.6848 338.745 76.1552C338.947 76.3368 339.118 76.5456 339.188 76.7684C339.412 77.4812 336.882 76.9824 335.845 76.5848C334.808 76.1872 335.048 75.7812 335.633 75.5416C335.913 75.4264 336.401 75.4088 336.834 75.422Z" fill="#263238"/>
<path opacity="0.3" d="M332.1 68.6626C332.1 68.6626 330.256 69.8482 328.41 69.5074C326.565 69.1666 326.087 68.7594 326.087 68.7594L326.22 69.7634C326.22 69.7634 327.777 70.6802 329.683 70.5762C331.589 70.4722 332.396 69.9962 332.396 69.9962L332.1 68.6626Z" fill="white"/>
<path d="M315.635 66.8809C312.976 72.7169 313.524 80.4109 316.971 85.6293" stroke="#407BFF" stroke-miterlimit="10" stroke-linecap="round" stroke-linejoin="round"/>
<path d="M316.344 65.3268C316.382 65.2104 317.312 63.644 317.312 63.644" stroke="#407BFF" stroke-miterlimit="10" stroke-linecap="round" stroke-linejoin="round"/>
<path d="M278.056 193.207C277.328 188.591 276.208 182.111 274.501 175.207C272.337 166.498 269.632 157.086 267.416 149.711C265.071 141.943 263.294 136.449 263.294 136.449L282.41 135.247C282.41 135.247 290.236 173.854 292.072 188.759C292.282 190.218 292.267 191.68 292.072 193.145L278.056 193.207Z" fill="#407BFF"/>
<path opacity="0.2" d="M278.056 193.207C277.328 188.591 276.208 182.111 274.501 175.207C272.337 166.498 269.632 157.086 267.416 149.711C265.071 141.943 263.294 136.449 263.294 136.449L282.41 135.247C282.41 135.247 290.236 173.854 292.072 188.759C292.282 190.218 292.267 191.68 292.072 193.145L278.056 193.207Z" fill="black"/>
<path opacity="0.2" d="M269.574 146.683L267.786 150.539C269.784 157.913 272.098 166.012 274.371 174.686C275.218 166.139 273.871 151.758 269.574 146.683Z" fill="black"/>
<path d="M267.731 192.214C270.031 177.954 272.098 135.892 272.098 135.892L253.329 137.082C253.329 137.082 255.255 173.297 253.593 190.716L253.329 193.145H267.605L267.731 192.214Z" fill="#407BFF"/>
<path opacity="0.2" d="M267.731 192.214C270.031 177.954 272.098 135.892 272.098 135.892L253.329 137.082C253.329 137.082 255.255 173.297 253.593 190.716L253.329 193.145H267.605L267.731 192.214Z" fill="black"/>
<path opacity="0.2" d="M271.815 140.886C271.815 141.349 271.44 141.723 270.978 141.723C270.516 141.723 270.142 141.348 270.142 140.886C270.142 140.424 270.516 140.049 270.978 140.049C271.44 140.049 271.815 140.424 271.815 140.886Z" fill="black"/>
<path opacity="0.2" d="M254.556 147.26C256.423 147.253 258.275 146.466 259.576 145.127C260.878 143.789 261.612 141.916 261.567 140.049" stroke="black" stroke-miterlimit="10" stroke-linecap="round" stroke-linejoin="round"/>
<path opacity="0.2" d="M272.785 140.049C272.785 140.049 273.026 147.491 272.785 147.587C272.544 147.683 270.978 147.925 270.978 147.925" stroke="black" stroke-miterlimit="10" stroke-linecap="round" stroke-linejoin="round"/>
<g opacity="0.2">
<path d="M279.388 140.422C279.347 140.67 279.423 140.958 279.467 141.2C279.562 141.716 279.701 142.226 279.879 142.72C280.322 143.95 281.033 145.17 282.169 145.878C282.899 146.333 283.75 146.508 284.604 146.452C284.796 146.44 284.797 146.14 284.604 146.152C283.158 146.246 281.914 145.59 281.08 144.421C280.427 143.506 280.024 142.416 279.796 141.321C279.757 141.132 279.722 140.942 279.699 140.752C279.692 140.693 279.687 140.634 279.683 140.575C279.681 140.55 279.688 140.438 279.678 140.501C279.709 140.313 279.42 140.232 279.388 140.422Z" fill="black"/>
</g>
<path d="M282.556 104.097L286.654 111.398L295.698 100.037L299.983 101.634C299.983 101.634 288.839 121.085 286.036 121.415C283.233 121.745 276.236 108.854 276.236 108.854L282.556 104.097Z" fill="#8E4B4C"/>
<path d="M278.549 94.3692C281.493 98.73 286.354 107.012 286.354 107.012L275.193 113.396C275.193 113.396 267.983 101.512 268.343 96.8324C268.738 91.7632 275.518 91.4952 278.549 94.3692Z" fill="#263238"/>
<path d="M254.977 93.1569C255.668 93.0465 256.376 92.9477 257.079 92.8609C260.775 92.3849 264.495 92.1213 268.221 92.0713C268.682 92.0753 269.135 92.0925 269.58 92.1237C271.684 92.2529 273.778 92.5109 275.851 92.8961C275.851 92.8961 280.081 112.349 283.677 138.228C271.965 140.027 260.422 140.462 251.268 138.871C251.036 136.88 252.823 129.186 252.416 121.464C252.242 118.166 251.964 114.531 251.499 110.728C250.861 105.269 249.47 99.8077 248.028 94.5045C248.028 94.5037 251.464 93.7085 254.977 93.1569Z" fill="#263238"/>
<path opacity="0.2" d="M254.689 113.954L255.256 113.862L253.678 105.163L258.196 119.875L255.743 120.7L254.689 113.954Z" fill="black"/>
<path d="M313.811 119.091L294.132 123.31C286.843 124.872 279.709 120.423 278.198 113.372C276.686 106.322 281.369 99.3392 288.658 97.7764L308.337 93.5576" stroke="#407BFF" stroke-width="18" stroke-miterlimit="10"/>
<path opacity="0.7" d="M312.982 115.04L301.726 117.453L303.353 125.04L314.608 122.627L312.982 115.04Z" fill="white"/>
<g opacity="0.3">
<path d="M314.57 122.611L294.89 126.83C285.365 128.872 275.995 122.977 274.004 113.689C272.013 104.401 278.142 95.1829 287.668 93.1409L307.347 88.9221L309.096 97.0785L289.416 101.297C284.388 102.375 281.133 107.15 282.16 111.941C283.187 116.731 288.114 119.752 293.142 118.674L312.821 114.455L314.57 122.611Z" fill="black"/>
</g>
<path d="M312.937 115.016L293.258 119.235C285.969 120.797 278.835 116.349 277.324 109.298C275.812 102.247 280.496 95.2645 287.784 93.7017L307.464 89.4829" stroke="#407BFF" stroke-width="18" stroke-miterlimit="10"/>
<path opacity="0.7" d="M312.177 111.476L300.922 113.889L302.436 120.953L313.691 118.54L312.177 111.476Z" fill="white"/>
<path opacity="0.7" d="M306.704 85.965L295.449 88.3777L297.832 99.4964L309.087 97.0838L306.704 85.965Z" fill="white"/>
<path d="M296.179 99.2549C296.179 99.2549 296.713 95.4269 297.592 94.8253C298.471 94.2233 298.647 95.7337 298.647 95.7337C298.647 95.7337 298.556 94.0601 299.261 93.9253C300.108 93.7633 300.285 95.3465 300.285 95.3465C300.285 95.3465 300.266 93.9769 300.902 93.8989C301.561 93.8181 301.888 95.5909 301.888 95.5909C301.888 95.5909 302.057 94.6241 302.529 94.8197C303.002 95.0157 303.768 98.7641 303.247 99.9925C302.725 101.221 297.877 102.059 296.785 101.989C296.471 101.969 295.943 101.842 295.278 100.561C295.139 100.293 295.227 99.9573 295.482 99.7961L296.162 99.3685L296.179 99.2549Z" fill="#8E4B4C"/>
<path opacity="0.2" d="M298.727 95.724C298.727 95.7264 298.727 95.7284 298.727 95.7312L298.747 98.6564C298.747 98.6956 298.711 98.7288 298.667 98.73C298.622 98.7312 298.585 98.6992 298.586 98.6612L298.566 95.736C298.566 95.6968 298.602 95.6636 298.646 95.6624C298.688 95.6608 298.723 95.688 298.727 95.724Z" fill="black"/>
<path opacity="0.2" d="M300.374 95.4194C300.374 95.4194 300.374 95.4206 300.374 95.4214L300.617 98.2298C300.62 98.269 300.587 98.3038 300.543 98.3078C300.498 98.3118 300.468 98.2886 300.456 98.2446L300.214 95.4362C300.21 95.397 300.244 95.3622 300.288 95.3578C300.332 95.3538 300.37 95.381 300.374 95.4194Z" fill="black"/>
<path opacity="0.2" d="M301.979 95.6768L302.218 97.7584C302.223 97.7976 302.191 97.8332 302.146 97.838C302.102 97.8432 302.063 97.8156 302.058 97.7768L301.818 95.6952C301.814 95.656 301.846 95.6204 301.89 95.6156C301.935 95.6104 301.974 95.6376 301.979 95.6768Z" fill="black"/>
<path d="M256.811 92.8985C259.131 90.1689 257.974 83.8245 256.932 80.4409L265.676 85.8493C265.554 86.2705 265.461 86.6997 265.398 87.1337C265.258 87.9133 265.32 88.7165 265.58 89.4649C265.821 90.0785 266.968 92.0713 266.968 92.0713C266.968 92.0713 269.006 95.8265 264.127 96.4141C259.292 96.7753 256.811 92.8985 256.811 92.8985Z" fill="#8E4B4C"/>
<path opacity="0.2" d="M258.875 83.7405C259.069 87.8541 263.434 89.1573 265.584 89.4713C265.325 88.7225 265.262 87.9197 265.403 87.1401L258.875 83.7405Z" fill="black"/>
<path d="M264.558 67.5093C268.564 66.6789 266.474 69.9133 270.886 70.4937C271.003 73.1761 267.954 76.2013 266.793 74.5581C265.516 72.7525 261.225 68.1653 264.558 67.5093Z" fill="#263238"/>
<path d="M255.13 77.6352C256.848 82.2552 257.721 84.8952 260.898 86.5632C265.676 89.0716 270.898 85.234 270.636 80.1772C270.4 75.6256 267.63 68.8352 262.321 68.4144C257.091 68.0004 253.412 73.0156 255.13 77.6352Z" fill="#8E4B4C"/>
<path d="M261.831 76.7992C261.976 77.2808 262.357 77.5908 262.681 77.4916C263.005 77.3924 263.15 76.9212 263.004 76.4392C262.859 75.9576 262.479 75.6476 262.155 75.7468C261.831 75.846 261.686 76.3172 261.831 76.7992Z" fill="#263238"/>
<path d="M266.768 75.7072C266.914 76.1892 267.294 76.4992 267.618 76.4C267.942 76.3008 268.087 75.8296 267.942 75.3476C267.796 74.866 267.416 74.556 267.092 74.6552C266.768 74.7544 266.623 75.2256 266.768 75.7072Z" fill="#263238"/>
<path d="M265.713 75.793C265.713 75.793 268.006 77.7218 268.804 78.547C268.296 79.3574 267.022 79.4306 267.022 79.4306L265.713 75.793Z" fill="#703131"/>
<path d="M260.584 75.0272C260.668 75.0348 260.754 74.9992 260.807 74.9264C261.44 74.0624 262.331 74.076 262.34 74.076C262.474 74.0792 262.588 73.9768 262.594 73.8472C262.6 73.7172 262.497 73.6092 262.364 73.6052C262.317 73.6036 261.2 73.5864 260.415 74.6588C260.337 74.7656 260.361 74.9124 260.469 74.9864C260.504 75.0104 260.543 75.0236 260.584 75.0272Z" fill="#263238"/>
<path d="M268.912 72.9213C268.952 72.8993 268.987 72.8661 269.01 72.8233C269.073 72.7073 269.029 72.5641 268.912 72.5041C267.736 71.9017 266.762 72.4357 266.715 72.4541C266.598 72.5189 266.555 72.6633 266.619 72.7769C266.683 72.8901 266.828 72.9301 266.944 72.8669C266.984 72.8429 267.74 72.4409 268.684 72.9245C268.758 72.9629 268.843 72.9585 268.912 72.9213Z" fill="#263238"/>
<path d="M267.103 81.0942C266.778 81.691 266.496 82.3102 266.26 82.9478C266.143 82.925 266.023 82.905 265.908 82.877C264.315 82.5478 263.682 81.8714 263.472 81.2162C263.374 80.8938 263.354 80.5534 263.412 80.2218C263.441 80.0342 263.495 79.8514 263.574 79.679C264.315 80.3586 265.772 80.7798 266.562 80.9714C266.907 81.0378 267.103 81.0942 267.103 81.0942Z" fill="#263238"/>
<path d="M266.566 80.971L266.302 81.5114C264.806 81.1986 263.794 80.7818 263.416 80.2218C263.444 80.0342 263.498 79.8514 263.577 79.679C264.322 80.365 265.775 80.7794 266.566 80.971Z" fill="white"/>
<path d="M265.914 82.9113C264.322 82.5821 263.689 81.9057 263.478 81.2505C264.081 81.3865 264.656 81.6281 265.174 81.9645C265.514 82.1949 265.772 82.5261 265.914 82.9113Z" fill="#D7504D"/>
<path d="M269.34 63.7909C266.088 63.4773 264.991 63.8321 262.31 64.8985C262.31 64.8985 262.981 63.5225 262.708 61.9141C256.512 67.2501 253.818 64.7477 250.811 67.8017C248.889 69.7525 250.774 72.2177 250.774 72.2177C250.774 72.2177 245.777 75.4621 253.31 81.0785C253.548 81.6957 253.612 82.2909 253.368 82.6797C252.916 83.3977 252.086 83.7681 251.305 84.0985C252.582 84.4617 253.984 84.3709 255.204 83.8453C254.98 84.6361 254.554 85.3685 253.977 85.9541C255.67 86.0641 257.394 85.2421 258.375 83.8581L257.129 80.4593C257.418 80.4285 257.726 80.4281 258.064 80.4825C258.29 79.3357 258.354 78.1633 258.255 76.9985C258.088 76.0877 257.802 75.2033 257.402 74.3681C257.402 74.3681 260.183 72.7249 260.247 70.7449C260.247 70.7449 265.217 72.2081 267.871 69.9725C270.523 67.7385 267.981 64.7781 269.34 63.7909Z" fill="#263238"/>
<path d="M254.398 82.1273C255.152 83.2245 256.36 83.8689 257.462 84.0477C259.12 84.3169 259.196 82.6209 258.611 81.1781C258.085 79.8797 257.193 78.3721 255.589 78.7597C254.008 79.1425 253.537 80.8729 254.398 82.1273Z" fill="#8E4B4C"/>
<path opacity="0.2" d="M255.114 80.4977C255.224 80.1589 255.592 79.9373 255.955 79.9177C256.319 79.8985 256.672 80.0501 256.961 80.2621C257.308 80.5165 257.584 80.8613 257.754 81.2521" stroke="black" stroke-width="0.5" stroke-miterlimit="10" stroke-linecap="round" stroke-linejoin="round"/>
<path d="M244.615 110.02C244.615 110.02 248.906 126.825 251.778 128.645C254.65 130.465 275.193 121.71 275.193 121.71L272.729 117.717L256.052 120.194C255.518 119.613 253.442 106.541 253.442 106.541L244.615 110.02Z" fill="#8E4B4C"/>
<path d="M253.1 101.472C253.979 107.478 255.256 113.862 255.256 113.862L243.89 115.704C243.89 115.704 242.43 96.7305 248.14 94.5037C250.099 94.5037 252.144 94.9289 253.1 101.472Z" fill="#263238"/>
<path d="M280.032 116.874L280.335 116.287C280.686 115.31 279.766 114.649 279.766 114.649C279.817 113.818 279.038 112.921 278.724 112.71C278.409 112.499 275.102 115.116 275.102 115.116L274.31 113.077C274.178 113.125 272.858 114.594 272.271 115.738L270.51 118.526C271 120.821 272.131 121.474 273.372 122.002C273.582 122.092 276.229 121.508 277.5 121.162C278.662 120.846 280.44 119.935 280.834 118.392C281.227 116.848 280.032 116.874 280.032 116.874Z" fill="#8E4B4C"/>
<path opacity="0.2" d="M256.052 120.193L254.558 123.966L257.423 119.99L256.052 120.193Z" fill="black"/>
<path d="M386.217 70.7584C386.085 70.378 385.927 70.0072 385.745 69.6484C383.129 64.264 376.643 62.02 371.259 64.636C365.874 67.2524 363.63 73.738 366.246 79.1228C368.863 84.5072 375.348 86.7512 380.733 84.1352C384.492 82.3088 386.866 78.4832 386.835 74.304C386.831 73.0956 386.622 71.8968 386.217 70.7584Z" fill="#407BFF"/>
<path opacity="0.5" d="M386.835 74.2956C386.83 73.09 386.621 71.894 386.217 70.7584C386.085 70.378 385.927 70.0072 385.745 69.6484C383.129 64.264 376.643 62.02 371.259 64.636C365.874 67.2524 363.63 73.738 366.246 79.1228C368.863 84.5072 375.348 86.7512 380.733 84.1352C384.492 82.3088 386.866 78.4832 386.835 74.304V74.2956Z" fill="white"/>
<path d="M383.106 71.1001C382.374 70.1121 381.183 70.6205 380.618 71.4865C379.915 70.7301 378.65 70.4373 378.101 71.5353C377.17 73.3893 379.544 74.8245 380.65 75.3693L380.968 75.5237L381.252 75.3165C382.253 74.5885 384.342 72.7669 383.106 71.1001Z" fill="#407BFF"/>
<path d="M373.983 71.5754C373.389 70.4978 372.141 70.8394 371.466 71.6202C370.868 70.7786 369.657 70.315 368.962 71.3274C367.791 73.039 369.946 74.7834 370.974 75.4746L371.263 75.6698L371.576 75.503C372.662 74.9174 374.983 73.393 373.983 71.5754Z" fill="#407BFF"/>
<path d="M376.16 78.8779C374.785 78.6083 374.21 76.9471 374.099 76.0323C374.095 75.9123 374.189 75.8123 374.309 75.8083C374.414 75.8051 374.506 75.8775 374.528 75.9803C374.53 76.0071 374.864 78.5235 376.586 78.4931C378.307 78.4627 378.449 75.7579 378.45 75.7283C378.455 75.6099 378.555 75.5183 378.674 75.5231C378.674 75.5231 378.676 75.5231 378.676 75.5231C378.792 75.5267 378.884 75.6243 378.881 75.7411C378.881 75.7435 378.881 75.7463 378.88 75.7487C378.887 75.8771 378.716 78.8895 376.595 78.9243C376.448 78.9251 376.303 78.9091 376.16 78.8779Z" fill="#263238"/>
<path d="M383.07 75.804C382.858 76.0196 382.606 76.1213 382.509 76.0237C382.411 75.9261 382.509 75.674 382.712 75.4544C382.915 75.2348 383.172 75.1413 383.273 75.2349C383.375 75.3285 383.281 75.5884 383.07 75.804Z" fill="#407BFF"/>
<path d="M383.964 75.91C383.753 76.1296 383.501 76.2272 383.403 76.1296C383.306 76.032 383.403 75.78 383.606 75.5644C383.81 75.3488 384.066 75.2472 384.164 75.3448C384.261 75.4424 384.18 75.6944 383.964 75.91Z" fill="#407BFF"/>
<path d="M369.437 75.9505C369.669 76.1457 369.929 76.2149 370.014 76.1089C370.1 76.0029 369.986 75.7633 369.754 75.5681C369.522 75.3729 369.262 75.3037 369.173 75.4097C369.084 75.5157 369.202 75.7593 369.437 75.9505Z" fill="#407BFF"/>
<path d="M368.555 76.1535C368.787 76.3487 369.047 76.4179 369.136 76.3119C369.226 76.2063 369.108 75.9623 368.872 75.7711C368.636 75.5799 368.38 75.5067 368.295 75.6127C368.21 75.7187 368.323 75.9583 368.555 76.1535Z" fill="#407BFF"/>
<path d="M247.145 129.679C247.004 129.244 246.834 128.82 246.634 128.408C243.69 122.253 236.314 119.65 230.158 122.594C227.682 123.778 225.671 125.753 224.442 128.207C224.208 128.683 224.002 129.172 223.828 129.672C221.54 136.103 224.899 143.171 231.33 145.459C237.761 147.747 244.829 144.388 247.117 137.957C247.602 136.593 247.844 135.154 247.832 133.706C247.834 132.335 247.601 130.973 247.145 129.679Z" fill="#407BFF"/>
<path opacity="0.3" d="M247.145 129.679C247.004 129.244 246.834 128.82 246.634 128.408C243.69 122.253 236.314 119.65 230.158 122.594C227.682 123.778 225.671 125.753 224.442 128.207C224.208 128.683 224.002 129.172 223.828 129.672C221.54 136.103 224.899 143.171 231.33 145.459C237.761 147.747 244.829 144.388 247.117 137.957C247.602 136.593 247.844 135.154 247.832 133.706C247.834 132.335 247.601 130.973 247.145 129.679Z" fill="white"/>
<path d="M236.794 130.828C236.794 130.828 237.606 128.944 239.04 128.849C240.891 128.739 241.6 130.869 241.6 130.869L240.878 130.896C240.878 130.896 240.219 129.242 239.106 129.376C237.721 129.538 237.195 130.99 237.195 130.99L236.794 130.828Z" fill="#263238"/>
<path d="M233.539 130.828C233.539 130.828 232.626 128.985 231.18 128.976C229.326 128.97 228.741 131.133 228.741 131.133L229.464 131.153C229.464 131.153 230.031 129.463 231.146 129.536C232.534 129.622 233.143 131.044 233.143 131.044L233.539 130.828Z" fill="#263238"/>
<path d="M231.004 132.946C231.004 132.946 236.177 133.614 239.938 132.708C239.938 132.708 239.732 137.824 235.316 137.53C230.9 137.236 231.004 132.946 231.004 132.946Z" fill="#263238"/>
<path d="M231.136 133.16C231.136 133.16 236.063 133.818 239.648 132.92C239.648 132.92 239.559 133.514 239.413 133.628C239.214 133.718 239.005 133.787 238.79 133.832C238.766 133.908 238.719 133.976 238.657 134.027C238.309 134.243 237 134.204 237 134.204C237 134.204 236.983 134.308 236.939 134.34C236.646 134.56 235.791 134.635 235.487 134.436C235.409 134.346 235.348 134.242 235.308 134.13C235.308 134.13 235.254 134.405 235.186 134.454C234.964 134.626 234.308 134.547 234.068 134.399C233.99 134.326 233.93 134.237 233.892 134.137C233.892 134.137 233.019 134.245 232.768 134.123C232.678 134.044 232.602 133.952 232.542 133.849C232.542 133.849 231.569 133.914 231.331 133.726C231.209 133.632 231.136 133.16 231.136 133.16Z" fill="white"/>
<path d="M235.518 137.34C236.418 137.388 238.239 136.715 238.386 136.101C238.533 135.487 237.82 135.169 237.063 135.356C236.607 135.475 236.178 135.682 235.802 135.966C235.802 135.966 234.455 135.273 233.419 135.573C232.768 135.767 232.672 137.189 235.518 137.34Z" fill="#407BFF"/>
<path opacity="0.3" d="M229.289 133.215C229.183 133.922 228.198 134.354 227.087 134.184C225.976 134.014 225.17 133.293 225.271 132.609C225.372 131.924 226.366 131.471 227.468 131.663C228.57 131.854 229.398 132.513 229.289 133.215Z" fill="white"/>
<path opacity="0.3" d="M245.718 131.902C245.937 132.583 245.245 133.406 244.174 133.746C243.102 134.086 242.06 133.797 241.848 133.139C241.635 132.48 242.326 131.634 243.398 131.318C244.47 131.001 245.506 131.224 245.718 131.902Z" fill="white"/>
<path d="M311.538 144.858C311.455 144.612 311.354 144.372 311.236 144.141C309.548 140.662 305.359 139.211 301.88 140.899C300.482 141.577 299.35 142.701 298.661 144.094C298.179 145.074 297.932 146.152 297.939 147.244C297.896 151.111 300.995 154.28 304.862 154.324C308.729 154.367 311.898 151.267 311.941 147.4C311.942 147.316 311.942 147.232 311.94 147.147C311.936 146.367 311.8 145.593 311.538 144.858Z" fill="#407BFF"/>
<path opacity="0.6" d="M311.538 144.858C311.455 144.612 311.354 144.372 311.236 144.141C309.548 140.662 305.359 139.211 301.88 140.899C300.482 141.577 299.35 142.701 298.661 144.094C298.179 145.074 297.932 146.152 297.939 147.244C297.896 151.111 300.995 154.28 304.862 154.324C308.729 154.367 311.898 151.267 311.941 147.4C311.942 147.316 311.942 147.232 311.94 147.147C311.936 146.367 311.8 145.593 311.538 144.858Z" fill="white"/>
<path d="M304.878 149.808C303.715 149.808 302.657 149.22 302.252 148.345C302.207 148.246 302.249 148.13 302.347 148.083C302.443 148.036 302.56 148.076 302.607 148.172C302.608 148.174 302.608 148.176 302.61 148.178C302.959 148.918 303.875 149.414 304.888 149.414C305.902 149.414 306.818 148.918 307.167 148.178C307.213 148.079 307.33 148.037 307.429 148.083L307.43 148.083C307.527 148.13 307.569 148.247 307.524 148.346C307.098 149.219 306.04 149.808 304.878 149.808Z" fill="#263238"/>
<path d="M307.503 145.583C307.846 145.583 308.125 145.861 308.125 146.205C308.125 146.548 307.847 146.827 307.503 146.827C307.159 146.827 306.881 146.549 306.881 146.205C306.881 145.861 307.159 145.583 307.503 145.583Z" fill="#263238"/>
<path d="M302.874 146.205C302.874 146.548 302.596 146.827 302.252 146.827C301.909 146.827 301.63 146.549 301.63 146.205C301.63 145.861 301.908 145.583 302.252 145.583C302.595 145.584 302.873 145.862 302.874 146.205Z" fill="#263238"/>
</g>
<rect x="194" y="227.999" width="16" height="4" rx="2" fill="#324B50"/>
<circle cx="218" cy="229.999" r="2" fill="white"/>
<circle cx="228" cy="229.999" r="2" fill="white"/>
<defs>
<clipPath id="clip0_201_4763">
<rect width="200" height="200" fill="white" transform="translate(203 19.9993)"/>
</clipPath>
</defs>
</svg>
