<svg width="534" height="305" viewBox="0 0 534 305" fill="none" xmlns="http://www.w3.org/2000/svg">
<g filter="url(#filter0_d_388_1358)">
<rect x="24" y="9" width="486.435" height="257" rx="30.3979" fill="#037AE0" fill-opacity="0.05" shape-rendering="crispEdges"/>
<rect x="399.822" y="25.6202" width="94.0473" height="29.4038" rx="14.7019" fill="#FCFCFD"/>
<rect x="399.822" y="25.6202" width="94.0473" height="29.4038" rx="14.7019" stroke="#D9D9D9" stroke-width="0.810726"/>
<path d="M422.016 44.3223H421.21V36.7177H422.345L424.502 41.4393L425.183 43.0851H425.251L425.932 41.4393L428.066 36.7177H429.212V44.3223H428.395V39.0558L428.429 37.9548H428.361L427.895 39.0558L425.693 43.8683H424.717L422.515 39.0558L422.05 37.9548H421.982L422.016 39.0558V44.3223ZM433.495 44.4358C431.849 44.4358 430.771 43.2213 430.771 41.5188C430.771 39.8163 431.849 38.6018 433.495 38.6018C435.129 38.6018 436.173 39.8163 436.173 41.5188C436.173 43.2213 435.129 44.4358 433.495 44.4358ZM433.495 43.7094C434.846 43.7094 435.379 42.9148 435.379 41.5188C435.379 40.1227 434.846 39.3395 433.495 39.3395C432.121 39.3395 431.577 40.1227 431.577 41.5188C431.577 42.9148 432.121 43.7094 433.495 43.7094ZM438.545 44.3223H437.728V38.7153H438.466V39.873H438.5C438.716 39.2828 439.351 38.6018 440.509 38.6018C441.95 38.6018 442.609 39.5325 442.609 40.8832V44.3223H441.803V41.0648C441.803 39.8503 441.406 39.3168 440.259 39.3168C439.147 39.3168 438.545 39.839 438.545 41.0875V44.3223ZM446.425 44.3336C445.392 44.3336 444.791 43.925 444.791 42.7332V39.419H443.849V38.7153H444.802L444.995 37.2852H445.608V38.7153H447.379V39.419H445.608V42.7786C445.608 43.437 445.914 43.5845 446.641 43.5845H447.379V44.2428C447.186 44.2769 446.834 44.3336 446.425 44.3336ZM449.612 44.3223H448.795V36.7177H449.612V39.7595H449.657C449.873 39.226 450.452 38.6018 451.587 38.6018C453.051 38.6018 453.675 39.5779 453.675 40.8605V44.3223H452.869V41.0648C452.869 39.8503 452.461 39.3168 451.326 39.3168C450.202 39.3168 449.612 39.839 449.612 41.0988V44.3223Z" fill="#1E1E1E"/>
<path d="M466.656 38.9832C466.656 38.9115 466.682 38.8399 466.739 38.7833C466.792 38.7307 466.864 38.7012 466.939 38.7012C467.014 38.7012 467.086 38.7307 467.139 38.7833L469.598 41.2425C469.779 41.4236 470.073 41.4236 470.254 41.2425L472.714 38.7833C472.767 38.7307 472.839 38.7012 472.913 38.7012C472.988 38.7012 473.06 38.7307 473.113 38.7833C473.223 38.8927 473.223 39.0737 473.113 39.1831L470.654 41.6423C470.462 41.8347 470.202 41.9441 469.926 41.9441C469.651 41.9441 469.391 41.8385 469.198 41.6423L466.739 39.1831C466.686 39.1265 466.656 39.0549 466.656 38.9832Z" fill="#1E1E1E"/>
<g filter="url(#filter1_d_388_1358)">
<rect x="40.2145" y="25.2148" width="44.2151" height="44.2151" rx="22.1075" fill="#037AE0" fill-opacity="0.1" shape-rendering="crispEdges"/>
<path d="M71.8996 44.464C71.8998 45.2907 71.7287 46.1085 71.3971 46.8658C71.0656 47.6232 70.5808 48.3036 69.9734 48.8644C69.3659 49.4251 68.6489 49.854 67.8675 50.124C67.0861 50.394 66.2573 50.4992 65.4332 50.4331C65.3179 49.0155 64.7025 47.6851 63.6968 46.6794C62.6911 45.6737 61.3607 45.0583 59.9432 44.943C59.88 44.1399 59.9796 43.3322 60.236 42.5685C60.4924 41.8047 60.9002 41.1005 61.4352 40.4981C61.9701 39.8957 62.6211 39.4075 63.3492 39.0626C64.0773 38.7178 64.8675 38.5234 65.6725 38.4911C66.4775 38.4589 67.2807 38.5894 68.0341 38.8749C68.7874 39.1604 69.4754 39.595 70.0568 40.1527C70.6383 40.7104 71.1012 41.3797 71.4178 42.1205C71.7344 42.8613 71.8983 43.6584 71.8996 44.464Z" stroke="#037AE0" stroke-width="1.38172" stroke-linecap="round" stroke-linejoin="round"/>
<path d="M65.4516 50.914C65.4516 52.502 64.8208 54.0249 63.6979 55.1478C62.575 56.2706 61.0521 56.9015 59.4641 56.9015C57.8762 56.9015 56.3532 56.2706 55.2304 55.1478C54.1075 54.0249 53.4767 52.502 53.4767 50.914C53.4767 49.326 54.1075 47.8031 55.2304 46.6802C56.3532 45.5574 57.8762 44.9265 59.4641 44.9265C61.0521 44.9265 62.575 45.5574 63.6979 46.6802C64.8208 47.8031 65.4516 49.326 65.4516 50.914ZM56.7836 38.4785H54.3978C53.8912 38.4785 53.4767 38.893 53.4767 39.3997V41.7854C53.4767 42.6053 54.4715 43.0198 55.0518 42.4394L57.4376 40.0537C58.0087 39.4734 57.6034 38.4785 56.7836 38.4785ZM68.5927 56.9015H70.9785C71.4851 56.9015 71.8996 56.4869 71.8996 55.9803V53.5945C71.8996 52.7747 70.9048 52.3602 70.3245 52.9405L67.9387 55.3263C67.3676 55.9066 67.7729 56.9015 68.5927 56.9015Z" stroke="#037AE0" stroke-width="1.38172" stroke-linecap="round" stroke-linejoin="round"/>
</g>
<path d="M107.064 45.2012H105.644V33.1012H100.904V31.8012H111.824V33.1012H107.064V45.2012ZM113.653 45.2012H112.213V35.2012H113.513V36.8612H113.613C113.933 35.9412 114.893 35.1212 116.353 35.1212C118.393 35.1212 119.173 36.5812 119.173 38.2812V38.8412H117.733V38.5012C117.733 36.9612 117.253 36.3612 115.833 36.3612C114.293 36.3612 113.653 37.0612 113.653 38.6612V45.2012ZM123.077 45.4012C121.277 45.4012 119.917 44.4812 119.917 42.8212C119.917 41.1012 121.197 40.3412 123.357 40.0412L126.837 39.5612V38.8412C126.837 37.1012 126.097 36.4012 124.237 36.4012C122.437 36.4012 121.597 37.1012 121.597 38.6812V38.9812H120.217V38.8212C120.217 36.7612 121.797 35.1212 124.357 35.1212C126.997 35.1212 128.197 36.8212 128.197 39.0212V45.2012H126.897V43.3812L126.797 43.3612C126.217 44.5012 124.957 45.4012 123.077 45.4012ZM121.317 42.7212C121.317 43.7412 121.957 44.2012 123.477 44.2012C125.177 44.2012 126.837 43.3212 126.837 40.9812V40.6412L123.477 41.1212C121.897 41.3412 121.317 41.6612 121.317 42.7212ZM131.837 45.2012H130.397V35.3212H131.697V37.3612H131.757C132.137 36.3212 133.257 35.1212 135.297 35.1212C137.837 35.1212 138.997 36.7612 138.997 39.1412V45.2012H137.577V39.4612C137.577 37.3212 136.877 36.3812 134.857 36.3812C132.897 36.3812 131.837 37.3012 131.837 39.5012V45.2012ZM145.12 45.4012C142.42 45.4012 140.94 44.2612 140.94 41.9612V41.9212H142.34V42.1612C142.34 43.5212 142.9 44.1812 145.14 44.1812C146.98 44.1812 147.46 43.6612 147.46 42.6612C147.46 41.6612 146.84 41.3012 145.34 41.0212L143.7 40.7412C142.1 40.4412 140.94 39.7012 140.94 37.9612C140.94 36.2612 142.38 35.1212 144.72 35.1212C146.98 35.1212 148.64 36.2812 148.64 38.5012V38.6012H147.26V38.4412C147.26 37.2612 146.8 36.3612 144.68 36.3612C142.88 36.3612 142.32 36.9412 142.32 37.9412C142.32 38.9412 142.82 39.2812 144.3 39.5612L145.98 39.8812C147.7 40.2012 148.84 40.9612 148.84 42.6012C148.84 44.3612 147.4 45.4012 145.12 45.4012ZM153.487 45.4012C151.687 45.4012 150.327 44.4812 150.327 42.8212C150.327 41.1012 151.607 40.3412 153.767 40.0412L157.247 39.5612V38.8412C157.247 37.1012 156.507 36.4012 154.647 36.4012C152.847 36.4012 152.007 37.1012 152.007 38.6812V38.9812H150.627V38.8212C150.627 36.7612 152.207 35.1212 154.767 35.1212C157.407 35.1212 158.607 36.8212 158.607 39.0212V45.2012H157.307V43.3812L157.207 43.3612C156.627 44.5012 155.367 45.4012 153.487 45.4012ZM151.727 42.7212C151.727 43.7412 152.367 44.2012 153.887 44.2012C155.587 44.2012 157.247 43.3212 157.247 40.9812V40.6412L153.887 41.1212C152.307 41.3412 151.727 41.6612 151.727 42.7212ZM165.048 45.4212C162.128 45.4212 160.368 43.2812 160.368 40.2812C160.368 37.2612 162.128 35.1212 165.048 35.1212C167.568 35.1212 169.268 36.7412 169.268 39.0612V39.2012H167.848V39.0812C167.848 37.3612 166.928 36.4212 164.988 36.4212C162.728 36.4212 161.788 37.8412 161.788 40.2812C161.788 42.7012 162.728 44.1212 164.988 44.1212C166.928 44.1212 167.848 43.1812 167.848 41.4612V41.3412H169.268V41.4812C169.268 43.8012 167.568 45.4212 165.048 45.4212ZM174.624 45.2212C172.804 45.2212 171.744 44.5012 171.744 42.4012V36.5612H170.084V35.3212H171.764L172.104 32.8012H173.184V35.3212H176.304V36.5612H173.184V42.4812C173.184 43.6412 173.724 43.9012 175.004 43.9012H176.304V45.0612C175.964 45.1212 175.344 45.2212 174.624 45.2212ZM178.983 34.0012H177.563V31.8012H178.983V34.0012ZM178.983 45.2012H177.563V35.2012H178.983V45.2012ZM185.461 45.4012C182.561 45.4012 180.661 43.2612 180.661 40.2612C180.661 37.2612 182.561 35.1212 185.461 35.1212C188.341 35.1212 190.181 37.2612 190.181 40.2612C190.181 43.2612 188.341 45.4012 185.461 45.4012ZM185.461 44.1212C187.841 44.1212 188.781 42.7212 188.781 40.2612C188.781 37.8012 187.841 36.4212 185.461 36.4212C183.041 36.4212 182.081 37.8012 182.081 40.2612C182.081 42.7212 183.041 44.1212 185.461 44.1212ZM193.36 45.2012H191.92V35.3212H193.22V37.3612H193.28C193.66 36.3212 194.78 35.1212 196.82 35.1212C199.36 35.1212 200.52 36.7612 200.52 39.1412V45.2012H199.1V39.4612C199.1 37.3212 198.4 36.3812 196.38 36.3812C194.42 36.3812 193.36 37.3012 193.36 39.5012V45.2012ZM206.643 45.4012C203.943 45.4012 202.463 44.2612 202.463 41.9612V41.9212H203.863V42.1612C203.863 43.5212 204.423 44.1812 206.663 44.1812C208.503 44.1812 208.983 43.6612 208.983 42.6612C208.983 41.6612 208.363 41.3012 206.863 41.0212L205.223 40.7412C203.623 40.4412 202.463 39.7012 202.463 37.9612C202.463 36.2612 203.903 35.1212 206.243 35.1212C208.503 35.1212 210.163 36.2812 210.163 38.5012V38.6012H208.783V38.4412C208.783 37.2612 208.323 36.3612 206.203 36.3612C204.403 36.3612 203.843 36.9412 203.843 37.9412C203.843 38.9412 204.343 39.2812 205.823 39.5612L207.503 39.8812C209.223 40.2012 210.363 40.9612 210.363 42.6012C210.363 44.3612 208.923 45.4012 206.643 45.4012ZM221.202 45.4012C217.482 45.4012 215.862 43.4412 215.862 41.1412V40.8412H217.282V41.0612C217.282 42.9212 218.262 44.0812 221.242 44.0812C223.462 44.0812 224.502 43.3412 224.502 41.8012C224.502 40.3012 223.822 39.7412 221.802 39.3012L219.482 38.7812C217.382 38.3412 215.942 37.3812 215.942 35.2212C215.942 33.2812 217.542 31.6012 220.722 31.6012C224.202 31.6012 225.722 33.7212 225.722 35.9012V36.1612H224.302V35.9412C224.302 34.1012 223.342 32.9212 220.702 32.9212C218.482 32.9212 217.382 33.6612 217.382 35.1212C217.382 36.6412 218.122 37.0812 220.082 37.5412L222.402 38.0812C224.622 38.5812 225.942 39.6212 225.942 41.7212C225.942 43.7612 224.362 45.4012 221.202 45.4012ZM231.519 45.4012C228.939 45.4012 227.739 43.6212 227.739 41.2612V35.3212H229.179V41.0612C229.179 43.2012 230.039 44.1412 231.979 44.1412C233.799 44.1412 235.039 43.1812 235.039 40.8612V35.3212H236.459V45.2012H235.159V43.0212H235.099C234.699 44.1612 233.579 45.4012 231.519 45.4012ZM240.157 45.2012H238.717V35.3212H240.017V37.3612H240.077C240.457 36.3212 241.497 35.1212 243.537 35.1212C245.337 35.1212 246.417 35.9812 246.857 37.3812H246.917C247.317 36.3212 248.337 35.1212 250.377 35.1212C252.917 35.1212 254.077 36.7612 254.077 39.1212V45.2012H252.657V39.4612C252.657 37.3212 251.937 36.3812 249.937 36.3812C248.057 36.3812 247.117 37.3012 247.117 39.5012V45.2012H245.697V39.4612C245.697 37.3212 244.997 36.3812 242.997 36.3812C241.117 36.3812 240.157 37.3012 240.157 39.5012V45.2012ZM257.716 45.2012H256.276V35.3212H257.576V37.3612H257.636C258.016 36.3212 259.056 35.1212 261.096 35.1212C262.896 35.1212 263.976 35.9812 264.416 37.3812H264.476C264.876 36.3212 265.896 35.1212 267.936 35.1212C270.476 35.1212 271.636 36.7612 271.636 39.1212V45.2012H270.216V39.4612C270.216 37.3212 269.496 36.3812 267.496 36.3812C265.616 36.3812 264.676 37.3012 264.676 39.5012V45.2012H263.256V39.4612C263.256 37.3212 262.556 36.3812 260.556 36.3812C258.676 36.3812 257.716 37.3012 257.716 39.5012V45.2012ZM276.495 45.4012C274.695 45.4012 273.335 44.4812 273.335 42.8212C273.335 41.1012 274.615 40.3412 276.775 40.0412L280.255 39.5612V38.8412C280.255 37.1012 279.515 36.4012 277.655 36.4012C275.855 36.4012 275.015 37.1012 275.015 38.6812V38.9812H273.635V38.8212C273.635 36.7612 275.215 35.1212 277.775 35.1212C280.415 35.1212 281.615 36.8212 281.615 39.0212V45.2012H280.315V43.3812L280.215 43.3612C279.635 44.5012 278.375 45.4012 276.495 45.4012ZM274.735 42.7212C274.735 43.7412 275.375 44.2012 276.895 44.2012C278.595 44.2012 280.255 43.3212 280.255 40.9812V40.6412L276.895 41.1212C275.315 41.3412 274.735 41.6612 274.735 42.7212ZM285.255 45.2012H283.815V35.2012H285.115V36.8612H285.215C285.535 35.9412 286.495 35.1212 287.955 35.1212C289.995 35.1212 290.775 36.5812 290.775 38.2812V38.8412H289.335V38.5012C289.335 36.9612 288.855 36.3612 287.435 36.3612C285.895 36.3612 285.255 37.0612 285.255 38.6612V45.2012ZM293.574 48.6012C293.094 48.6012 292.574 48.5212 292.294 48.4612V47.3012H293.414C294.314 47.3012 294.614 47.1212 294.974 46.3412L295.534 45.0612L291.294 35.3212H292.854L295.174 40.8212L296.214 43.2412H296.334L297.314 40.8212L299.494 35.3212H301.054L296.234 46.7812C295.594 48.2812 294.654 48.6012 293.574 48.6012Z" fill="black"/>
<path d="M104.219 65.5569C102.108 65.5569 101.189 64.4445 101.189 63.1393V62.969H101.995V63.0939C101.995 64.1494 102.551 64.8078 104.242 64.8078C105.502 64.8078 106.092 64.3878 106.092 63.5138C106.092 62.6626 105.706 62.3448 104.56 62.0951L103.243 61.8C102.051 61.5503 101.234 61.0054 101.234 59.7796C101.234 58.6787 102.142 57.7253 103.947 57.7253C105.922 57.7253 106.784 58.9284 106.784 60.1655V60.3131H105.979V60.1882C105.979 59.144 105.434 58.4744 103.936 58.4744C102.676 58.4744 102.051 58.8943 102.051 59.7229C102.051 60.5855 102.471 60.8352 103.584 61.0962L104.9 61.4027C106.16 61.6865 106.909 62.2767 106.909 63.4684C106.909 64.6261 106.013 65.5569 104.219 65.5569ZM110.848 65.5569C109.123 65.5569 108.226 64.3424 108.226 62.6399C108.226 60.9373 109.236 59.7229 110.837 59.7229C112.188 59.7229 113.3 60.5401 113.3 62.1972C113.3 62.4583 113.277 62.708 113.243 62.8669H108.998C109.032 64.104 109.52 64.8305 110.86 64.8305C111.995 64.8305 112.449 64.3197 112.449 63.6387V63.5706H113.254V63.65C113.254 64.7283 112.278 65.5569 110.848 65.5569ZM110.814 60.4266C109.566 60.4266 109.066 61.1416 108.998 62.2767H112.528C112.573 60.9487 111.915 60.4266 110.814 60.4266ZM117.209 65.5569C115.631 65.5569 114.746 64.4105 114.746 62.6399C114.746 60.8692 115.586 59.7229 117.118 59.7229C118.196 59.7229 118.889 60.2904 119.127 60.9033V57.8388H119.944V65.4434H119.218V64.3651H119.173C118.923 65.0688 118.265 65.5569 117.209 65.5569ZM115.563 62.6399C115.563 64.3537 116.233 64.8532 117.345 64.8532C118.457 64.8532 119.127 64.2743 119.127 63.1279V62.1632C119.127 61.0054 118.457 60.4266 117.345 60.4266C116.244 60.4266 115.563 60.926 115.563 62.6399ZM126.554 65.5569C125.09 65.5569 124.409 64.5467 124.409 63.2074V59.8364H125.226V63.0939C125.226 64.3083 125.715 64.8418 126.815 64.8418C127.848 64.8418 128.552 64.297 128.552 62.9804V59.8364H129.358V65.4434H128.62V64.2062H128.586C128.359 64.8532 127.723 65.5569 126.554 65.5569ZM133.218 65.4547C132.185 65.4547 131.584 65.0461 131.584 63.8543V60.5401H130.641V59.8364H131.595L131.788 58.4063H132.401V59.8364H134.171V60.5401H132.401V63.8997C132.401 64.558 132.707 64.7056 133.434 64.7056H134.171V65.3639C133.978 65.398 133.627 65.4547 133.218 65.4547ZM139.034 67.4183H138.216V59.8364H138.954V60.926H138.988C139.238 60.2109 139.908 59.7229 140.963 59.7229C142.541 59.7229 143.415 60.8692 143.415 62.6512C143.415 64.4105 142.586 65.5569 141.054 65.5569C139.976 65.5569 139.283 64.9894 139.034 64.3764V67.4183ZM139.034 63.1279C139.034 64.2743 139.715 64.8532 140.827 64.8532C141.917 64.8532 142.598 64.3537 142.598 62.6512C142.598 60.926 141.928 60.4266 140.827 60.4266C139.715 60.4266 139.034 61.0054 139.034 62.1632V63.1279ZM147.419 65.5569C145.694 65.5569 144.797 64.3424 144.797 62.6399C144.797 60.9373 145.807 59.7229 147.408 59.7229C148.759 59.7229 149.871 60.5401 149.871 62.1972C149.871 62.4583 149.848 62.708 149.814 62.8669H145.569C145.603 64.104 146.091 64.8305 147.431 64.8305C148.566 64.8305 149.02 64.3197 149.02 63.6387V63.5706H149.825V63.65C149.825 64.7283 148.849 65.5569 147.419 65.5569ZM147.385 60.4266C146.137 60.4266 145.637 61.1416 145.569 62.2767H149.099C149.144 60.9487 148.486 60.4266 147.385 60.4266ZM152.306 65.4434H151.489V59.7683H152.226V60.7103H152.283C152.465 60.1882 153.01 59.7229 153.838 59.7229C154.996 59.7229 155.438 60.5514 155.438 61.5162V61.834H154.621V61.6411C154.621 60.7671 154.349 60.4266 153.543 60.4266C152.669 60.4266 152.306 60.8238 152.306 61.7319V65.4434ZM159.203 65.5569C157.671 65.5569 156.831 64.9099 156.831 63.6046V63.5819H157.625V63.7181C157.625 64.4899 157.943 64.8645 159.214 64.8645C160.259 64.8645 160.531 64.5694 160.531 64.0019C160.531 63.4344 160.179 63.2301 159.328 63.0712L158.397 62.9123C157.489 62.742 156.831 62.3221 156.831 61.3346C156.831 60.3698 157.648 59.7229 158.976 59.7229C160.259 59.7229 161.201 60.3812 161.201 61.6411V61.6978H160.418V61.607C160.418 60.9373 160.157 60.4266 158.953 60.4266C157.932 60.4266 157.614 60.7557 157.614 61.3233C157.614 61.8908 157.898 62.0837 158.738 62.2426L159.691 62.4242C160.667 62.6058 161.314 63.0371 161.314 63.9678C161.314 64.9667 160.497 65.5569 159.203 65.5569ZM163.782 67.4183H162.965V59.8364H163.703V60.926H163.737C163.987 60.2109 164.656 59.7229 165.712 59.7229C167.29 59.7229 168.163 60.8692 168.163 62.6512C168.163 64.4105 167.335 65.5569 165.803 65.5569C164.724 65.5569 164.032 64.9894 163.782 64.3764V67.4183ZM163.782 63.1279C163.782 64.2743 164.463 64.8532 165.576 64.8532C166.665 64.8532 167.346 64.3537 167.346 62.6512C167.346 60.926 166.677 60.4266 165.576 60.4266C164.463 60.4266 163.782 61.0054 163.782 62.1632V63.1279ZM170.489 59.0873H169.684V57.8388H170.489V59.0873ZM170.489 65.4434H169.684V59.7683H170.489V65.4434ZM174.665 65.5682C173.008 65.5682 172.009 64.3537 172.009 62.6512C172.009 60.9373 173.008 59.7229 174.665 59.7229C176.095 59.7229 177.06 60.6422 177.06 61.9589V62.0383H176.254V61.9702C176.254 60.9941 175.732 60.4606 174.631 60.4606C173.348 60.4606 172.815 61.2665 172.815 62.6512C172.815 64.0246 173.348 64.8305 174.631 64.8305C175.732 64.8305 176.254 64.297 176.254 63.3209V63.2528H177.06V63.3322C177.06 64.6488 176.095 65.5682 174.665 65.5682ZM179.394 59.0873H178.589V57.8388H179.394V59.0873ZM179.394 65.4434H178.589V59.7683H179.394V65.4434ZM182.729 65.5569C181.707 65.5569 180.935 65.0348 180.935 64.0927C180.935 63.1166 181.662 62.6853 182.887 62.515L184.862 62.2426V61.834C184.862 60.8465 184.442 60.4493 183.387 60.4493C182.365 60.4493 181.889 60.8465 181.889 61.7432V61.9135H181.105V61.8227C181.105 60.6536 182.002 59.7229 183.455 59.7229C184.953 59.7229 185.634 60.6876 185.634 61.9362V65.4434H184.896V64.4105L184.84 64.3991C184.511 65.0461 183.795 65.5569 182.729 65.5569ZM181.73 64.0359C181.73 64.6148 182.093 64.8759 182.956 64.8759C183.92 64.8759 184.862 64.3764 184.862 63.0485V62.8555L182.956 63.1279C182.059 63.2528 181.73 63.4344 181.73 64.0359ZM189.461 65.4547C188.428 65.4547 187.827 65.0461 187.827 63.8543V60.5401H186.885V59.8364H187.838L188.031 58.4063H188.644V59.8364H190.414V60.5401H188.644V63.8997C188.644 64.558 188.95 64.7056 189.677 64.7056H190.414V65.3639C190.222 65.398 189.87 65.4547 189.461 65.4547ZM192.502 59.0873H191.697V57.8388H192.502V59.0873ZM192.502 65.4434H191.697V59.7683H192.502V65.4434ZM196.541 65.5569C195.009 65.5569 194.169 64.9099 194.169 63.6046V63.5819H194.964V63.7181C194.964 64.4899 195.281 64.8645 196.553 64.8645C197.597 64.8645 197.869 64.5694 197.869 64.0019C197.869 63.4344 197.517 63.2301 196.666 63.0712L195.735 62.9123C194.827 62.742 194.169 62.3221 194.169 61.3346C194.169 60.3698 194.986 59.7229 196.314 59.7229C197.597 59.7229 198.539 60.3812 198.539 61.6411V61.6978H197.756V61.607C197.756 60.9373 197.495 60.4266 196.291 60.4266C195.27 60.4266 194.952 60.7557 194.952 61.3233C194.952 61.8908 195.236 62.0837 196.076 62.2426L197.029 62.4242C198.005 62.6058 198.652 63.0371 198.652 63.9678C198.652 64.9667 197.835 65.5569 196.541 65.5569ZM205.11 65.5569C203.646 65.5569 202.965 64.5467 202.965 63.2074V59.8364H203.782V63.0939C203.782 64.3083 204.27 64.8418 205.371 64.8418C206.404 64.8418 207.108 64.297 207.108 62.9804V59.8364H207.913V65.4434H207.176V64.2062H207.142C206.915 64.8532 206.279 65.5569 205.11 65.5569ZM210.58 65.4434H209.762V59.8364H210.5V60.9941H210.534C210.75 60.4039 211.385 59.7229 212.543 59.7229C213.985 59.7229 214.643 60.6536 214.643 62.0043V65.4434H213.837V62.1859C213.837 60.9714 213.44 60.4379 212.293 60.4379C211.181 60.4379 210.58 60.96 210.58 62.2086V65.4434ZM218.662 65.5569C217.084 65.5569 216.199 64.4105 216.199 62.6399C216.199 60.8692 217.039 59.7229 218.571 59.7229C219.65 59.7229 220.342 60.2904 220.58 60.9033V57.8388H221.397V65.4434H220.671V64.3651H220.626C220.376 65.0688 219.718 65.5569 218.662 65.5569ZM217.016 62.6399C217.016 64.3537 217.686 64.8532 218.798 64.8532C219.911 64.8532 220.58 64.2743 220.58 63.1279V62.1632C220.58 61.0054 219.911 60.4266 218.798 60.4266C217.697 60.4266 217.016 60.926 217.016 62.6399ZM225.585 65.5569C223.859 65.5569 222.963 64.3424 222.963 62.6399C222.963 60.9373 223.973 59.7229 225.573 59.7229C226.924 59.7229 228.036 60.5401 228.036 62.1972C228.036 62.4583 228.013 62.708 227.979 62.8669H223.734C223.769 64.104 224.257 64.8305 225.596 64.8305C226.731 64.8305 227.185 64.3197 227.185 63.6387V63.5706H227.991V63.65C227.991 64.7283 227.015 65.5569 225.585 65.5569ZM225.55 60.4266C224.302 60.4266 223.803 61.1416 223.734 62.2767H227.264C227.31 60.9487 226.651 60.4266 225.55 60.4266ZM234.869 65.5569C233.223 65.5569 232.145 64.3424 232.145 62.6399C232.145 60.9373 233.223 59.7229 234.869 59.7229C236.503 59.7229 237.547 60.9373 237.547 62.6399C237.547 64.3424 236.503 65.5569 234.869 65.5569ZM234.869 64.8305C236.219 64.8305 236.753 64.0359 236.753 62.6399C236.753 61.2438 236.219 60.4606 234.869 60.4606C233.495 60.4606 232.951 61.2438 232.951 62.6399C232.951 64.0359 233.495 64.8305 234.869 64.8305ZM239.919 65.4434H239.102V59.8364H239.84V60.9941H239.874C240.09 60.4039 240.68 59.7229 241.837 59.7229C242.859 59.7229 243.472 60.2109 243.722 61.0054H243.756C243.983 60.4039 244.561 59.7229 245.719 59.7229C247.161 59.7229 247.819 60.6536 247.819 61.9929V65.4434H247.013V62.1859C247.013 60.9714 246.605 60.4379 245.469 60.4379C244.403 60.4379 243.869 60.96 243.869 62.2086V65.4434H243.063V62.1859C243.063 60.9714 242.666 60.4379 241.531 60.4379C240.464 60.4379 239.919 60.96 239.919 62.2086V65.4434ZM250.451 65.4434H249.634V59.8364H250.372V60.9941H250.406C250.622 60.4039 251.257 59.7229 252.415 59.7229C253.856 59.7229 254.515 60.6536 254.515 62.0043V65.4434H253.709V62.1859C253.709 60.9714 253.312 60.4379 252.165 60.4379C251.053 60.4379 250.451 60.96 250.451 62.2086V65.4434ZM257.092 59.0873H256.286V57.8388H257.092V59.0873ZM257.092 65.4434H256.286V59.7683H257.092V65.4434ZM261.131 65.5569C259.598 65.5569 258.758 64.9099 258.758 63.6046V63.5819H259.553V63.7181C259.553 64.4899 259.871 64.8645 261.142 64.8645C262.186 64.8645 262.459 64.5694 262.459 64.0019C262.459 63.4344 262.107 63.2301 261.256 63.0712L260.325 62.9123C259.417 62.742 258.758 62.3221 258.758 61.3346C258.758 60.3698 259.576 59.7229 260.904 59.7229C262.186 59.7229 263.128 60.3812 263.128 61.6411V61.6978H262.345V61.607C262.345 60.9373 262.084 60.4266 260.881 60.4266C259.859 60.4266 259.542 60.7557 259.542 61.3233C259.542 61.8908 259.825 62.0837 260.665 62.2426L261.619 62.4242C262.595 62.6058 263.242 63.0371 263.242 63.9678C263.242 64.9667 262.425 65.5569 261.131 65.5569ZM268.36 59.0873H267.554V57.8388H268.36V59.0873ZM268.36 65.4434H267.554V59.7683H268.36V65.4434ZM272.399 65.5569C270.867 65.5569 270.027 64.9099 270.027 63.6046V63.5819H270.821V63.7181C270.821 64.4899 271.139 64.8645 272.41 64.8645C273.454 64.8645 273.727 64.5694 273.727 64.0019C273.727 63.4344 273.375 63.2301 272.524 63.0712L271.593 62.9123C270.685 62.742 270.027 62.3221 270.027 61.3346C270.027 60.3698 270.844 59.7229 272.172 59.7229C273.454 59.7229 274.396 60.3812 274.396 61.6411V61.6978H273.613V61.607C273.613 60.9373 273.352 60.4266 272.149 60.4266C271.128 60.4266 270.81 60.7557 270.81 61.3233C270.81 61.8908 271.094 62.0837 271.933 62.2426L272.887 62.4242C273.863 62.6058 274.51 63.0371 274.51 63.9678C274.51 64.9667 273.693 65.5569 272.399 65.5569ZM278.227 65.4547C277.194 65.4547 276.593 65.0461 276.593 63.8543V60.5401H275.651V59.8364H276.604L276.797 58.4063H277.41V59.8364H279.181V60.5401H277.41V63.8997C277.41 64.558 277.717 64.7056 278.443 64.7056H279.181V65.3639C278.988 65.398 278.636 65.4547 278.227 65.4547ZM282.703 65.5569C280.978 65.5569 280.081 64.3424 280.081 62.6399C280.081 60.9373 281.092 59.7229 282.692 59.7229C284.043 59.7229 285.155 60.5401 285.155 62.1972C285.155 62.4583 285.132 62.708 285.098 62.8669H280.853C280.887 64.104 281.375 64.8305 282.715 64.8305C283.85 64.8305 284.304 64.3197 284.304 63.6387V63.5706H285.11V63.65C285.11 64.7283 284.133 65.5569 282.703 65.5569ZM282.669 60.4266C281.421 60.4266 280.921 61.1416 280.853 62.2767H284.383C284.429 60.9487 283.77 60.4266 282.669 60.4266ZM290.308 65.4434H289.491V59.8364H290.228V60.9941H290.262C290.478 60.4039 291.114 59.7229 292.271 59.7229C293.713 59.7229 294.371 60.6536 294.371 62.0043V65.4434H293.565V62.1859C293.565 60.9714 293.168 60.4379 292.022 60.4379C290.909 60.4379 290.308 60.96 290.308 62.2086V65.4434ZM297.687 65.5569C296.665 65.5569 295.893 65.0348 295.893 64.0927C295.893 63.1166 296.62 62.6853 297.846 62.515L299.82 62.2426V61.834C299.82 60.8465 299.4 60.4493 298.345 60.4493C297.323 60.4493 296.847 60.8465 296.847 61.7432V61.9135H296.064V61.8227C296.064 60.6536 296.96 59.7229 298.413 59.7229C299.911 59.7229 300.592 60.6876 300.592 61.9362V65.4434H299.854V64.4105L299.798 64.3991C299.469 65.0461 298.754 65.5569 297.687 65.5569ZM296.688 64.0359C296.688 64.6148 297.051 64.8759 297.914 64.8759C298.878 64.8759 299.82 64.3764 299.82 63.0485V62.8555L297.914 63.1279C297.017 63.2528 296.688 63.4344 296.688 64.0359ZM304.419 65.4547C303.386 65.4547 302.785 65.0461 302.785 63.8543V60.5401H301.843V59.8364H302.796L302.989 58.4063H303.602V59.8364H305.373V60.5401H303.602V63.8997C303.602 64.558 303.908 64.7056 304.635 64.7056H305.373V65.3639C305.18 65.398 304.828 65.4547 304.419 65.4547ZM308.866 65.5569C307.402 65.5569 306.721 64.5467 306.721 63.2074V59.8364H307.538V63.0939C307.538 64.3083 308.026 64.8418 309.127 64.8418C310.16 64.8418 310.864 64.297 310.864 62.9804V59.8364H311.67V65.4434H310.932V64.2062H310.898C310.671 64.8532 310.035 65.5569 308.866 65.5569ZM315.756 65.5569C314.223 65.5569 313.383 64.9099 313.383 63.6046V63.5819H314.178V63.7181C314.178 64.4899 314.496 64.8645 315.767 64.8645C316.811 64.8645 317.083 64.5694 317.083 64.0019C317.083 63.4344 316.732 63.2301 315.88 63.0712L314.95 62.9123C314.042 62.742 313.383 62.3221 313.383 61.3346C313.383 60.3698 314.201 59.7229 315.529 59.7229C316.811 59.7229 317.753 60.3812 317.753 61.6411V61.6978H316.97V61.607C316.97 60.9373 316.709 60.4266 315.506 60.4266C314.484 60.4266 314.167 60.7557 314.167 61.3233C314.167 61.8908 314.45 62.0837 315.29 62.2426L316.244 62.4242C317.22 62.6058 317.867 63.0371 317.867 63.9678C317.867 64.9667 317.049 65.5569 315.756 65.5569ZM320.266 65.4434H319.267V63.8657H320.266V65.4434Z" fill="#989999"/>
<g clip-path="url(#clip0_388_1358)">
<rect x="48.3218" y="159.576" width="35.6719" height="66.4795" rx="9.72871" fill="#D8E3F9"/>
<rect x="48.3218" y="185.52" width="35.6719" height="40.5363" rx="9.72871" fill="url(#paint0_linear_388_1358)"/>
</g>
<rect x="47.9975" y="159.252" width="36.3205" height="67.1281" rx="10.053" stroke="url(#paint1_linear_388_1358)" stroke-width="0.64858"/>
<path d="M59.4723 246.899C57.5541 246.899 56.7937 245.73 56.7937 244.22V243.755H57.6449V244.299C57.6449 245.503 58.0195 246.115 59.4496 246.115C60.8797 246.115 61.2543 245.503 61.2543 244.299V239.181H62.1056V244.22C62.1056 245.73 61.3451 246.899 59.4723 246.899ZM65.4992 246.899C64.4776 246.899 63.7058 246.377 63.7058 245.434C63.7058 244.458 64.4322 244.027 65.6581 243.857L67.633 243.584V243.176C67.633 242.188 67.213 241.791 66.1575 241.791C65.136 241.791 64.6593 242.188 64.6593 243.085V243.255H63.8761V243.164C63.8761 241.995 64.7728 241.065 66.2256 241.065C67.7238 241.065 68.4048 242.029 68.4048 243.278V246.785H67.667V245.752L67.6103 245.741C67.2811 246.388 66.5661 246.899 65.4992 246.899ZM64.5004 245.378C64.5004 245.957 64.8636 246.218 65.7262 246.218C66.6909 246.218 67.633 245.718 67.633 244.39V244.197L65.7262 244.47C64.8295 244.595 64.5004 244.776 64.5004 245.378ZM71.0378 246.785H70.2206V241.178H70.9583V242.336H70.9924C71.208 241.746 71.8436 241.065 73.0014 241.065C74.4428 241.065 75.1011 241.995 75.1011 243.346V246.785H74.2953V243.528C74.2953 242.313 73.898 241.78 72.7516 241.78C71.6393 241.78 71.0378 242.302 71.0378 243.55V246.785Z" fill="#575757"/>
<g clip-path="url(#clip1_388_1358)">
<rect x="98.5868" y="125.525" width="35.6719" height="100.53" rx="9.72871" fill="#D8E3F9"/>
<rect x="98.5868" y="167.682" width="35.6719" height="58.3722" rx="9.72871" fill="url(#paint2_linear_388_1358)"/>
</g>
<rect x="98.2625" y="125.201" width="36.3205" height="101.179" rx="10.053" stroke="url(#paint3_linear_388_1358)" stroke-width="0.64858"/>
<path d="M108.287 246.783H107.481V239.179H112.566V239.916H108.287V242.811H112.396V243.56H108.287V246.783ZM116.394 246.897C114.669 246.897 113.772 245.682 113.772 243.98C113.772 242.277 114.782 241.063 116.383 241.063C117.733 241.063 118.846 241.88 118.846 243.537C118.846 243.798 118.823 244.048 118.789 244.207H114.544C114.578 245.444 115.066 246.17 116.405 246.17C117.54 246.17 117.994 245.66 117.994 244.979V244.91H118.8V244.99C118.8 246.068 117.824 246.897 116.394 246.897ZM116.36 241.766C115.111 241.766 114.612 242.481 114.544 243.617H118.074C118.119 242.289 117.461 241.766 116.36 241.766ZM121.212 246.783H120.474V239.179H121.292V242.243C121.541 241.63 122.234 241.063 123.312 241.063C124.844 241.063 125.673 242.209 125.673 243.98C125.673 245.75 124.799 246.897 123.221 246.897C122.166 246.897 121.496 246.409 121.246 245.705H121.212V246.783ZM121.292 244.468C121.292 245.614 121.973 246.193 123.085 246.193C124.186 246.193 124.856 245.694 124.856 243.98C124.856 242.266 124.175 241.766 123.085 241.766C121.973 241.766 121.292 242.345 121.292 243.503V244.468Z" fill="#575757"/>
<g clip-path="url(#clip2_388_1358)">
<rect x="148.852" y="103.637" width="35.6719" height="122.42" rx="9.72871" fill="#D8E3F9"/>
<rect x="148.852" y="146.604" width="35.6719" height="79.4511" rx="9.72871" fill="url(#paint4_linear_388_1358)"/>
</g>
<rect x="148.528" y="103.312" width="36.3205" height="123.068" rx="10.053" stroke="url(#paint5_linear_388_1358)" stroke-width="0.64858"/>
<path d="M157.649 246.785H156.843V239.181H157.978L160.135 243.902L160.816 245.548H160.884L161.565 243.902L163.698 239.181H164.845V246.785H164.028V241.519L164.062 240.418H163.994L163.528 241.519L161.326 246.331H160.35L158.148 241.519L157.683 240.418H157.615L157.649 241.519V246.785ZM168.285 246.899C167.263 246.899 166.491 246.377 166.491 245.434C166.491 244.458 167.218 244.027 168.444 243.857L170.419 243.584V243.176C170.419 242.188 169.999 241.791 168.943 241.791C167.922 241.791 167.445 242.188 167.445 243.085V243.255H166.662V243.164C166.662 241.995 167.558 241.065 169.011 241.065C170.509 241.065 171.19 242.029 171.19 243.278V246.785H170.453V245.752L170.396 245.741C170.067 246.388 169.352 246.899 168.285 246.899ZM167.286 245.378C167.286 245.957 167.649 246.218 168.512 246.218C169.477 246.218 170.419 245.718 170.419 244.39V244.197L168.512 244.47C167.615 244.595 167.286 244.776 167.286 245.378ZM173.823 246.785H173.006V241.11H173.744V242.052H173.801C173.982 241.53 174.527 241.065 175.356 241.065C176.513 241.065 176.956 241.893 176.956 242.858V243.176H176.139V242.983C176.139 242.109 175.866 241.768 175.061 241.768C174.187 241.768 173.823 242.166 173.823 243.074V246.785Z" fill="#575757"/>
<g clip-path="url(#clip3_388_1358)">
<rect x="199.117" y="153.09" width="35.6719" height="72.9653" rx="9.72871" fill="#D8E3F9"/>
<rect x="199.117" y="190.383" width="35.6719" height="35.6719" rx="9.72871" fill="url(#paint6_linear_388_1358)"/>
</g>
<rect x="198.792" y="152.766" width="36.3205" height="73.6139" rx="10.053" stroke="url(#paint7_linear_388_1358)" stroke-width="0.64858"/>
<path d="M208.107 246.783H207.256L210.331 239.179H211.489L214.565 246.783H213.691L212.772 244.559H209.015L208.107 246.783ZM210.422 241.108L209.31 243.821H212.465L211.353 241.108L210.922 239.95H210.865L210.422 241.108ZM216.632 248.758H215.815V241.176H216.553V242.266H216.587C216.836 241.551 217.506 241.063 218.562 241.063C220.139 241.063 221.013 242.209 221.013 243.991C221.013 245.75 220.185 246.897 218.652 246.897C217.574 246.897 216.882 246.329 216.632 245.716V248.758ZM216.632 244.468C216.632 245.614 217.313 246.193 218.425 246.193C219.515 246.193 220.196 245.694 220.196 243.991C220.196 242.266 219.526 241.766 218.425 241.766C217.313 241.766 216.632 242.345 216.632 243.503V244.468ZM223.384 246.783H222.567V241.108H223.305V242.05H223.362C223.543 241.528 224.088 241.063 224.917 241.063C226.074 241.063 226.517 241.891 226.517 242.856V243.174H225.7V242.981C225.7 242.107 225.428 241.766 224.622 241.766C223.748 241.766 223.384 242.164 223.384 243.072V246.783Z" fill="#575757"/>
<g clip-path="url(#clip4_388_1358)">
<rect x="249.382" y="95.5293" width="35.6719" height="130.527" rx="9.72871" fill="#DCC9F7"/>
<rect x="249.22" y="105.537" width="35.9247" height="120.21" rx="9.72871" fill="url(#paint8_linear_388_1358)"/>
</g>
<path d="M257.874 246.785H257.068V239.181H258.203L260.36 243.902L261.041 245.548H261.109L261.79 243.902L263.924 239.181H265.07V246.785H264.253V241.519L264.287 240.418H264.219L263.753 241.519L261.551 246.331H260.575L258.373 241.519L257.908 240.418H257.84L257.874 241.519V246.785ZM268.51 246.899C267.488 246.899 266.717 246.377 266.717 245.434C266.717 244.458 267.443 244.027 268.669 243.857L270.644 243.584V243.176C270.644 242.188 270.224 241.791 269.168 241.791C268.147 241.791 267.67 242.188 267.67 243.085V243.255H266.887V243.164C266.887 241.995 267.783 241.065 269.236 241.065C270.735 241.065 271.416 242.029 271.416 243.278V246.785H270.678V245.752L270.621 245.741C270.292 246.388 269.577 246.899 268.51 246.899ZM267.511 245.378C267.511 245.957 267.874 246.218 268.737 246.218C269.702 246.218 270.644 245.718 270.644 244.39V244.197L268.737 244.47C267.84 244.595 267.511 244.776 267.511 245.378ZM273.726 248.715C273.454 248.715 273.159 248.669 273 248.635V247.977H273.635C274.146 247.977 274.316 247.875 274.521 247.432L274.839 246.706L272.432 241.178H273.318L274.634 244.299L275.225 245.673H275.293L275.849 244.299L277.086 241.178H277.971L275.236 247.682C274.873 248.533 274.339 248.715 273.726 248.715Z" fill="#575757"/>
<g clip-path="url(#clip5_388_1358)">
<rect x="299.647" y="129.58" width="35.6719" height="96.4763" rx="9.72871" fill="#D8E3F9"/>
<rect x="299.647" y="159.578" width="35.6719" height="66.4795" rx="9.72871" fill="url(#paint9_linear_388_1358)"/>
</g>
<rect x="299.322" y="129.256" width="36.3205" height="97.1249" rx="10.053" stroke="url(#paint10_linear_388_1358)" stroke-width="0.64858"/>
<path d="M310.526 246.899C308.608 246.899 307.847 245.73 307.847 244.22V243.755H308.698V244.299C308.698 245.503 309.073 246.115 310.503 246.115C311.933 246.115 312.308 245.503 312.308 244.299V239.181H313.159V244.22C313.159 245.73 312.398 246.899 310.526 246.899ZM317.165 246.899C315.7 246.899 315.019 245.888 315.019 244.549V241.178H315.837V244.436C315.837 245.65 316.325 246.184 317.426 246.184C318.459 246.184 319.162 245.639 319.162 244.322V241.178H319.968V246.785H319.23V245.548H319.196C318.969 246.195 318.334 246.899 317.165 246.899ZM322.634 246.785H321.817V241.178H322.555V242.336H322.589C322.805 241.746 323.44 241.065 324.598 241.065C326.039 241.065 326.698 241.995 326.698 243.346V246.785H325.892V243.528C325.892 242.313 325.495 241.78 324.348 241.78C323.236 241.78 322.634 242.302 322.634 243.55V246.785Z" fill="#575757"/>
<g clip-path="url(#clip6_388_1358)">
<rect x="349.912" y="183.898" width="35.6719" height="42.1577" rx="9.72871" fill="#D8E3F9"/>
<rect x="349.912" y="204.977" width="35.6719" height="21.0789" rx="9.72871" fill="url(#paint11_linear_388_1358)"/>
</g>
<rect x="349.587" y="183.574" width="36.3205" height="42.8063" rx="10.053" stroke="url(#paint12_linear_388_1358)" stroke-width="0.64858"/>
<path d="M362.808 246.899C360.89 246.899 360.129 245.73 360.129 244.22V243.755H360.981V244.299C360.981 245.503 361.355 246.115 362.785 246.115C364.215 246.115 364.59 245.503 364.59 244.299V239.181H365.441V244.22C365.441 245.73 364.681 246.899 362.808 246.899ZM369.447 246.899C367.983 246.899 367.302 245.888 367.302 244.549V241.178H368.119V244.436C368.119 245.65 368.607 246.184 369.708 246.184C370.741 246.184 371.445 245.639 371.445 244.322V241.178H372.25V246.785H371.513V245.548H371.479C371.252 246.195 370.616 246.899 369.447 246.899ZM374.917 246.785H374.099V239.181H374.917V246.785Z" fill="#575757"/>
<g clip-path="url(#clip7_388_1358)">
<rect x="400.177" y="95.5293" width="35.6719" height="130.527" rx="9.72871" fill="#DCC9F7"/>
<rect x="399.828" y="105.537" width="35.9247" height="120.21" rx="9.72871" fill="url(#paint13_linear_388_1358)"/>
</g>
<path d="M408.491 246.785H407.639L410.715 239.181H411.873L414.949 246.785H414.075L413.156 244.561H409.399L408.491 246.785ZM410.806 241.11L409.694 243.823H412.849L411.737 241.11L411.305 239.952H411.249L410.806 241.11ZM418.31 246.899C416.846 246.899 416.165 245.888 416.165 244.549V241.178H416.982V244.436C416.982 245.65 417.47 246.184 418.571 246.184C419.604 246.184 420.307 245.639 420.307 244.322V241.178H421.113V246.785H420.375V245.548H420.341C420.114 246.195 419.479 246.899 418.31 246.899ZM425.142 246.286C423.598 246.286 422.713 245.264 422.713 243.675C422.713 242.086 423.587 241.065 425.153 241.065C426.141 241.065 426.89 241.553 427.14 242.268H427.185V241.178H427.911V246.547C427.911 248.068 426.935 248.828 425.46 248.828C424.03 248.828 423.019 248.079 423.019 246.785H423.825C423.825 247.705 424.291 248.102 425.471 248.102C426.674 248.102 427.094 247.67 427.094 246.547V245.117H427.083C426.822 245.764 426.118 246.286 425.142 246.286ZM423.53 243.675C423.53 245.162 424.245 245.582 425.335 245.582C426.345 245.582 427.094 245.003 427.094 243.845V243.505C427.094 242.347 426.334 241.768 425.289 241.768C424.223 241.768 423.53 242.2 423.53 243.675Z" fill="#575757"/>
<g clip-path="url(#clip8_388_1358)">
<rect x="450.442" y="103.637" width="35.6719" height="122.42" rx="9.72871" fill="#D8E3F9"/>
<rect x="450.442" y="146.604" width="35.6719" height="79.4511" rx="9.72871" fill="url(#paint14_linear_388_1358)"/>
</g>
<rect x="450.117" y="103.312" width="36.3205" height="123.068" rx="10.053" stroke="url(#paint15_linear_388_1358)" stroke-width="0.64858"/>
<path d="M461.914 246.899C459.803 246.899 458.883 245.786 458.883 244.481V244.311H459.689V244.436C459.689 245.491 460.245 246.15 461.936 246.15C463.196 246.15 463.787 245.73 463.787 244.856C463.787 244.004 463.401 243.687 462.254 243.437L460.938 243.142C459.746 242.892 458.929 242.347 458.929 241.121C458.929 240.02 459.837 239.067 461.641 239.067C463.616 239.067 464.479 240.27 464.479 241.507V241.655H463.673V241.53C463.673 240.486 463.128 239.816 461.63 239.816C460.37 239.816 459.746 240.236 459.746 241.065C459.746 241.927 460.166 242.177 461.278 242.438L462.595 242.744C463.855 243.028 464.604 243.618 464.604 244.81C464.604 245.968 463.707 246.899 461.914 246.899ZM468.543 246.899C466.817 246.899 465.921 245.684 465.921 243.982C465.921 242.279 466.931 241.065 468.531 241.065C469.882 241.065 470.994 241.882 470.994 243.539C470.994 243.8 470.972 244.05 470.937 244.209H466.693C466.727 245.446 467.215 246.172 468.554 246.172C469.689 246.172 470.143 245.661 470.143 244.98V244.912H470.949V244.992C470.949 246.07 469.973 246.899 468.543 246.899ZM468.509 241.768C467.26 241.768 466.761 242.483 466.693 243.618H470.222C470.268 242.29 469.61 241.768 468.509 241.768ZM473.429 248.76H472.612V241.178H473.35V242.268H473.384C473.634 241.553 474.303 241.065 475.359 241.065C476.936 241.065 477.81 242.211 477.81 243.993C477.81 245.752 476.982 246.899 475.45 246.899C474.371 246.899 473.679 246.331 473.429 245.718V248.76ZM473.429 244.47C473.429 245.616 474.11 246.195 475.223 246.195C476.312 246.195 476.993 245.696 476.993 243.993C476.993 242.268 476.324 241.768 475.223 241.768C474.11 241.768 473.429 242.347 473.429 243.505V244.47Z" fill="#575757"/>
<g filter="url(#filter2_d_388_1358)">
<rect x="156.148" y="95.748" width="85.2934" height="39.4574" rx="11.3502" fill="#F3F8F6" shape-rendering="crispEdges"/>
<rect x="156.554" y="96.1534" width="84.4827" height="38.6467" rx="10.9448" stroke="#F8FDFB" stroke-width="0.810726" shape-rendering="crispEdges"/>
<circle cx="168.309" cy="107.235" r="2.43218" fill="#DBC8F6"/>
<path d="M179.838 110.234H178.995L177.601 104.803H178.249L179.166 108.362L179.425 109.651H179.474L179.822 108.362L180.949 104.803H181.744L182.862 108.362L183.219 109.651H183.26L183.527 108.362L184.443 104.803H185.084L183.681 110.234H182.846L181.873 107.194L181.371 105.508H181.314L180.803 107.194L179.838 110.234ZM186.693 105.694H186.117V104.803H186.693V105.694ZM186.693 110.234H186.117V106.181H186.693V110.234ZM189.432 110.242C188.694 110.242 188.264 109.951 188.264 109.099V106.732H187.592V106.229H188.273L188.41 105.208H188.848V106.229H190.113V106.732H188.848V109.132C188.848 109.602 189.067 109.707 189.586 109.707H190.113V110.178C189.975 110.202 189.724 110.242 189.432 110.242ZM191.708 110.234H191.124V104.803H191.708V106.975H191.74C191.895 106.594 192.308 106.148 193.119 106.148C194.165 106.148 194.61 106.846 194.61 107.762V110.234H194.035V107.908C194.035 107.04 193.743 106.659 192.932 106.659C192.13 106.659 191.708 107.032 191.708 107.932V110.234ZM197.537 110.315C196.41 110.315 195.777 109.497 195.777 108.232C195.777 106.967 196.377 106.148 197.472 106.148C198.242 106.148 198.737 106.554 198.907 106.991V104.803H199.491V110.234H198.972V109.464H198.939C198.761 109.967 198.291 110.315 197.537 110.315ZM196.361 108.232C196.361 109.456 196.839 109.813 197.634 109.813C198.429 109.813 198.907 109.399 198.907 108.58V107.891C198.907 107.064 198.429 106.651 197.634 106.651C196.848 106.651 196.361 107.008 196.361 108.232ZM201.386 110.234H200.802V106.181H201.329V106.854H201.37C201.5 106.481 201.889 106.148 202.481 106.148C203.308 106.148 203.624 106.74 203.624 107.429V107.656H203.04V107.518C203.04 106.894 202.845 106.651 202.27 106.651C201.646 106.651 201.386 106.935 201.386 107.583V110.234ZM205.612 110.315C204.882 110.315 204.331 109.943 204.331 109.27C204.331 108.572 204.85 108.264 205.725 108.143L207.136 107.948V107.656C207.136 106.951 206.836 106.667 206.082 106.667C205.352 106.667 205.012 106.951 205.012 107.591V107.713H204.452V107.648C204.452 106.813 205.093 106.148 206.13 106.148C207.201 106.148 207.687 106.837 207.687 107.729V110.234H207.16V109.497L207.12 109.489C206.884 109.951 206.374 110.315 205.612 110.315ZM204.898 109.229C204.898 109.643 205.158 109.829 205.774 109.829C206.463 109.829 207.136 109.472 207.136 108.524V108.386L205.774 108.58C205.133 108.67 204.898 108.799 204.898 109.229ZM210.293 110.234H209.53L208.501 106.229H209.117L209.749 108.84L209.911 109.707H209.96L210.228 108.84L211.144 106.229H211.914L212.846 108.84L213.098 109.707H213.146L213.308 108.84L213.941 106.229H214.541L213.511 110.234H212.749L211.849 107.705L211.549 106.756H211.501L211.201 107.705L210.293 110.234ZM216.422 110.315C215.692 110.315 215.141 109.943 215.141 109.27C215.141 108.572 215.66 108.264 216.535 108.143L217.946 107.948V107.656C217.946 106.951 217.646 106.667 216.892 106.667C216.162 106.667 215.822 106.951 215.822 107.591V107.713H215.262V107.648C215.262 106.813 215.903 106.148 216.941 106.148C218.011 106.148 218.497 106.837 218.497 107.729V110.234H217.97V109.497L217.93 109.489C217.695 109.951 217.184 110.315 216.422 110.315ZM215.708 109.229C215.708 109.643 215.968 109.829 216.584 109.829C217.273 109.829 217.946 109.472 217.946 108.524V108.386L216.584 108.58C215.943 108.67 215.708 108.799 215.708 109.229ZM220.378 110.234H219.794V104.803H220.378V110.234ZM223.286 110.315C222.191 110.315 221.591 109.853 221.591 108.921V108.905H222.159V109.002C222.159 109.553 222.386 109.821 223.294 109.821C224.04 109.821 224.234 109.61 224.234 109.205C224.234 108.799 223.983 108.653 223.375 108.54L222.71 108.426C222.062 108.305 221.591 108.005 221.591 107.3C221.591 106.61 222.175 106.148 223.124 106.148C224.04 106.148 224.713 106.619 224.713 107.518V107.559H224.153V107.494C224.153 107.016 223.967 106.651 223.107 106.651C222.378 106.651 222.151 106.886 222.151 107.291C222.151 107.697 222.353 107.835 222.953 107.948L223.634 108.078C224.332 108.208 224.794 108.516 224.794 109.18C224.794 109.894 224.21 110.315 223.286 110.315Z" fill="#575757"/>
<circle cx="168.309" cy="123.719" r="2.43218" fill="#8946E2"/>
<path d="M179.62 126.719H177.788V121.287H179.62C181.258 121.287 182.288 122.341 182.288 124.003C182.288 125.665 181.258 126.719 179.62 126.719ZM179.62 121.814H178.364V126.192H179.62C181.064 126.192 181.68 125.478 181.68 124.003C181.68 122.527 181.064 121.814 179.62 121.814ZM185.152 126.8C183.92 126.8 183.279 125.932 183.279 124.716C183.279 123.5 184.001 122.633 185.144 122.633C186.109 122.633 186.903 123.216 186.903 124.4C186.903 124.587 186.887 124.765 186.863 124.878H183.83C183.855 125.762 184.203 126.281 185.16 126.281C185.971 126.281 186.295 125.916 186.295 125.43V125.381H186.871V125.438C186.871 126.208 186.173 126.8 185.152 126.8ZM185.128 123.135C184.236 123.135 183.879 123.646 183.83 124.457H186.352C186.384 123.508 185.914 123.135 185.128 123.135ZM188.642 128.129H188.059V122.714H188.586V123.492H188.61C188.788 122.981 189.267 122.633 190.021 122.633C191.148 122.633 191.772 123.452 191.772 124.724C191.772 125.981 191.18 126.8 190.085 126.8C189.315 126.8 188.821 126.394 188.642 125.957V128.129ZM188.642 125.065C188.642 125.884 189.129 126.297 189.923 126.297C190.702 126.297 191.188 125.94 191.188 124.724C191.188 123.492 190.71 123.135 189.923 123.135C189.129 123.135 188.642 123.549 188.642 124.376V125.065ZM194.705 126.8C193.529 126.8 192.759 125.932 192.759 124.716C192.759 123.5 193.529 122.633 194.705 122.633C195.872 122.633 196.618 123.5 196.618 124.716C196.618 125.932 195.872 126.8 194.705 126.8ZM194.705 126.281C195.67 126.281 196.051 125.713 196.051 124.716C196.051 123.719 195.67 123.16 194.705 123.16C193.724 123.16 193.335 123.719 193.335 124.716C193.335 125.713 193.724 126.281 194.705 126.281ZM199.39 126.8C198.295 126.8 197.695 126.338 197.695 125.405V125.389H198.263V125.486C198.263 126.038 198.49 126.305 199.398 126.305C200.144 126.305 200.338 126.094 200.338 125.689C200.338 125.284 200.087 125.138 199.479 125.024L198.814 124.911C198.166 124.789 197.695 124.489 197.695 123.784C197.695 123.095 198.279 122.633 199.228 122.633C200.144 122.633 200.817 123.103 200.817 124.003V124.043H200.257V123.978C200.257 123.5 200.071 123.135 199.211 123.135C198.482 123.135 198.255 123.37 198.255 123.776C198.255 124.181 198.457 124.319 199.057 124.433L199.738 124.562C200.436 124.692 200.898 125 200.898 125.665C200.898 126.378 200.314 126.8 199.39 126.8ZM202.628 122.179H202.053V121.287H202.628V122.179ZM202.628 126.719H202.053V122.665H202.628V126.719ZM205.368 126.727C204.63 126.727 204.2 126.435 204.2 125.584V123.216H203.527V122.714H204.208L204.346 121.692H204.784V122.714H206.049V123.216H204.784V125.616C204.784 126.086 205.003 126.192 205.522 126.192H206.049V126.662C205.911 126.686 205.66 126.727 205.368 126.727Z" fill="#575757"/>
<path d="M241.258 115.193L247.485 119.986L241.258 124.779V115.193Z" fill="#F8FDFB" stroke="#F8FDFB" stroke-width="0.810726"/>
</g>
</g>
<defs>
<filter id="filter0_d_388_1358" x="0.787098" y="0.764948" width="532.861" height="303.426" filterUnits="userSpaceOnUse" color-interpolation-filters="sRGB">
<feFlood flood-opacity="0" result="BackgroundImageFix"/>
<feColorMatrix in="SourceAlpha" type="matrix" values="0 0 0 0 0 0 0 0 0 0 0 0 0 0 0 0 0 0 127 0" result="hardAlpha"/>
<feOffset dy="14.9778"/>
<feGaussianBlur stdDeviation="11.6065"/>
<feComposite in2="hardAlpha" operator="out"/>
<feColorMatrix type="matrix" values="0 0 0 0 0.756863 0 0 0 0 0.756863 0 0 0 0 0.756863 0 0 0 0.2 0"/>
<feBlend mode="normal" in2="BackgroundImageFix" result="effect1_dropShadow_388_1358"/>
<feBlend mode="normal" in="SourceGraphic" in2="effect1_dropShadow_388_1358" result="shape"/>
</filter>
<filter id="filter1_d_388_1358" x="26.8375" y="19.9451" width="67.7261" height="67.7259" filterUnits="userSpaceOnUse" color-interpolation-filters="sRGB">
<feFlood flood-opacity="0" result="BackgroundImageFix"/>
<feColorMatrix in="SourceAlpha" type="matrix" values="0 0 0 0 0 0 0 0 0 0 0 0 0 0 0 0 0 0 127 0" result="hardAlpha"/>
<feOffset dx="-1.62145" dy="6.4858"/>
<feGaussianBlur stdDeviation="5.87776"/>
<feComposite in2="hardAlpha" operator="out"/>
<feColorMatrix type="matrix" values="0 0 0 0 1 0 0 0 0 1 0 0 0 0 1 0 0 0 0.15 0"/>
<feBlend mode="normal" in2="BackgroundImageFix" result="effect1_dropShadow_388_1358"/>
<feBlend mode="normal" in="SourceGraphic" in2="effect1_dropShadow_388_1358" result="shape"/>
</filter>
<filter id="filter2_d_388_1358" x="123.395" y="79.2092" width="162.372" height="109.828" filterUnits="userSpaceOnUse" color-interpolation-filters="sRGB">
<feFlood flood-opacity="0" result="BackgroundImageFix"/>
<feColorMatrix in="SourceAlpha" type="matrix" values="0 0 0 0 0 0 0 0 0 0 0 0 0 0 0 0 0 0 127 0" result="hardAlpha"/>
<feOffset dx="2.43218" dy="18.6467"/>
<feGaussianBlur stdDeviation="17.5927"/>
<feComposite in2="hardAlpha" operator="out"/>
<feColorMatrix type="matrix" values="0 0 0 0 0 0 0 0 0 0 0 0 0 0 0 0 0 0 0.15 0"/>
<feBlend mode="normal" in2="BackgroundImageFix" result="effect1_dropShadow_388_1358"/>
<feBlend mode="normal" in="SourceGraphic" in2="effect1_dropShadow_388_1358" result="shape"/>
</filter>
<linearGradient id="paint0_linear_388_1358" x1="66.1577" y1="185.52" x2="66.1577" y2="226.056" gradientUnits="userSpaceOnUse">
<stop stop-color="#E7EEF9"/>
<stop offset="1" stop-color="#E7EEF9"/>
</linearGradient>
<linearGradient id="paint1_linear_388_1358" x1="66.1577" y1="159.576" x2="66.1577" y2="226.056" gradientUnits="userSpaceOnUse">
<stop stop-color="#EFF6F9"/>
<stop offset="1" stop-color="#E2EDFE"/>
</linearGradient>
<linearGradient id="paint2_linear_388_1358" x1="116.423" y1="167.682" x2="116.423" y2="226.054" gradientUnits="userSpaceOnUse">
<stop stop-color="#E7EEF9"/>
<stop offset="1" stop-color="#E7EEF9"/>
</linearGradient>
<linearGradient id="paint3_linear_388_1358" x1="116.423" y1="125.525" x2="116.423" y2="226.055" gradientUnits="userSpaceOnUse">
<stop stop-color="#EFF6F9"/>
<stop offset="1" stop-color="#E2EDFE"/>
</linearGradient>
<linearGradient id="paint4_linear_388_1358" x1="166.688" y1="146.604" x2="166.688" y2="226.055" gradientUnits="userSpaceOnUse">
<stop stop-color="#E7EEF9"/>
<stop offset="1" stop-color="#E7EEF9"/>
</linearGradient>
<linearGradient id="paint5_linear_388_1358" x1="166.688" y1="103.637" x2="166.688" y2="226.056" gradientUnits="userSpaceOnUse">
<stop stop-color="#EFF6F9"/>
<stop offset="1" stop-color="#E2EDFE"/>
</linearGradient>
<linearGradient id="paint6_linear_388_1358" x1="216.953" y1="190.383" x2="216.953" y2="226.055" gradientUnits="userSpaceOnUse">
<stop stop-color="#E7EEF9"/>
<stop offset="1" stop-color="#E7EEF9"/>
</linearGradient>
<linearGradient id="paint7_linear_388_1358" x1="216.953" y1="153.09" x2="216.953" y2="226.055" gradientUnits="userSpaceOnUse">
<stop stop-color="#EFF6F9"/>
<stop offset="1" stop-color="#E2EDFE"/>
</linearGradient>
<linearGradient id="paint8_linear_388_1358" x1="267.183" y1="105.537" x2="267.183" y2="225.747" gradientUnits="userSpaceOnUse">
<stop stop-color="#B482F8"/>
<stop offset="1" stop-color="#8744E1"/>
</linearGradient>
<linearGradient id="paint9_linear_388_1358" x1="317.483" y1="159.578" x2="317.483" y2="226.058" gradientUnits="userSpaceOnUse">
<stop stop-color="#E7EEF9"/>
<stop offset="1" stop-color="#E7EEF9"/>
</linearGradient>
<linearGradient id="paint10_linear_388_1358" x1="317.483" y1="129.58" x2="317.483" y2="226.056" gradientUnits="userSpaceOnUse">
<stop stop-color="#EFF6F9"/>
<stop offset="1" stop-color="#E2EDFE"/>
</linearGradient>
<linearGradient id="paint11_linear_388_1358" x1="367.748" y1="204.977" x2="367.748" y2="226.055" gradientUnits="userSpaceOnUse">
<stop stop-color="#E7EEF9"/>
<stop offset="1" stop-color="#E7EEF9"/>
</linearGradient>
<linearGradient id="paint12_linear_388_1358" x1="367.748" y1="183.898" x2="367.748" y2="226.056" gradientUnits="userSpaceOnUse">
<stop stop-color="#EFF6F9"/>
<stop offset="1" stop-color="#E2EDFE"/>
</linearGradient>
<linearGradient id="paint13_linear_388_1358" x1="417.79" y1="105.537" x2="417.79" y2="225.747" gradientUnits="userSpaceOnUse">
<stop stop-color="#B482F8"/>
<stop offset="1" stop-color="#8744E1"/>
</linearGradient>
<linearGradient id="paint14_linear_388_1358" x1="468.278" y1="146.604" x2="468.278" y2="226.055" gradientUnits="userSpaceOnUse">
<stop stop-color="#E7EEF9"/>
<stop offset="1" stop-color="#E7EEF9"/>
</linearGradient>
<linearGradient id="paint15_linear_388_1358" x1="468.278" y1="103.637" x2="468.278" y2="226.056" gradientUnits="userSpaceOnUse">
<stop stop-color="#EFF6F9"/>
<stop offset="1" stop-color="#E2EDFE"/>
</linearGradient>
<clipPath id="clip0_388_1358">
<rect x="48.3218" y="159.576" width="35.6719" height="66.4795" rx="9.72871" fill="white"/>
</clipPath>
<clipPath id="clip1_388_1358">
<rect x="98.5868" y="125.525" width="35.6719" height="100.53" rx="9.72871" fill="white"/>
</clipPath>
<clipPath id="clip2_388_1358">
<rect x="148.852" y="103.637" width="35.6719" height="122.42" rx="9.72871" fill="white"/>
</clipPath>
<clipPath id="clip3_388_1358">
<rect x="199.117" y="153.09" width="35.6719" height="72.9653" rx="9.72871" fill="white"/>
</clipPath>
<clipPath id="clip4_388_1358">
<rect x="249.382" y="95.5293" width="35.6719" height="130.527" rx="9.72871" fill="white"/>
</clipPath>
<clipPath id="clip5_388_1358">
<rect x="299.647" y="129.58" width="35.6719" height="96.4763" rx="9.72871" fill="white"/>
</clipPath>
<clipPath id="clip6_388_1358">
<rect x="349.912" y="183.898" width="35.6719" height="42.1577" rx="9.72871" fill="white"/>
</clipPath>
<clipPath id="clip7_388_1358">
<rect x="400.177" y="95.5293" width="35.6719" height="130.527" rx="9.72871" fill="white"/>
</clipPath>
<clipPath id="clip8_388_1358">
<rect x="450.442" y="103.637" width="35.6719" height="122.42" rx="9.72871" fill="white"/>
</clipPath>
</defs>
</svg>
