<svg width="298" height="212" viewBox="0 0 298 212" fill="none" xmlns="http://www.w3.org/2000/svg">
<path d="M38.85 56.18C36.204 56.18 34.494 54.74 34.494 52.418V52.31H36.546V52.418C36.546 53.552 37.086 54.308 38.994 54.308C41.262 54.308 41.748 53.228 41.748 50.564V49.574H41.658C41.136 50.6 40.092 51.41 38.058 51.41C35.394 51.41 34.008 49.97 34.008 47.684C34.008 45.29 35.664 43.76 38.742 43.76C42.414 43.76 43.746 45.668 43.746 49.97C43.746 53.876 42.306 56.18 38.85 56.18ZM38.688 49.772C40.722 49.772 41.478 49.106 41.478 47.702C41.478 46.28 40.704 45.632 38.688 45.632C36.6 45.632 35.898 46.28 35.898 47.72C35.898 49.124 36.582 49.772 38.688 49.772ZM50.8635 56.18C47.6235 56.18 45.6615 53.786 45.6615 49.97C45.6615 46.154 47.6235 43.76 50.8635 43.76C54.1035 43.76 56.0835 46.154 56.0835 49.97C56.0835 53.786 54.1035 56.18 50.8635 56.18ZM50.8635 54.308C53.0055 54.308 54.0135 53.156 54.0135 49.97C54.0135 46.784 53.0055 45.632 50.8635 45.632C48.7215 45.632 47.7315 46.784 47.7315 49.97C47.7315 53.156 48.7215 54.308 50.8635 54.308ZM60.4129 49.736C58.5409 49.736 57.4609 48.458 57.4609 46.748C57.4609 45.038 58.5409 43.76 60.4129 43.76C62.3029 43.76 63.3649 45.038 63.3649 46.748C63.3649 48.458 62.3029 49.736 60.4129 49.736ZM60.3589 56H58.4509L67.6849 43.94H69.5749L60.3589 56ZM60.4129 48.368C61.4749 48.368 61.8709 47.918 61.8709 46.748C61.8709 45.578 61.4749 45.128 60.4129 45.128C59.3509 45.128 58.9729 45.578 58.9729 46.748C58.9729 47.918 59.3509 48.368 60.4129 48.368ZM67.5949 56.18C65.7229 56.18 64.6429 54.92 64.6429 53.192C64.6429 51.482 65.7229 50.204 67.5949 50.204C69.4849 50.204 70.5469 51.482 70.5469 53.192C70.5469 54.92 69.4849 56.18 67.5949 56.18ZM67.5949 54.812C68.6569 54.812 69.0529 54.362 69.0529 53.192C69.0529 52.022 68.6569 51.572 67.5949 51.572C66.5329 51.572 66.1549 52.022 66.1549 53.192C66.1549 54.362 66.5329 54.812 67.5949 54.812Z" fill="#037AE0"/>
<path d="M100 50C100 77.6142 77.6142 100 50 100C22.3858 100 0 77.6142 0 50C0 22.3858 22.3858 0 50 0C77.6142 0 100 22.3858 100 50ZM15 50C15 69.33 30.67 85 50 85C69.33 85 85 69.33 85 50C85 30.67 69.33 15 50 15C30.67 15 15 30.67 15 50Z" fill="#F5F5F5"/>
<path d="M50 92.5C50 96.6421 46.6234 100.058 42.5278 99.4387C32.3554 97.9013 22.8378 93.2501 15.3362 86.0336C6.02111 77.0726 0.538181 64.8525 0.0375225 51.9367C-0.463136 39.0209 4.05738 26.413 12.6508 16.7579C21.2442 7.10275 33.2428 1.1506 46.1295 0.150034C59.0162 -0.850533 71.7897 3.17824 81.7705 11.3912C91.7512 19.6042 98.1637 31.3632 99.6626 44.2015C101.162 57.0398 97.6306 69.9597 89.8104 80.2511C83.5125 88.5391 74.827 94.6037 65.0138 97.6928C61.0629 98.9366 57.1995 96.0831 56.5601 91.9907C55.9208 87.8982 58.7698 84.1359 62.6327 82.6408C68.6292 80.3199 73.9187 76.3722 77.8673 71.1758C83.3414 63.9718 85.8131 54.9278 84.7638 45.941C83.7146 36.9542 79.2259 28.7229 72.2393 22.9739C65.2528 17.2248 56.3113 14.4046 47.2906 15.105C38.2699 15.8054 29.871 19.9719 23.8556 26.7305C17.8402 33.4891 14.6758 42.3146 15.0263 51.3557C15.3767 60.3968 19.2148 68.9508 25.7353 75.2235C30.4387 79.7481 36.2742 82.8321 42.557 84.1996C46.6044 85.0805 50 88.3579 50 92.5Z" fill="#037AE0"/>
<path d="M133.78 43H132.28L137.7 29.6H139.74L145.16 43H143.62L142 39.08H135.38L133.78 43ZM137.86 33L135.9 37.78H141.46L139.5 33L138.74 30.96H138.64L137.86 33ZM147.802 46.48H146.362V33.12H147.662V35.04H147.722C148.162 33.78 149.342 32.92 151.202 32.92C153.982 32.92 155.522 34.94 155.522 38.08C155.522 41.18 154.062 43.2 151.362 43.2C149.462 43.2 148.242 42.2 147.802 41.12V46.48ZM147.802 38.92C147.802 40.94 149.002 41.96 150.962 41.96C152.882 41.96 154.082 41.08 154.082 38.08C154.082 35.04 152.902 34.16 150.962 34.16C149.002 34.16 147.802 35.18 147.802 37.22V38.92ZM158.701 46.48H157.261V33.12H158.561V35.04H158.621C159.061 33.78 160.241 32.92 162.101 32.92C164.881 32.92 166.421 34.94 166.421 38.08C166.421 41.18 164.961 43.2 162.261 43.2C160.361 43.2 159.141 42.2 158.701 41.12V46.48ZM158.701 38.92C158.701 40.94 159.901 41.96 161.861 41.96C163.781 41.96 164.981 41.08 164.981 38.08C164.981 35.04 163.801 34.16 161.861 34.16C159.901 34.16 158.701 35.18 158.701 37.22V38.92ZM169.599 43H168.159V33H169.459V34.66H169.559C169.879 33.74 170.839 32.92 172.299 32.92C174.339 32.92 175.119 34.38 175.119 36.08V36.64H173.679V36.3C173.679 34.76 173.199 34.16 171.779 34.16C170.239 34.16 169.599 34.86 169.599 36.46V43ZM180.977 43.2C178.077 43.2 176.177 41.06 176.177 38.06C176.177 35.06 178.077 32.92 180.977 32.92C183.857 32.92 185.697 35.06 185.697 38.06C185.697 41.06 183.857 43.2 180.977 43.2ZM180.977 41.92C183.357 41.92 184.297 40.52 184.297 38.06C184.297 35.6 183.357 34.22 180.977 34.22C178.557 34.22 177.597 35.6 177.597 38.06C177.597 40.52 178.557 41.92 180.977 41.92ZM191.886 43H190.106L186.066 33.12H187.626L190.966 41.6H191.066L194.386 33.12H195.926L191.886 43ZM200.914 43.2C197.874 43.2 196.294 41.06 196.294 38.06C196.294 35.06 198.074 32.92 200.894 32.92C203.274 32.92 205.234 34.36 205.234 37.28C205.234 37.74 205.194 38.18 205.134 38.46H197.654C197.714 40.64 198.574 41.92 200.934 41.92C202.934 41.92 203.734 41.02 203.734 39.82V39.7H205.154V39.84C205.154 41.74 203.434 43.2 200.914 43.2ZM200.854 34.16C198.654 34.16 197.774 35.42 197.654 37.42H203.874C203.954 35.08 202.794 34.16 200.854 34.16ZM211.123 43.2C208.343 43.2 206.783 41.18 206.783 38.06C206.783 34.94 208.263 32.92 210.963 32.92C212.863 32.92 214.083 33.92 214.503 35V29.6H215.943V43H214.663V41.1H214.583C214.143 42.34 212.983 43.2 211.123 43.2ZM208.223 38.06C208.223 41.08 209.403 41.96 211.363 41.96C213.323 41.96 214.503 40.94 214.503 38.92V37.22C214.503 35.18 213.323 34.16 211.363 34.16C209.423 34.16 208.223 35.04 208.223 38.06ZM223.31 43H221.87V33H223.17V34.66H223.27C223.59 33.74 224.55 32.92 226.01 32.92C228.05 32.92 228.83 34.38 228.83 36.08V36.64H227.39V36.3C227.39 34.76 226.91 34.16 225.49 34.16C223.95 34.16 223.31 34.86 223.31 36.46V43ZM234.508 43.2C231.468 43.2 229.888 41.06 229.888 38.06C229.888 35.06 231.668 32.92 234.488 32.92C236.868 32.92 238.828 34.36 238.828 37.28C238.828 37.74 238.788 38.18 238.728 38.46H231.248C231.308 40.64 232.168 41.92 234.528 41.92C236.528 41.92 237.328 41.02 237.328 39.82V39.7H238.748V39.84C238.748 41.74 237.028 43.2 234.508 43.2ZM234.448 34.16C232.248 34.16 231.368 35.42 231.248 37.42H237.468C237.548 35.08 236.388 34.16 234.448 34.16ZM244.556 43.2C241.856 43.2 240.376 41.18 240.376 38.08C240.376 34.94 241.936 32.92 244.716 32.92C246.576 32.92 247.736 33.78 248.176 35.04H248.256V33.12H249.536V46.48H248.096V41.12C247.676 42.2 246.456 43.2 244.556 43.2ZM241.816 38.08C241.816 41.08 243.016 41.96 244.956 41.96C246.916 41.96 248.096 40.94 248.096 38.92V37.22C248.096 35.18 246.916 34.16 244.956 34.16C242.996 34.16 241.816 35.04 241.816 38.08ZM255.492 43.2C252.912 43.2 251.712 41.42 251.712 39.06V33.12H253.152V38.86C253.152 41 254.012 41.94 255.952 41.94C257.772 41.94 259.012 40.98 259.012 38.66V33.12H260.432V43H259.132V40.82H259.072C258.672 41.96 257.552 43.2 255.492 43.2ZM266.871 43.2C263.831 43.2 262.251 41.06 262.251 38.06C262.251 35.06 264.031 32.92 266.851 32.92C269.231 32.92 271.191 34.36 271.191 37.28C271.191 37.74 271.151 38.18 271.091 38.46H263.611C263.671 40.64 264.531 41.92 266.891 41.92C268.891 41.92 269.691 41.02 269.691 39.82V39.7H271.111V39.84C271.111 41.74 269.391 43.2 266.871 43.2ZM266.811 34.16C264.611 34.16 263.731 35.42 263.611 37.42H269.831C269.911 35.08 268.751 34.16 266.811 34.16ZM277.14 43.2C274.44 43.2 272.96 42.06 272.96 39.76V39.72H274.36V39.96C274.36 41.32 274.92 41.98 277.16 41.98C279 41.98 279.48 41.46 279.48 40.46C279.48 39.46 278.86 39.1 277.36 38.82L275.72 38.54C274.12 38.24 272.96 37.5 272.96 35.76C272.96 34.06 274.4 32.92 276.74 32.92C279 32.92 280.66 34.08 280.66 36.3V36.4H279.28V36.24C279.28 35.06 278.82 34.16 276.7 34.16C274.9 34.16 274.34 34.74 274.34 35.74C274.34 36.74 274.84 37.08 276.32 37.36L278 37.68C279.72 38 280.86 38.76 280.86 40.4C280.86 42.16 279.42 43.2 277.14 43.2ZM286.41 43.02C284.59 43.02 283.53 42.3 283.53 40.2V34.36H281.87V33.12H283.55L283.89 30.6H284.97V33.12H288.09V34.36H284.97V40.28C284.97 41.44 285.51 41.7 286.79 41.7H288.09V42.86C287.75 42.92 287.13 43.02 286.41 43.02ZM293.272 43.2C290.572 43.2 289.092 42.06 289.092 39.76V39.72H290.492V39.96C290.492 41.32 291.052 41.98 293.292 41.98C295.132 41.98 295.612 41.46 295.612 40.46C295.612 39.46 294.992 39.1 293.492 38.82L291.852 38.54C290.252 38.24 289.092 37.5 289.092 35.76C289.092 34.06 290.532 32.92 292.872 32.92C295.132 32.92 296.792 34.08 296.792 36.3V36.4H295.412V36.24C295.412 35.06 294.952 34.16 292.832 34.16C291.032 34.16 290.472 34.74 290.472 35.74C290.472 36.74 290.972 37.08 292.452 37.36L294.132 37.68C295.852 38 296.992 38.76 296.992 40.4C296.992 42.16 295.552 43.2 293.272 43.2Z" fill="#353535"/>
<path d="M136.41 70.14C134.436 70.14 133.106 69.02 133.106 67.214V67.13H134.156V67.214C134.156 68.278 134.618 69.174 136.466 69.174C138.566 69.174 138.986 67.998 138.986 65.492V64.708H138.916C138.552 65.66 137.614 66.43 135.934 66.43C133.862 66.43 132.714 65.268 132.714 63.49C132.714 61.656 133.988 60.48 136.242 60.48C138.986 60.48 140.008 61.964 140.008 65.31C140.008 68.166 139.126 70.14 136.41 70.14ZM136.214 65.562C137.978 65.562 138.776 64.834 138.776 63.504C138.776 62.132 137.964 61.446 136.214 61.446C134.394 61.446 133.694 62.118 133.694 63.518C133.694 64.876 134.366 65.562 136.214 65.562ZM145.3 70.14C142.962 70.14 141.422 68.32 141.422 65.31C141.422 62.3 142.962 60.48 145.3 60.48C147.652 60.48 149.178 62.3 149.178 65.31C149.178 68.32 147.652 70.14 145.3 70.14ZM145.3 69.174C147.148 69.174 148.128 67.998 148.128 65.31C148.128 62.622 147.148 61.446 145.3 61.446C143.466 61.446 142.486 62.622 142.486 65.31C142.486 67.998 143.466 69.174 145.3 69.174ZM154.583 70.14C152.245 70.14 150.705 68.32 150.705 65.31C150.705 62.3 152.245 60.48 154.583 60.48C156.935 60.48 158.461 62.3 158.461 65.31C158.461 68.32 156.935 70.14 154.583 70.14ZM154.583 69.174C156.431 69.174 157.411 67.998 157.411 65.31C157.411 62.622 156.431 61.446 154.583 61.446C152.749 61.446 151.769 62.622 151.769 65.31C151.769 67.998 152.749 69.174 154.583 69.174ZM159.853 71.288H159.545V70.63H159.825C160.021 70.63 160.119 70.588 160.119 70.35V70H159.573V68.054H160.805V70.336C160.805 70.994 160.441 71.288 159.853 71.288ZM165.78 70.14C163.442 70.14 161.902 68.32 161.902 65.31C161.902 62.3 163.442 60.48 165.78 60.48C168.132 60.48 169.658 62.3 169.658 65.31C169.658 68.32 168.132 70.14 165.78 70.14ZM165.78 69.174C167.628 69.174 168.608 67.998 168.608 65.31C168.608 62.622 167.628 61.446 165.78 61.446C163.946 61.446 162.966 62.622 162.966 65.31C162.966 67.998 163.946 69.174 165.78 69.174ZM175.063 70.14C172.725 70.14 171.185 68.32 171.185 65.31C171.185 62.3 172.725 60.48 175.063 60.48C177.415 60.48 178.941 62.3 178.941 65.31C178.941 68.32 177.415 70.14 175.063 70.14ZM175.063 69.174C176.911 69.174 177.891 67.998 177.891 65.31C177.891 62.622 176.911 61.446 175.063 61.446C173.229 61.446 172.249 62.622 172.249 65.31C172.249 67.998 173.229 69.174 175.063 69.174ZM184.347 70.14C182.009 70.14 180.469 68.32 180.469 65.31C180.469 62.3 182.009 60.48 184.347 60.48C186.699 60.48 188.225 62.3 188.225 65.31C188.225 68.32 186.699 70.14 184.347 70.14ZM184.347 69.174C186.195 69.174 187.175 67.998 187.175 65.31C187.175 62.622 186.195 61.446 184.347 61.446C182.513 61.446 181.533 62.622 181.533 65.31C181.533 67.998 182.513 69.174 184.347 69.174Z" fill="#8F8F8F"/>
<path d="M37.896 168H35.952V158.82H33.414V157.434H33.882C35.016 157.434 35.682 157.02 36.186 155.94H37.896V168ZM45.5197 168.18C42.2797 168.18 40.3177 165.786 40.3177 161.97C40.3177 158.154 42.2797 155.76 45.5197 155.76C48.7597 155.76 50.7397 158.154 50.7397 161.97C50.7397 165.786 48.7597 168.18 45.5197 168.18ZM45.5197 166.308C47.6617 166.308 48.6697 165.156 48.6697 161.97C48.6697 158.784 47.6617 157.632 45.5197 157.632C43.3777 157.632 42.3877 158.784 42.3877 161.97C42.3877 165.156 43.3777 166.308 45.5197 166.308ZM55.0691 161.736C53.1971 161.736 52.1171 160.458 52.1171 158.748C52.1171 157.038 53.1971 155.76 55.0691 155.76C56.9591 155.76 58.0211 157.038 58.0211 158.748C58.0211 160.458 56.9591 161.736 55.0691 161.736ZM55.0151 168H53.1071L62.3411 155.94H64.2311L55.0151 168ZM55.0691 160.368C56.1311 160.368 56.5271 159.918 56.5271 158.748C56.5271 157.578 56.1311 157.128 55.0691 157.128C54.0071 157.128 53.6291 157.578 53.6291 158.748C53.6291 159.918 54.0071 160.368 55.0691 160.368ZM62.2511 168.18C60.3791 168.18 59.2991 166.92 59.2991 165.192C59.2991 163.482 60.3791 162.204 62.2511 162.204C64.1411 162.204 65.2031 163.482 65.2031 165.192C65.2031 166.92 64.1411 168.18 62.2511 168.18ZM62.2511 166.812C63.3131 166.812 63.7091 166.362 63.7091 165.192C63.7091 164.022 63.3131 163.572 62.2511 163.572C61.1891 163.572 60.8111 164.022 60.8111 165.192C60.8111 166.362 61.1891 166.812 62.2511 166.812Z" fill="#FF953F"/>
<path d="M100 162C100 189.614 77.6142 212 50 212C22.3858 212 0 189.614 0 162C0 134.386 22.3858 112 50 112C77.6142 112 100 134.386 100 162ZM15 162C15 181.33 30.67 197 50 197C69.33 197 85 181.33 85 162C85 142.67 69.33 127 50 127C30.67 127 15 142.67 15 162Z" fill="#F5F5F5"/>
<path d="M50 206.31C50 209.453 47.4446 212.033 44.3226 211.677C41.2006 211.32 39.2933 208.229 40.0023 205.168L41.2044 199.978C41.7007 197.835 43.8404 196.524 46.0258 196.774C48.2112 197.023 50 198.783 50 200.983L50 206.31Z" fill="#FF953F"/>
<path d="M134.68 155H133.26V141.6H138.5C141.3 141.6 143.36 143.22 143.36 146C143.36 148.82 141.3 150.42 138.5 150.42H134.68V155ZM138.72 142.9H134.68V149.12H138.72C140.9 149.12 141.92 148.2 141.92 146C141.92 143.82 140.9 142.9 138.72 142.9ZM148.707 155.2C145.667 155.2 144.087 153.06 144.087 150.06C144.087 147.06 145.867 144.92 148.687 144.92C151.067 144.92 153.027 146.36 153.027 149.28C153.027 149.74 152.987 150.18 152.927 150.46H145.447C145.507 152.64 146.367 153.92 148.727 153.92C150.727 153.92 151.527 153.02 151.527 151.82V151.7H152.947V151.84C152.947 153.74 151.227 155.2 148.707 155.2ZM148.647 146.16C146.447 146.16 145.567 147.42 145.447 149.42H151.667C151.747 147.08 150.587 146.16 148.647 146.16ZM156.318 155H154.878V145.12H156.178V147.16H156.238C156.618 146.12 157.738 144.92 159.778 144.92C162.318 144.92 163.478 146.56 163.478 148.94V155H162.058V149.26C162.058 147.12 161.358 146.18 159.338 146.18C157.378 146.18 156.318 147.1 156.318 149.3V155ZM169.56 155.2C166.78 155.2 165.22 153.18 165.22 150.06C165.22 146.94 166.7 144.92 169.4 144.92C171.3 144.92 172.52 145.92 172.94 147V141.6H174.38V155H173.1V153.1H173.02C172.58 154.34 171.42 155.2 169.56 155.2ZM166.66 150.06C166.66 153.08 167.84 153.96 169.8 153.96C171.76 153.96 172.94 152.94 172.94 150.92V149.22C172.94 147.18 171.76 146.16 169.8 146.16C167.86 146.16 166.66 147.04 166.66 150.06ZM177.976 143.8H176.556V141.6H177.976V143.8ZM177.976 155H176.556V145H177.976V155ZM181.591 155H180.151V145.12H181.451V147.16H181.511C181.891 146.12 183.011 144.92 185.051 144.92C187.591 144.92 188.751 146.56 188.751 148.94V155H187.331V149.26C187.331 147.12 186.631 146.18 184.611 146.18C182.651 146.18 181.591 147.1 181.591 149.3V155ZM194.773 154.12C192.053 154.12 190.493 152.32 190.493 149.52C190.493 146.72 192.033 144.92 194.793 144.92C196.533 144.92 197.853 145.78 198.293 147.04H198.373V145.12H199.653V154.58C199.653 157.26 197.933 158.6 195.333 158.6C192.813 158.6 191.033 157.28 191.033 155H192.453C192.453 156.62 193.273 157.32 195.353 157.32C197.473 157.32 198.213 156.56 198.213 154.58V152.06H198.193C197.733 153.2 196.493 154.12 194.773 154.12ZM191.933 149.52C191.933 152.14 193.193 152.88 195.113 152.88C196.893 152.88 198.213 151.86 198.213 149.82V149.22C198.213 147.18 196.873 146.16 195.033 146.16C193.153 146.16 191.933 146.92 191.933 149.52ZM207.021 155H205.581V145H206.881V146.66H206.981C207.301 145.74 208.261 144.92 209.721 144.92C211.761 144.92 212.541 146.38 212.541 148.08V148.64H211.101V148.3C211.101 146.76 210.621 146.16 209.201 146.16C207.661 146.16 207.021 146.86 207.021 148.46V155ZM218.219 155.2C215.179 155.2 213.599 153.06 213.599 150.06C213.599 147.06 215.379 144.92 218.199 144.92C220.579 144.92 222.539 146.36 222.539 149.28C222.539 149.74 222.499 150.18 222.439 150.46H214.959C215.019 152.64 215.879 153.92 218.239 153.92C220.239 153.92 221.039 153.02 221.039 151.82V151.7H222.459V151.84C222.459 153.74 220.739 155.2 218.219 155.2ZM218.159 146.16C215.959 146.16 215.079 147.42 214.959 149.42H221.179C221.259 147.08 220.099 146.16 218.159 146.16ZM228.267 155.2C225.567 155.2 224.087 153.18 224.087 150.08C224.087 146.94 225.647 144.92 228.427 144.92C230.287 144.92 231.447 145.78 231.887 147.04H231.967V145.12H233.247V158.48H231.807V153.12C231.387 154.2 230.167 155.2 228.267 155.2ZM225.527 150.08C225.527 153.08 226.727 153.96 228.667 153.96C230.627 153.96 231.807 152.94 231.807 150.92V149.22C231.807 147.18 230.627 146.16 228.667 146.16C226.707 146.16 225.527 147.04 225.527 150.08ZM239.203 155.2C236.623 155.2 235.423 153.42 235.423 151.06V145.12H236.863V150.86C236.863 153 237.723 153.94 239.663 153.94C241.483 153.94 242.723 152.98 242.723 150.66V145.12H244.143V155H242.843V152.82H242.783C242.383 153.96 241.263 155.2 239.203 155.2ZM250.582 155.2C247.542 155.2 245.962 153.06 245.962 150.06C245.962 147.06 247.742 144.92 250.562 144.92C252.942 144.92 254.902 146.36 254.902 149.28C254.902 149.74 254.862 150.18 254.802 150.46H247.322C247.382 152.64 248.242 153.92 250.602 153.92C252.602 153.92 253.402 153.02 253.402 151.82V151.7H254.822V151.84C254.822 153.74 253.102 155.2 250.582 155.2ZM250.522 146.16C248.322 146.16 247.442 147.42 247.322 149.42H253.542C253.622 147.08 252.462 146.16 250.522 146.16ZM260.85 155.2C258.15 155.2 256.67 154.06 256.67 151.76V151.72H258.07V151.96C258.07 153.32 258.63 153.98 260.87 153.98C262.71 153.98 263.19 153.46 263.19 152.46C263.19 151.46 262.57 151.1 261.07 150.82L259.43 150.54C257.83 150.24 256.67 149.5 256.67 147.76C256.67 146.06 258.11 144.92 260.45 144.92C262.71 144.92 264.37 146.08 264.37 148.3V148.4H262.99V148.24C262.99 147.06 262.53 146.16 260.41 146.16C258.61 146.16 258.05 146.74 258.05 147.74C258.05 148.74 258.55 149.08 260.03 149.36L261.71 149.68C263.43 150 264.57 150.76 264.57 152.4C264.57 154.16 263.13 155.2 260.85 155.2ZM270.121 155.02C268.301 155.02 267.241 154.3 267.241 152.2V146.36H265.581V145.12H267.261L267.601 142.6H268.681V145.12H271.801V146.36H268.681V152.28C268.681 153.44 269.221 153.7 270.501 153.7H271.801V154.86C271.461 154.92 270.841 155.02 270.121 155.02ZM276.983 155.2C274.283 155.2 272.803 154.06 272.803 151.76V151.72H274.203V151.96C274.203 153.32 274.763 153.98 277.003 153.98C278.843 153.98 279.323 153.46 279.323 152.46C279.323 151.46 278.703 151.1 277.203 150.82L275.563 150.54C273.963 150.24 272.803 149.5 272.803 147.76C272.803 146.06 274.243 144.92 276.583 144.92C278.843 144.92 280.503 146.08 280.503 148.3V148.4H279.123V148.24C279.123 147.06 278.663 146.16 276.543 146.16C274.743 146.16 274.183 146.74 274.183 147.74C274.183 148.74 274.683 149.08 276.163 149.36L277.843 149.68C279.563 150 280.703 150.76 280.703 152.4C280.703 154.16 279.263 155.2 276.983 155.2Z" fill="#353535"/>
<path d="M135.206 182H134.198V174.538H132.364V173.782H132.686C133.568 173.782 134.044 173.46 134.38 172.62H135.206V182ZM140.938 182.14C138.6 182.14 137.06 180.32 137.06 177.31C137.06 174.3 138.6 172.48 140.938 172.48C143.29 172.48 144.816 174.3 144.816 177.31C144.816 180.32 143.29 182.14 140.938 182.14ZM140.938 181.174C142.786 181.174 143.766 179.998 143.766 177.31C143.766 174.622 142.786 173.446 140.938 173.446C139.104 173.446 138.124 174.622 138.124 177.31C138.124 179.998 139.104 181.174 140.938 181.174ZM150.222 182.14C147.884 182.14 146.344 180.32 146.344 177.31C146.344 174.3 147.884 172.48 150.222 172.48C152.574 172.48 154.1 174.3 154.1 177.31C154.1 180.32 152.574 182.14 150.222 182.14ZM150.222 181.174C152.07 181.174 153.05 179.998 153.05 177.31C153.05 174.622 152.07 173.446 150.222 173.446C148.388 173.446 147.408 174.622 147.408 177.31C147.408 179.998 148.388 181.174 150.222 181.174ZM155.491 183.288H155.183V182.63H155.463C155.659 182.63 155.757 182.588 155.757 182.35V182H155.211V180.054H156.443V182.336C156.443 182.994 156.079 183.288 155.491 183.288ZM161.419 182.14C159.081 182.14 157.541 180.32 157.541 177.31C157.541 174.3 159.081 172.48 161.419 172.48C163.771 172.48 165.297 174.3 165.297 177.31C165.297 180.32 163.771 182.14 161.419 182.14ZM161.419 181.174C163.267 181.174 164.247 179.998 164.247 177.31C164.247 174.622 163.267 173.446 161.419 173.446C159.585 173.446 158.605 174.622 158.605 177.31C158.605 179.998 159.585 181.174 161.419 181.174ZM170.702 182.14C168.364 182.14 166.824 180.32 166.824 177.31C166.824 174.3 168.364 172.48 170.702 172.48C173.054 172.48 174.58 174.3 174.58 177.31C174.58 180.32 173.054 182.14 170.702 182.14ZM170.702 181.174C172.55 181.174 173.53 179.998 173.53 177.31C173.53 174.622 172.55 173.446 170.702 173.446C168.868 173.446 167.888 174.622 167.888 177.31C167.888 179.998 168.868 181.174 170.702 181.174ZM179.985 182.14C177.647 182.14 176.107 180.32 176.107 177.31C176.107 174.3 177.647 172.48 179.985 172.48C182.337 172.48 183.863 174.3 183.863 177.31C183.863 180.32 182.337 182.14 179.985 182.14ZM179.985 181.174C181.833 181.174 182.813 179.998 182.813 177.31C182.813 174.622 181.833 173.446 179.985 173.446C178.151 173.446 177.171 174.622 177.171 177.31C177.171 179.998 178.151 181.174 179.985 181.174Z" fill="#8F8F8F"/>
</svg>
