<svg width="497" height="173" viewBox="0 0 497 173" fill="none" xmlns="http://www.w3.org/2000/svg">
<rect width="496.861" height="173" rx="20" fill="#E0F9FF"/>
<g filter="url(#filter0_d_174_4204)">
<path d="M158.43 0H338.43V21C338.43 32.0457 329.476 41 318.43 41H178.43C167.385 41 158.43 32.0457 158.43 21V0Z" fill="white" shape-rendering="crispEdges"/>
<path d="M180.138 25H178.556L182.21 15.62H184.38L188.034 25H186.396L185.444 22.564H181.09L180.138 25ZM182.602 18.728L181.622 21.206H184.912L183.932 18.728L183.33 16.992H183.218L182.602 18.728ZM192.406 25H190.502L187.716 18.042H189.396L191.426 23.558H191.524L193.568 18.042H195.206L192.406 25ZM197.592 25.14C196.346 25.14 195.38 24.496 195.38 23.278C195.38 22.13 196.22 21.528 197.704 21.318L200.14 20.954V20.576C200.14 19.54 199.664 19.232 198.572 19.232C197.466 19.232 197.032 19.582 197.032 20.506V20.716H195.576V20.576C195.576 19.022 196.794 17.902 198.656 17.902C200.602 17.902 201.582 19.078 201.582 20.772V25H200.182V23.908H200.112C199.706 24.566 198.908 25.14 197.592 25.14ZM196.85 23.166C196.85 23.712 197.2 23.936 198.082 23.936C199.062 23.936 200.14 23.544 200.14 22.144V22.018L197.928 22.354C197.13 22.466 196.85 22.648 196.85 23.166ZM204.444 17.16H202.946L202.932 15.62H204.444V17.16ZM204.458 25H202.946V18H204.458V25ZM207.358 25H205.846V15.62H207.358V25ZM210.676 25.14C209.43 25.14 208.464 24.496 208.464 23.278C208.464 22.13 209.304 21.528 210.788 21.318L213.224 20.954V20.576C213.224 19.54 212.748 19.232 211.656 19.232C210.55 19.232 210.116 19.582 210.116 20.506V20.716H208.66V20.576C208.66 19.022 209.878 17.902 211.74 17.902C213.686 17.902 214.666 19.078 214.666 20.772V25H213.266V23.908H213.196C212.79 24.566 211.992 25.14 210.676 25.14ZM209.934 23.166C209.934 23.712 210.284 23.936 211.166 23.936C212.146 23.936 213.224 23.544 213.224 22.144V22.018L211.012 22.354C210.214 22.466 209.934 22.648 209.934 23.166ZM217.5 25H216.114V15.62H217.626V19.148H217.654C217.962 18.518 218.76 17.902 219.992 17.902C221.91 17.902 222.918 19.316 222.918 21.514C222.918 23.726 221.854 25.14 219.908 25.14C218.704 25.14 217.892 24.664 217.556 23.852H217.5V25ZM217.626 22.144C217.626 23.306 218.298 23.852 219.516 23.852C220.86 23.852 221.42 23.236 221.42 21.514C221.42 19.806 220.846 19.19 219.516 19.19C218.298 19.19 217.626 19.736 217.626 20.898V22.144ZM225.583 25H224.071V15.62H225.583V25ZM230.104 25.14C227.808 25.14 226.73 23.684 226.73 21.514C226.73 19.358 228.018 17.902 230.09 17.902C231.966 17.902 233.282 19.022 233.282 20.926C233.282 21.29 233.24 21.668 233.198 21.878H228.144C228.2 23.152 228.662 23.796 230.118 23.796C231.28 23.796 231.728 23.404 231.728 22.774V22.662H233.226V22.788C233.226 24.216 231.98 25.14 230.104 25.14ZM230.062 19.176C228.746 19.176 228.242 19.792 228.158 20.87H231.84C231.896 19.68 231.252 19.176 230.062 19.176ZM239.072 25H237.56V19.302H236.538V18.042H237.56C237.588 16.474 238.526 15.62 240.29 15.62H240.85V16.824H240.01C239.338 16.824 239.03 17.076 239.03 17.664V18.042H240.85V19.302H239.072V25ZM244.558 25.14C242.416 25.14 241.086 23.684 241.086 21.514C241.086 19.358 242.416 17.902 244.558 17.902C246.686 17.902 247.974 19.358 247.974 21.514C247.974 23.684 246.686 25.14 244.558 25.14ZM244.558 23.796C246.014 23.796 246.518 23.082 246.518 21.514C246.518 19.96 246.014 19.246 244.558 19.246C243.088 19.246 242.57 19.96 242.57 21.514C242.57 23.082 243.088 23.796 244.558 23.796ZM250.616 25H249.104V18H250.49V19.106H250.56C250.84 18.462 251.484 17.902 252.506 17.902C253.962 17.902 254.522 18.966 254.522 20.268V20.73H253.01V20.45C253.01 19.526 252.744 19.19 251.862 19.19C250.952 19.19 250.616 19.54 250.616 20.464V25ZM261.009 25.14C259.021 25.14 257.943 23.726 257.943 21.514C257.943 19.316 259.007 17.902 260.925 17.902C262.157 17.902 262.899 18.49 263.207 19.12H263.249V15.62H264.747V25H263.361V23.852H263.305C262.969 24.65 262.199 25.14 261.009 25.14ZM259.455 21.514C259.455 23.236 260.001 23.852 261.345 23.852C262.577 23.852 263.249 23.306 263.249 22.144V20.898C263.249 19.736 262.577 19.19 261.345 19.19C260.015 19.19 259.455 19.806 259.455 21.514ZM269.372 25.14C267.23 25.14 265.9 23.684 265.9 21.514C265.9 19.358 267.23 17.902 269.372 17.902C271.5 17.902 272.788 19.358 272.788 21.514C272.788 23.684 271.5 25.14 269.372 25.14ZM269.372 23.796C270.828 23.796 271.332 23.082 271.332 21.514C271.332 19.96 270.828 19.246 269.372 19.246C267.902 19.246 267.384 19.96 267.384 21.514C267.384 23.082 267.902 23.796 269.372 23.796ZM276.739 25H274.765L273.043 18.042H274.681L275.479 21.906L275.759 23.74H275.871L276.333 21.906L277.551 18.042H279.511L280.743 21.92L281.177 23.74H281.289L281.569 21.92L282.381 18.042H283.949L282.227 25H280.267L279.021 21.122L278.559 19.372H278.447L277.999 21.122L276.739 25ZM286.259 25H284.747V18.042H286.133V19.344H286.189C286.511 18.602 287.253 17.902 288.611 17.902C290.417 17.902 291.229 19.05 291.229 20.632V25H289.717V20.968C289.717 19.722 289.325 19.204 288.051 19.204C286.819 19.204 286.259 19.68 286.259 20.982V25ZM294.188 25H292.676V15.62H294.188V25ZM298.808 25.14C296.666 25.14 295.336 23.684 295.336 21.514C295.336 19.358 296.666 17.902 298.808 17.902C300.936 17.902 302.224 19.358 302.224 21.514C302.224 23.684 300.936 25.14 298.808 25.14ZM298.808 23.796C300.264 23.796 300.768 23.082 300.768 21.514C300.768 19.96 300.264 19.246 298.808 19.246C297.338 19.246 296.82 19.96 296.82 21.514C296.82 23.082 297.338 23.796 298.808 23.796ZM305.313 25.14C304.067 25.14 303.101 24.496 303.101 23.278C303.101 22.13 303.941 21.528 305.425 21.318L307.861 20.954V20.576C307.861 19.54 307.385 19.232 306.293 19.232C305.187 19.232 304.753 19.582 304.753 20.506V20.716H303.297V20.576C303.297 19.022 304.515 17.902 306.377 17.902C308.323 17.902 309.303 19.078 309.303 20.772V25H307.903V23.908H307.833C307.427 24.566 306.629 25.14 305.313 25.14ZM304.571 23.166C304.571 23.712 304.921 23.936 305.803 23.936C306.783 23.936 307.861 23.544 307.861 22.144V22.018L305.649 22.354C304.851 22.466 304.571 22.648 304.571 23.166ZM313.509 25.14C311.521 25.14 310.443 23.726 310.443 21.514C310.443 19.316 311.507 17.902 313.425 17.902C314.657 17.902 315.399 18.49 315.707 19.12H315.749V15.62H317.247V25H315.861V23.852H315.805C315.469 24.65 314.699 25.14 313.509 25.14ZM311.955 21.514C311.955 23.236 312.501 23.852 313.845 23.852C315.077 23.852 315.749 23.306 315.749 22.144V20.898C315.749 19.736 315.077 19.19 313.845 19.19C312.515 19.19 311.955 19.806 311.955 21.514Z" fill="#324B50"/>
</g>
<rect x="16" y="83" width="212.44" height="74" rx="15" fill="#011019"/>
<path d="M61.6946 142.074C59.0816 144.607 56.2287 144.207 53.4823 143.007C50.576 141.781 47.9097 141.728 44.8434 143.007C41.0039 144.661 38.9775 144.181 36.6844 142.074C23.6728 128.663 25.5925 108.238 40.364 107.492C43.9635 107.679 46.4699 109.465 48.5763 109.625C51.7226 108.985 54.7355 107.145 58.0951 107.385C62.1212 107.705 65.1609 109.305 67.1606 112.185C58.8417 117.171 60.8147 128.129 68.4404 131.196C66.9206 135.195 64.9476 139.168 61.668 142.101L61.6946 142.074ZM48.3096 107.332C47.9097 101.386 52.7358 96.4799 58.2817 96C59.055 102.879 52.0425 107.998 48.3096 107.332Z" fill="white"/>
<path d="M89.1444 110H85.3364V99.28H89.1444C92.4564 99.28 94.5684 101.328 94.5684 104.64C94.5684 107.952 92.4564 110 89.1444 110ZM89.1444 100.832H87.0644V108.448H89.1444C91.7044 108.448 92.7284 107.392 92.7284 104.64C92.7284 101.888 91.7044 100.832 89.1444 100.832ZM99.5927 110.16C97.1447 110.16 95.6247 108.496 95.6247 106.016C95.6247 103.552 97.1447 101.888 99.5927 101.888C102.025 101.888 103.497 103.552 103.497 106.016C103.497 108.496 102.025 110.16 99.5927 110.16ZM99.5927 108.624C101.257 108.624 101.833 107.808 101.833 106.016C101.833 104.24 101.257 103.424 99.5927 103.424C97.9127 103.424 97.3207 104.24 97.3207 106.016C97.3207 107.808 97.9127 108.624 99.5927 108.624ZM108.012 110H105.756L103.788 102.048H105.66L106.572 106.464L106.892 108.56H107.02L107.548 106.464L108.94 102.048H111.18L112.588 106.48L113.084 108.56H113.212L113.532 106.48L114.46 102.048H116.252L114.284 110H112.044L110.62 105.568L110.092 103.568H109.964L109.452 105.568L108.012 110ZM118.891 110H117.163V102.048H118.747V103.536H118.811C119.179 102.688 120.027 101.888 121.579 101.888C123.643 101.888 124.571 103.2 124.571 105.008V110H122.843V105.392C122.843 103.968 122.395 103.376 120.939 103.376C119.531 103.376 118.891 103.92 118.891 105.408V110ZM127.954 110H126.226V99.28H127.954V110ZM133.233 110.16C130.785 110.16 129.265 108.496 129.265 106.016C129.265 103.552 130.785 101.888 133.233 101.888C135.665 101.888 137.137 103.552 137.137 106.016C137.137 108.496 135.665 110.16 133.233 110.16ZM133.233 108.624C134.897 108.624 135.473 107.808 135.473 106.016C135.473 104.24 134.897 103.424 133.233 103.424C131.553 103.424 130.961 104.24 130.961 106.016C130.961 107.808 131.553 108.624 133.233 108.624ZM140.668 110.16C139.244 110.16 138.14 109.424 138.14 108.032C138.14 106.72 139.1 106.032 140.796 105.792L143.58 105.376V104.944C143.58 103.76 143.036 103.408 141.788 103.408C140.524 103.408 140.028 103.808 140.028 104.864V105.104H138.364V104.944C138.364 103.168 139.756 101.888 141.884 101.888C144.108 101.888 145.228 103.232 145.228 105.168V110H143.628V108.752H143.548C143.084 109.504 142.172 110.16 140.668 110.16ZM139.82 107.904C139.82 108.528 140.22 108.784 141.228 108.784C142.348 108.784 143.58 108.336 143.58 106.736V106.592L141.052 106.976C140.14 107.104 139.82 107.312 139.82 107.904ZM150.035 110.16C147.763 110.16 146.531 108.544 146.531 106.016C146.531 103.504 147.747 101.888 149.939 101.888C151.347 101.888 152.195 102.56 152.547 103.28H152.595V99.28H154.307V110H152.723V108.688H152.659C152.275 109.6 151.395 110.16 150.035 110.16ZM148.259 106.016C148.259 107.984 148.883 108.688 150.419 108.688C151.827 108.688 152.595 108.064 152.595 106.736V105.312C152.595 103.984 151.827 103.36 150.419 103.36C148.899 103.36 148.259 104.064 148.259 106.016ZM162.671 110.16C160.223 110.16 158.703 108.496 158.703 106.016C158.703 103.552 160.223 101.888 162.671 101.888C165.103 101.888 166.575 103.552 166.575 106.016C166.575 108.496 165.103 110.16 162.671 110.16ZM162.671 108.624C164.335 108.624 164.911 107.808 164.911 106.016C164.911 104.24 164.335 103.424 162.671 103.424C160.991 103.424 160.399 104.24 160.399 106.016C160.399 107.808 160.991 108.624 162.671 108.624ZM169.595 110H167.867V102.048H169.451V103.536H169.515C169.883 102.688 170.731 101.888 172.283 101.888C174.347 101.888 175.275 103.2 175.275 105.008V110H173.547V105.392C173.547 103.968 173.099 103.376 171.643 103.376C170.235 103.376 169.595 103.92 169.595 105.408V110ZM183.273 110C181.497 110 180.569 109.344 180.569 107.552V103.488H179.241V102.048H180.601L180.969 100.08H182.297V102.048H184.697V103.488H182.297V107.472C182.297 108.304 182.649 108.448 183.721 108.448H184.697V109.856C184.361 109.936 183.817 110 183.273 110ZM187.657 110H185.929V99.28H187.657V103.376H187.721C188.089 102.656 188.937 101.888 190.377 101.888C192.457 101.888 193.337 103.248 193.337 104.992V110H191.609V105.392C191.609 103.968 191.161 103.376 189.705 103.376C188.297 103.376 187.657 103.92 187.657 105.424V110ZM198.543 110.16C195.919 110.16 194.687 108.496 194.687 106.016C194.687 103.552 196.159 101.888 198.527 101.888C200.671 101.888 202.175 103.168 202.175 105.344C202.175 105.76 202.127 106.192 202.079 106.432H196.303C196.367 107.888 196.895 108.624 198.559 108.624C199.887 108.624 200.399 108.176 200.399 107.456V107.328H202.111V107.472C202.111 109.104 200.687 110.16 198.543 110.16ZM198.495 103.344C196.991 103.344 196.415 104.048 196.319 105.28H200.527C200.591 103.92 199.855 103.344 198.495 103.344Z" fill="white"/>
<path d="M88.8564 138H84.2004L89.7924 121.92H96.3444L101.912 138H96.9684L95.9844 134.904H89.8884L88.8564 138ZM91.4964 130.032L91.1844 130.968H94.7124L94.4244 130.032L93.1524 125.832H92.8164L91.4964 130.032ZM106.781 141.84H102.293V125.664H106.493V127.344H106.637C107.309 126.192 108.605 125.424 110.453 125.424C113.957 125.424 115.469 127.944 115.469 131.832C115.469 135.72 114.005 138.24 110.501 138.24C108.725 138.24 107.525 137.496 106.997 136.368H106.781V141.84ZM106.781 132.288C106.781 133.968 107.453 134.328 108.869 134.328C110.765 134.328 110.981 133.488 110.981 131.832C110.981 130.176 110.741 129.36 108.869 129.36C107.453 129.36 106.781 129.696 106.781 131.4V132.288ZM120.961 141.84H116.473V125.664H120.673V127.344H120.817C121.489 126.192 122.785 125.424 124.633 125.424C128.137 125.424 129.649 127.944 129.649 131.832C129.649 135.72 128.185 138.24 124.681 138.24C122.905 138.24 121.705 137.496 121.177 136.368H120.961V141.84ZM120.961 132.288C120.961 133.968 121.633 134.328 123.049 134.328C124.945 134.328 125.161 133.488 125.161 131.832C125.161 130.176 124.921 129.36 123.049 129.36C121.633 129.36 120.961 129.696 120.961 131.4V132.288ZM135.187 138H130.699V121.92H135.187V138ZM142.513 138.24C138.505 138.24 136.249 135.888 136.249 131.952C136.249 127.872 138.553 125.424 142.657 125.424C146.641 125.424 148.633 127.752 148.633 131.04C148.633 131.712 148.513 132.456 148.441 132.864H140.449C140.521 134.184 140.929 134.496 142.585 134.496C143.665 134.496 144.025 134.28 144.025 133.728V133.68H148.489V133.968C148.489 136.464 146.185 138.24 142.513 138.24ZM142.417 128.976C141.025 128.976 140.521 129.408 140.449 130.416H144.337C144.313 129.624 143.905 128.976 142.417 128.976ZM160.418 138.24C155.81 138.24 153.506 136.08 153.506 132.72V132.408H157.946V132.6C157.946 133.92 158.426 134.184 160.586 134.184C162.29 134.184 162.65 133.92 162.65 133.224C162.65 132.48 162.41 132.24 161.306 132.072L157.802 131.52C154.538 131.016 153.194 129.288 153.194 126.792C153.194 123.936 155.378 121.68 160.106 121.68C164.594 121.68 166.73 123.936 166.73 126.936V127.344H162.29V127.056C162.29 126.12 161.834 125.736 159.818 125.736C158.114 125.736 157.682 126.024 157.682 126.624C157.682 127.128 157.994 127.344 158.93 127.512L162.434 128.136C165.842 128.736 167.162 130.512 167.162 133.008C167.162 135.816 165.242 138.24 160.418 138.24ZM173.89 138.24C170.554 138.24 168.994 136.896 168.994 133.92V129.36H167.362V125.664H169.138L169.93 123.12H173.506V125.664H176.77V129.36H173.506V133.248C173.506 133.992 173.77 134.184 174.802 134.184H176.77V137.952C176.146 138.096 175.018 138.24 173.89 138.24ZM183.884 138.24C179.804 138.24 177.452 135.816 177.452 131.832C177.452 127.824 179.804 125.424 183.884 125.424C187.964 125.424 190.316 127.824 190.316 131.832C190.316 135.816 187.964 138.24 183.884 138.24ZM183.884 134.328C185.396 134.328 185.828 133.8 185.828 131.832C185.828 129.864 185.396 129.336 183.884 129.336C182.372 129.336 181.94 129.864 181.94 131.832C181.94 133.8 182.372 134.328 183.884 134.328ZM195.82 138H191.332V125.664H195.532V127.536H195.748C196.444 126.336 197.62 125.424 199.252 125.424C201.628 125.424 202.468 126.96 202.468 129.384V131.616H197.956V130.392C197.956 129.48 197.788 129.216 196.948 129.216C196.204 129.216 195.82 129.312 195.82 130.2V138ZM209.286 138.24C205.278 138.24 203.022 135.888 203.022 131.952C203.022 127.872 205.326 125.424 209.43 125.424C213.414 125.424 215.406 127.752 215.406 131.04C215.406 131.712 215.286 132.456 215.214 132.864H207.222C207.294 134.184 207.702 134.496 209.358 134.496C210.438 134.496 210.798 134.28 210.798 133.728V133.68H215.262V133.968C215.262 136.464 212.958 138.24 209.286 138.24ZM209.19 128.976C207.798 128.976 207.294 129.408 207.222 130.416H211.11C211.086 129.624 210.678 128.976 209.19 128.976Z" fill="white"/>
<rect x="258.44" y="83" width="222.421" height="72" rx="15" fill="#011019"/>
<g clip-path="url(#clip0_174_4204)">
<path d="M290.718 117.883L270.62 138.94C270.846 139.739 271.251 140.477 271.806 141.096C272.36 141.715 273.049 142.199 273.819 142.511C274.59 142.824 275.421 142.955 276.25 142.897C277.079 142.839 277.884 142.591 278.602 142.174L301.216 129.295L290.718 117.883Z" fill="#EA4335"/>
<path d="M311.04 114.304L301.261 108.703L290.254 118.362L301.306 129.265L311.011 123.724C311.87 123.274 312.59 122.597 313.093 121.766C313.595 120.936 313.861 119.984 313.861 119.014C313.861 118.043 313.595 117.091 313.093 116.261C312.59 115.431 311.87 114.754 311.011 114.304L311.04 114.304Z" fill="#FBBC04"/>
<path d="M270.62 98.9837C270.499 99.4328 270.438 99.8962 270.44 100.361V137.562C270.442 138.027 270.502 138.49 270.62 138.94L291.407 118.422L270.62 98.9837Z" fill="#4285F4"/>
<path d="M290.868 118.962L301.261 108.703L278.677 95.7638C277.828 95.2661 276.861 95.0026 275.877 95C273.433 94.9952 271.285 96.6171 270.62 98.9687L290.868 118.962Z" fill="#34A853"/>
</g>
<path d="M339.014 102.04C338.904 101.695 338.757 101.386 338.571 101.114C338.389 100.837 338.172 100.602 337.918 100.409C337.664 100.212 337.374 100.062 337.048 99.9602C336.726 99.858 336.372 99.8068 335.986 99.8068C335.331 99.8068 334.74 99.9754 334.213 100.312C333.687 100.65 333.27 101.144 332.963 101.795C332.66 102.443 332.509 103.237 332.509 104.176C332.509 105.119 332.662 105.917 332.969 106.568C333.276 107.22 333.696 107.714 334.23 108.051C334.764 108.388 335.372 108.557 336.054 108.557C336.687 108.557 337.238 108.428 337.708 108.17C338.181 107.913 338.547 107.549 338.804 107.08C339.065 106.606 339.196 106.049 339.196 105.409L339.651 105.494H336.321V104.045H340.895V105.369C340.895 106.347 340.687 107.195 340.27 107.915C339.857 108.631 339.285 109.184 338.554 109.574C337.827 109.964 336.994 110.159 336.054 110.159C335.001 110.159 334.077 109.917 333.281 109.432C332.49 108.947 331.872 108.259 331.429 107.369C330.986 106.475 330.764 105.415 330.764 104.188C330.764 103.259 330.893 102.426 331.151 101.688C331.408 100.949 331.77 100.322 332.236 99.8068C332.706 99.2879 333.257 98.892 333.889 98.6193C334.526 98.3428 335.221 98.2045 335.975 98.2045C336.603 98.2045 337.189 98.2973 337.73 98.483C338.276 98.6686 338.761 98.9318 339.185 99.2727C339.613 99.6136 339.967 100.019 340.247 100.489C340.528 100.955 340.717 101.472 340.815 102.04H339.014ZM343.124 110V98.3636H350.419V99.875H344.879V103.42H350.038V104.926H344.879V108.489H350.487V110H343.124ZM352.19 99.875V98.3636H361.196V99.875H357.565V110H355.815V99.875H352.19ZM369.176 98.3636V110H367.421V98.3636H369.176ZM371.159 99.875V98.3636H380.165V99.875H376.534V110H374.784V99.875H371.159ZM396.497 104.182C396.497 105.424 396.27 106.492 395.815 107.386C395.361 108.277 394.738 108.962 393.946 109.443C393.158 109.92 392.262 110.159 391.259 110.159C390.251 110.159 389.351 109.92 388.56 109.443C387.772 108.962 387.151 108.275 386.696 107.381C386.242 106.487 386.014 105.42 386.014 104.182C386.014 102.939 386.242 101.873 386.696 100.983C387.151 100.089 387.772 99.4034 388.56 98.9261C389.351 98.4451 390.251 98.2045 391.259 98.2045C392.262 98.2045 393.158 98.4451 393.946 98.9261C394.738 99.4034 395.361 100.089 395.815 100.983C396.27 101.873 396.497 102.939 396.497 104.182ZM394.759 104.182C394.759 103.235 394.605 102.437 394.298 101.79C393.995 101.138 393.579 100.646 393.048 100.312C392.522 99.9754 391.925 99.8068 391.259 99.8068C390.588 99.8068 389.99 99.9754 389.463 100.312C388.937 100.646 388.52 101.138 388.213 101.79C387.91 102.437 387.759 103.235 387.759 104.182C387.759 105.129 387.91 105.928 388.213 106.58C388.52 107.227 388.937 107.72 389.463 108.057C389.99 108.39 390.588 108.557 391.259 108.557C391.925 108.557 392.522 108.39 393.048 108.057C393.579 107.72 393.995 107.227 394.298 106.58C394.605 105.928 394.759 105.129 394.759 104.182ZM408.078 98.3636V110H406.465L400.55 101.466H400.442V110H398.686V98.3636H400.311L406.232 106.909H406.34V98.3636H408.078Z" fill="white"/>
<path d="M342.952 125.188C342.833 124.773 342.665 124.406 342.449 124.088C342.233 123.764 341.969 123.491 341.656 123.27C341.35 123.043 340.997 122.869 340.6 122.75C340.208 122.631 339.773 122.571 339.296 122.571C338.404 122.571 337.619 122.793 336.943 123.236C336.273 123.679 335.75 124.324 335.375 125.17C335 126.011 334.813 127.04 334.813 128.256C334.813 129.472 334.997 130.506 335.367 131.358C335.736 132.21 336.259 132.861 336.935 133.31C337.611 133.753 338.409 133.974 339.33 133.974C340.165 133.974 340.878 133.827 341.469 133.531C342.065 133.23 342.52 132.807 342.833 132.261C343.151 131.716 343.31 131.071 343.31 130.327L344.06 130.438H339.56V127.659H346.864V129.858C346.864 131.392 346.54 132.71 345.892 133.812C345.244 134.909 344.352 135.756 343.216 136.352C342.08 136.943 340.779 137.239 339.313 137.239C337.676 137.239 336.239 136.878 335 136.156C333.761 135.429 332.796 134.398 332.102 133.062C331.415 131.722 331.071 130.131 331.071 128.29C331.071 126.875 331.276 125.614 331.685 124.506C332.1 123.392 332.679 122.449 333.423 121.676C334.168 120.903 335.034 120.315 336.023 119.912C337.011 119.509 338.083 119.307 339.236 119.307C340.225 119.307 341.145 119.452 341.997 119.741C342.85 120.026 343.605 120.429 344.264 120.952C344.929 121.474 345.472 122.097 345.892 122.818C346.313 123.534 346.583 124.324 346.702 125.188H342.952ZM355.482 137.256C354.159 137.256 353.014 136.974 352.048 136.412C351.087 135.844 350.346 135.054 349.823 134.043C349.301 133.026 349.039 131.847 349.039 130.506C349.039 129.153 349.301 127.972 349.823 126.96C350.346 125.943 351.087 125.153 352.048 124.591C353.014 124.023 354.159 123.739 355.482 123.739C356.806 123.739 357.948 124.023 358.909 124.591C359.874 125.153 360.619 125.943 361.141 126.96C361.664 127.972 361.926 129.153 361.926 130.506C361.926 131.847 361.664 133.026 361.141 134.043C360.619 135.054 359.874 135.844 358.909 136.412C357.948 136.974 356.806 137.256 355.482 137.256ZM355.499 134.443C356.102 134.443 356.605 134.273 357.008 133.932C357.411 133.585 357.715 133.114 357.92 132.517C358.13 131.92 358.235 131.241 358.235 130.48C358.235 129.719 358.13 129.04 357.92 128.443C357.715 127.847 357.411 127.375 357.008 127.028C356.605 126.682 356.102 126.509 355.499 126.509C354.891 126.509 354.38 126.682 353.965 127.028C353.556 127.375 353.247 127.847 353.036 128.443C352.832 129.04 352.73 129.719 352.73 130.48C352.73 131.241 352.832 131.92 353.036 132.517C353.247 133.114 353.556 133.585 353.965 133.932C354.38 134.273 354.891 134.443 355.499 134.443ZM370.201 137.256C368.877 137.256 367.732 136.974 366.766 136.412C365.806 135.844 365.065 135.054 364.542 134.043C364.019 133.026 363.758 131.847 363.758 130.506C363.758 129.153 364.019 127.972 364.542 126.96C365.065 125.943 365.806 125.153 366.766 124.591C367.732 124.023 368.877 123.739 370.201 123.739C371.525 123.739 372.667 124.023 373.627 124.591C374.593 125.153 375.337 125.943 375.86 126.96C376.383 127.972 376.644 129.153 376.644 130.506C376.644 131.847 376.383 133.026 375.86 134.043C375.337 135.054 374.593 135.844 373.627 136.412C372.667 136.974 371.525 137.256 370.201 137.256ZM370.218 134.443C370.82 134.443 371.323 134.273 371.727 133.932C372.13 133.585 372.434 133.114 372.639 132.517C372.849 131.92 372.954 131.241 372.954 130.48C372.954 129.719 372.849 129.04 372.639 128.443C372.434 127.847 372.13 127.375 371.727 127.028C371.323 126.682 370.82 126.509 370.218 126.509C369.61 126.509 369.099 126.682 368.684 127.028C368.275 127.375 367.965 127.847 367.755 128.443C367.551 129.04 367.448 129.719 367.448 130.48C367.448 131.241 367.551 131.92 367.755 132.517C367.965 133.114 368.275 133.585 368.684 133.932C369.099 134.273 369.61 134.443 370.218 134.443ZM384.903 142.182C383.727 142.182 382.718 142.02 381.877 141.696C381.042 141.378 380.377 140.943 379.883 140.392C379.389 139.841 379.068 139.222 378.92 138.534L382.278 138.082C382.38 138.344 382.542 138.588 382.764 138.815C382.985 139.043 383.278 139.224 383.641 139.361C384.011 139.503 384.46 139.574 384.988 139.574C385.778 139.574 386.428 139.381 386.94 138.994C387.457 138.614 387.715 137.974 387.715 137.077V134.682H387.562C387.403 135.045 387.164 135.389 386.846 135.713C386.528 136.037 386.119 136.301 385.619 136.506C385.119 136.71 384.522 136.812 383.829 136.812C382.846 136.812 381.951 136.585 381.144 136.131C380.343 135.67 379.704 134.969 379.227 134.026C378.755 133.077 378.519 131.878 378.519 130.429C378.519 128.946 378.761 127.707 379.244 126.713C379.727 125.719 380.369 124.974 381.17 124.48C381.977 123.986 382.86 123.739 383.82 123.739C384.553 123.739 385.167 123.864 385.661 124.114C386.156 124.358 386.553 124.665 386.855 125.034C387.161 125.398 387.397 125.756 387.562 126.108H387.698V123.909H391.303V137.128C391.303 138.241 391.031 139.173 390.485 139.923C389.94 140.673 389.184 141.236 388.218 141.611C387.258 141.991 386.153 142.182 384.903 142.182ZM384.98 134.085C385.565 134.085 386.059 133.94 386.462 133.651C386.872 133.355 387.184 132.935 387.4 132.389C387.622 131.838 387.732 131.179 387.732 130.412C387.732 129.645 387.624 128.98 387.409 128.418C387.193 127.849 386.88 127.409 386.471 127.097C386.062 126.784 385.565 126.628 384.98 126.628C384.383 126.628 383.88 126.79 383.471 127.114C383.062 127.432 382.752 127.875 382.542 128.443C382.332 129.011 382.227 129.668 382.227 130.412C382.227 131.168 382.332 131.821 382.542 132.372C382.758 132.918 383.068 133.341 383.471 133.642C383.88 133.937 384.383 134.085 384.98 134.085ZM397.823 119.545V137H394.193V119.545H397.823ZM406.698 137.256C405.351 137.256 404.192 136.983 403.22 136.438C402.254 135.886 401.51 135.108 400.987 134.102C400.465 133.091 400.203 131.895 400.203 130.514C400.203 129.168 400.465 127.986 400.987 126.969C401.51 125.952 402.246 125.159 403.195 124.591C404.149 124.023 405.269 123.739 406.553 123.739C407.416 123.739 408.22 123.878 408.965 124.156C409.715 124.429 410.368 124.841 410.925 125.392C411.487 125.943 411.925 126.636 412.237 127.472C412.55 128.301 412.706 129.273 412.706 130.386V131.384H401.652V129.134H409.288C409.288 128.611 409.175 128.148 408.948 127.744C408.72 127.341 408.405 127.026 408.002 126.798C407.604 126.565 407.141 126.449 406.612 126.449C406.061 126.449 405.573 126.577 405.146 126.832C404.726 127.082 404.396 127.42 404.158 127.847C403.919 128.267 403.797 128.736 403.791 129.253V131.392C403.791 132.04 403.911 132.599 404.149 133.071C404.394 133.543 404.737 133.906 405.181 134.162C405.624 134.418 406.149 134.545 406.757 134.545C407.161 134.545 407.53 134.489 407.865 134.375C408.2 134.261 408.487 134.091 408.726 133.864C408.965 133.636 409.146 133.358 409.271 133.028L412.629 133.25C412.459 134.057 412.11 134.761 411.581 135.364C411.058 135.96 410.382 136.426 409.553 136.761C408.729 137.091 407.777 137.256 406.698 137.256ZM420.698 137V119.545H427.585C428.909 119.545 430.036 119.798 430.968 120.304C431.9 120.804 432.61 121.5 433.099 122.392C433.593 123.278 433.84 124.301 433.84 125.46C433.84 126.619 433.59 127.642 433.09 128.528C432.59 129.415 431.866 130.105 430.917 130.599C429.974 131.094 428.832 131.341 427.491 131.341H423.102V128.384H426.894C427.605 128.384 428.19 128.261 428.65 128.017C429.116 127.767 429.462 127.423 429.69 126.986C429.923 126.543 430.039 126.034 430.039 125.46C430.039 124.881 429.923 124.375 429.69 123.943C429.462 123.506 429.116 123.168 428.65 122.929C428.184 122.685 427.593 122.562 426.877 122.562H424.389V137H420.698ZM439.8 119.545V137H436.169V119.545H439.8ZM446.441 137.247C445.606 137.247 444.862 137.102 444.208 136.812C443.555 136.517 443.038 136.082 442.657 135.509C442.282 134.929 442.095 134.207 442.095 133.344C442.095 132.616 442.228 132.006 442.495 131.511C442.762 131.017 443.126 130.619 443.586 130.318C444.046 130.017 444.569 129.79 445.154 129.636C445.745 129.483 446.364 129.375 447.012 129.312C447.774 129.233 448.387 129.159 448.853 129.091C449.319 129.017 449.657 128.909 449.867 128.767C450.078 128.625 450.183 128.415 450.183 128.136V128.085C450.183 127.545 450.012 127.128 449.671 126.832C449.336 126.537 448.859 126.389 448.239 126.389C447.586 126.389 447.066 126.534 446.68 126.824C446.293 127.108 446.038 127.466 445.913 127.898L442.555 127.625C442.725 126.83 443.061 126.142 443.561 125.562C444.061 124.977 444.705 124.528 445.495 124.216C446.291 123.898 447.211 123.739 448.257 123.739C448.984 123.739 449.68 123.824 450.345 123.994C451.015 124.165 451.609 124.429 452.126 124.787C452.649 125.145 453.061 125.605 453.362 126.168C453.663 126.724 453.813 127.392 453.813 128.17V137H450.37V135.185H450.268C450.058 135.594 449.776 135.955 449.424 136.267C449.072 136.574 448.649 136.815 448.154 136.991C447.66 137.162 447.089 137.247 446.441 137.247ZM447.481 134.741C448.015 134.741 448.487 134.636 448.896 134.426C449.305 134.21 449.626 133.92 449.859 133.557C450.092 133.193 450.208 132.781 450.208 132.321V130.932C450.095 131.006 449.938 131.074 449.739 131.136C449.546 131.193 449.328 131.247 449.083 131.298C448.839 131.344 448.595 131.386 448.35 131.426C448.106 131.46 447.884 131.491 447.686 131.52C447.259 131.582 446.887 131.682 446.569 131.818C446.251 131.955 446.004 132.139 445.828 132.372C445.651 132.599 445.563 132.884 445.563 133.224C445.563 133.719 445.742 134.097 446.1 134.358C446.464 134.614 446.924 134.741 447.481 134.741ZM458.403 141.909C457.943 141.909 457.511 141.872 457.107 141.798C456.71 141.73 456.38 141.642 456.119 141.534L456.937 138.824C457.363 138.955 457.747 139.026 458.087 139.037C458.434 139.048 458.732 138.969 458.982 138.798C459.238 138.628 459.445 138.338 459.605 137.929L459.818 137.375L455.122 123.909H458.94L461.65 133.523H461.786L464.522 123.909H468.366L463.278 138.415C463.034 139.119 462.701 139.733 462.281 140.256C461.866 140.784 461.34 141.19 460.704 141.474C460.068 141.764 459.301 141.909 458.403 141.909Z" fill="white"/>
<defs>
<filter id="filter0_d_174_4204" x="147.73" y="0" width="201.4" height="64.7" filterUnits="userSpaceOnUse" color-interpolation-filters="sRGB">
<feFlood flood-opacity="0" result="BackgroundImageFix"/>
<feColorMatrix in="SourceAlpha" type="matrix" values="0 0 0 0 0 0 0 0 0 0 0 0 0 0 0 0 0 0 127 0" result="hardAlpha"/>
<feOffset dy="13"/>
<feGaussianBlur stdDeviation="5.35"/>
<feComposite in2="hardAlpha" operator="out"/>
<feColorMatrix type="matrix" values="0 0 0 0 0 0 0 0 0 0 0 0 0 0 0 0 0 0 0.05 0"/>
<feBlend mode="normal" in2="BackgroundImageFix" result="effect1_dropShadow_174_4204"/>
<feBlend mode="normal" in="SourceGraphic" in2="effect1_dropShadow_174_4204" result="shape"/>
</filter>
<clipPath id="clip0_174_4204">
<rect width="43.4205" height="48" fill="white" transform="translate(270.44 95)"/>
</clipPath>
</defs>
</svg>
