<svg width="54" height="55" viewBox="0 0 54 55" fill="none" xmlns="http://www.w3.org/2000/svg">
<path d="M7.83636 0.0898132C7.54545 0.135269 6.93636 0.289814 6.47273 0.453449C3.38182 1.49891 1.25455 3.72618 0.254545 6.94436L0 7.76254V27.0353V46.308L0.254545 47.1262C1.31818 50.5262 3.43636 52.6898 6.7 53.7353L7.63636 54.0353H27H46.3636L47.3182 53.7353C49.5545 53.0171 51.2455 51.7716 52.4273 49.9807C53.1091 48.9626 53.3455 48.4626 53.7 47.3444L54 46.3989V27.0807V7.76254L53.7455 6.94436C52.7455 3.708 50.6545 1.52618 47.5455 0.453449C47.0909 0.298904 46.4364 0.135269 46.0909 0.0807228C45.3091 -0.0283661 8.60909 -0.0283661 7.83636 0.0898132ZM42.8182 6.01709C43.1182 6.108 43.7818 6.38982 44.2909 6.63527C46.2636 7.608 47.6182 9.38982 48.0909 11.6262C48.2091 12.1898 48.2273 14.2989 48.2273 27.0353C48.2273 43.0898 48.2455 42.4535 47.7182 43.7807C46.9091 45.8171 45.3455 47.2444 43.0909 47.9989L42.4545 48.2171L27.2273 48.2444C12.2182 48.2625 11.9909 48.2625 11.2727 48.0807C8.74545 47.4444 6.86364 45.6444 6.07273 43.1262L5.81818 42.308L5.79091 27.4535C5.76364 11.0535 5.74545 11.6989 6.33636 10.2807C7.36364 7.808 9.51818 6.208 12.2727 5.86254C12.4273 5.84436 19.2364 5.83527 27.4091 5.84436C41.3273 5.86254 42.3091 5.87164 42.8182 6.01709Z" fill="#324B50"/>
<path d="M12.8546 6.63526C11.1637 6.80798 9.36365 7.7898 8.20002 9.15344C7.62729 9.82616 6.92729 11.2443 6.70911 12.1443C6.55456 12.8171 6.54547 13.5989 6.54547 27.1716V41.4898L6.80002 42.2898C7.63638 44.9716 9.42729 46.6716 12.1182 47.3625C12.7818 47.5262 13.3091 47.5353 26.9637 47.5353C42.3182 47.5353 41.6455 47.5534 42.9455 47.0443C43.9818 46.6262 44.5182 46.2807 45.3909 45.4171C46.4364 44.3898 47.1727 42.9443 47.4 41.4443C47.4818 40.9353 47.5 37.0989 47.4818 26.6262L47.4546 12.4898L47.2455 11.808C46.3546 8.93526 43.9637 6.93526 41.0273 6.62617C40.0091 6.51707 13.8727 6.52617 12.8546 6.63526ZM28.5091 13.4171C28.6455 13.5534 28.8637 14.8534 28.9637 16.0807C29.0727 17.3989 29 20.0625 28.8546 20.2171C28.7637 20.308 27.8637 19.8807 27.6455 19.6353C27.5637 19.5443 27.4818 19.0443 27.4091 18.2353C27.3546 17.5443 27.2546 16.6989 27.1909 16.3716L27.0818 15.7625L22.9727 15.7353C20.7091 15.7262 18.8637 15.7443 18.8637 15.7807C18.8637 15.8262 18.9273 16.1989 19 16.6262C19.6546 20.3807 19.5273 24.0716 18.5909 27.808C18.3364 28.8171 17.6 30.7898 16.9909 32.0716C16.3273 33.4716 16.0455 33.9262 16.0455 33.5989C16.0455 33.508 16.1364 33.208 16.2546 32.9171C17.3182 30.2534 17.9364 25.0989 17.5909 21.7171C17.4727 20.5443 17.1455 18.508 16.9818 17.8989C16.8546 17.4262 16.6455 16.5989 16.5273 16.0807C16.5 15.9534 16.4455 15.808 16.4091 15.7625C16.3727 15.708 16.2546 15.408 16.1546 15.0807C16.0546 14.7534 15.8818 14.2716 15.7818 13.9989C15.6727 13.7262 15.6 13.4625 15.6182 13.408C15.6637 13.2898 28.3909 13.2989 28.5091 13.4171ZM24.9637 19.3171C25.9818 19.8989 26.9273 20.4534 27.0637 20.5443C27.1909 20.6443 27.3273 20.7171 27.3546 20.7171C27.4 20.7171 29.3455 21.8353 32.9364 23.9171C33.8091 24.4262 34.5364 24.8807 34.5546 24.9443C34.6 25.0534 34.3727 26.0625 34.0637 27.1262C33.8182 27.9443 33.0364 29.7262 32.4637 30.7443C31.4364 32.5625 29.5 34.7443 27.7273 36.0898C26.7364 36.8443 26.4546 37.0171 26.3 36.9716C26.2455 36.9534 26.5182 36.6716 26.9 36.3534C28.5546 34.9534 30.3273 32.4898 31.3364 30.1716C32.0091 28.6262 32.6273 26.4443 32.4455 26.2625C32.4 26.2171 31.8909 25.908 31.3182 25.5716C29.3546 24.4353 26.8455 22.9898 26.8182 22.9898C26.8 22.9898 26.4637 22.7898 26.0637 22.5353C24.9182 21.8262 24.9546 21.8171 24.6182 22.8716C24.0909 24.4989 23.6273 25.6171 22.7637 27.3171C22.1 28.6262 21.1727 30.1989 20.7273 30.7625C20.5727 30.9625 20.3091 31.3262 20.1364 31.5716C19.3909 32.6716 16.3182 35.9353 16.2455 35.7171C16.2273 35.6625 16.4182 35.3716 16.6637 35.0534C18.0091 33.3625 19.8 30.2989 20.5909 28.3534C20.7 28.0807 20.8455 27.7262 20.9091 27.5807C21.2909 26.6443 22.0273 24.2898 22.1909 23.4898C22.2637 23.1353 22.3637 22.6716 22.4091 22.4443C22.5727 21.708 22.7818 20.3262 22.8637 19.3625C22.9455 18.5171 23 18.2625 23.0818 18.2625C23.1 18.2625 23.9455 18.7353 24.9637 19.3171ZM16.0455 19.7262C16.1818 20.2353 16.3364 21.0716 16.3546 21.3807C16.3637 21.6898 16.3909 21.6716 14.5091 22.1716C14.0727 22.2898 14.0818 22.2353 14.3182 23.1716C14.3727 23.3989 14.4818 23.8898 14.5546 24.2625C14.6364 24.6353 14.7364 25.1262 14.7818 25.3534C15.0364 26.5625 15.1546 28.0443 15.2 30.5262C15.2182 31.9898 15.2182 33.2989 15.1818 33.4262C15.1273 33.6443 15.1091 33.6534 15.0273 33.508C14.9818 33.4171 14.9 33.008 14.8637 32.5989C14.7455 31.4716 14.5909 30.4353 14.5 30.0807C14.4546 29.908 14.3455 29.4716 14.2637 29.1262C13.6091 26.4171 12.9182 24.4989 11.6637 21.9716C11.3182 21.2898 11.0455 20.6898 11.0455 20.6443C11.0455 20.5989 11.1546 20.5353 11.3 20.508C11.4364 20.4898 11.8546 20.3807 12.2273 20.2807C12.6 20.1807 13.4818 19.9443 14.1818 19.7625C14.8818 19.5807 15.4727 19.408 15.4909 19.3898C15.5091 19.3716 15.6273 19.3534 15.7364 19.3534C15.9091 19.3534 15.9637 19.4262 16.0455 19.7262ZM40.7909 22.9625C40.8727 23.208 41.0909 23.9716 41.2727 24.6716C41.4546 25.3716 41.6637 26.1443 41.7364 26.3989C41.8455 26.8171 42.0818 27.6898 42.4637 29.1262C42.5455 29.4262 42.6637 29.8716 42.7364 30.1171C42.9273 30.7716 42.9909 31.2625 42.8909 31.2625C42.8364 31.2625 42.3909 31.1625 41.8818 31.0353C41.3727 30.908 40.9455 30.808 40.9182 30.808C40.8909 30.808 40.6091 31.3534 40.2909 32.0171C38.5 35.6989 35.7 38.3443 32 39.8353C30.8909 40.2807 29.5909 40.5898 27.9455 40.7989C26.9182 40.9353 26.3909 40.9262 24.9273 40.7625C22.4637 40.4898 20.2818 39.7262 18.1455 38.3989C17.3273 37.8807 16.2727 37.0898 16.3364 37.0262C16.3546 37.008 16.8818 37.2534 17.5091 37.5625C19.6364 38.6443 21.4273 39.0716 23.7182 39.0807C24.8091 39.0807 25.6546 38.9989 26.4091 38.808C28.1091 38.3807 29.6091 37.7353 30.9091 36.8534C31.8727 36.208 33.6273 34.508 34.3364 33.5353C35.1546 32.3989 36.2546 30.3443 36.3364 29.7898C36.3637 29.5625 36.2546 29.508 34.9818 29.1625C34.5637 29.0534 34.2273 28.9262 34.2273 28.8898C34.2273 28.7898 40.4727 22.5353 40.5727 22.5353C40.6091 22.5353 40.7091 22.7262 40.7909 22.9625ZM25.7273 30.4443C27.4455 31.2625 28.0273 33.4625 26.9364 35.0534C26.2818 36.0171 24.8727 36.5989 23.8 36.3534C22.2 35.9989 21.2364 34.8171 21.2273 33.208C21.2273 32.3716 21.5273 31.6716 22.1818 31.0262C22.8 30.408 23.3818 30.1807 24.4 30.1807C25.0546 30.1716 25.2273 30.208 25.7273 30.4443Z" fill="#324B50"/>
<path d="M38.0091 26.1626C36.7636 27.408 35.7727 28.4626 35.8091 28.5171C35.8363 28.5717 36.1727 28.6807 36.5454 28.7626C37.1363 28.8989 37.2273 28.9444 37.2273 29.1171C37.2273 29.3171 36.3909 31.0262 36.1727 31.2717C36.1 31.3444 36.0454 31.4353 36.0454 31.4626C36.0454 31.4898 36.6545 31.8262 37.4 32.208L38.7545 32.8989L39.1909 32.2898C39.4273 31.9535 39.8273 31.2807 40.0636 30.7898C40.3273 30.2717 40.5636 29.8989 40.6454 29.8989C40.7182 29.8989 41.0182 29.9717 41.3182 30.0535C41.6545 30.1444 41.9 30.1717 41.9454 30.1171C41.9909 30.0717 41.7909 29.1626 41.5 28.0807C41.2091 27.008 40.8454 25.6626 40.7 25.0898C40.5454 24.5171 40.3818 24.0171 40.3454 23.9807C40.3 23.9353 39.2545 24.9171 38.0091 26.1626Z" fill="#324B50"/>
<path d="M23.1182 31.9534C22.8273 32.1625 22.7546 32.1807 22.6364 32.0807C22.4091 31.8898 22.2364 32.1171 22.4364 32.3353C22.5182 32.4262 22.591 32.6262 22.591 32.7716C22.591 33.1353 22.8819 33.5898 23.2455 33.7716C23.5819 33.9443 23.9 33.8716 24.5273 33.4716C24.7819 33.308 24.9728 33.2625 25.2546 33.2807C25.6091 33.308 25.6364 33.3262 25.6637 33.608C25.691 33.8443 25.6364 33.9625 25.3728 34.2262C25.191 34.408 25.0455 34.5898 25.0455 34.6353C25.0455 34.7625 25.3 34.7353 25.6091 34.5716C25.7637 34.4898 25.9819 34.4534 26.091 34.4807C26.391 34.5534 26.4637 34.3807 26.2455 34.1443C26.1546 34.0353 26.0364 33.8171 26.0091 33.6716C25.9728 33.5171 25.8364 33.2898 25.7 33.1443C25.391 32.8171 25.0091 32.8262 24.3182 33.1716C23.4364 33.6171 23.0455 33.508 23.0455 32.8262C23.0455 32.5625 23.2182 32.3443 23.6273 32.0443C23.8 31.9262 23.7637 31.7171 23.5637 31.7171C23.5 31.7171 23.3 31.8262 23.1182 31.9534Z" fill="#324B50"/>
</svg>
